<?xml version="1.0" encoding="utf-8"?>
<!-- Generator: Adobe Illustrator 27.8.1, SVG Export Plug-In . SVG Version: 6.00 Build 0)  -->
<svg version="1.1" id="Layer_1" xmlns="http://www.w3.org/2000/svg" xmlns:xlink="http://www.w3.org/1999/xlink" x="0px" y="0px"
	 viewBox="0 0 182 148.3" style="enable-background:new 0 0 182 148.3;" xml:space="preserve">
<style type="text/css">
	.st0{fill:#FFFFFF;}
	.st1{fill:#231F20;}
	.st2{enable-background:new    ;}
</style>
<path class="st0" d="M180.2,21c-18.2,2.3-20.1,4.1-22.3,22.3c-2.3-18.2-4.1-20.1-22.3-22.3c18.2-2.3,20.1-4.1,22.3-22.3
	C160.2,16.9,162,18.7,180.2,21z"/>
<circle class="st1" cx="88.8" cy="69.8" r="49.5"/>
<g class="st2">
	<path class="st0" d="M73.3,74.4c-1.2,4-4.5,6.5-9.6,6.5c-6,0-10.7-4.5-10.7-11.2s4.7-11.2,10.8-11.2c4.5,0,7.7,2.2,9.1,5.7
		l-2.5,1.6c-0.9-2.8-3.1-4.7-6.6-4.7c-4.5,0-7.7,3.3-7.7,8.6s3.2,8.6,7.6,8.6c3.9,0,6.1-2,6.9-5.4L73.3,74.4z"/>
	<path class="st0" d="M88,80.5l-7.3-18.8h-0.1v18.8h-2.8V59h4.7l6.4,16.7h0.1L95,59h4.8v21.5h-3V61.7h-0.1l-7.1,18.8H88z"/>
	<path class="st0" d="M124.7,74.4c-1.2,4-4.5,6.5-9.6,6.5c-6,0-10.7-4.5-10.7-11.2s4.7-11.2,10.8-11.2c4.5,0,7.7,2.2,9.1,5.7
		l-2.5,1.6c-0.9-2.8-3.1-4.7-6.6-4.7c-4.5,0-7.7,3.3-7.7,8.6s3.2,8.6,7.6,8.6c3.9,0,6.1-2,6.9-5.4L124.7,74.4z"/>
</g>
<path class="st0" d="M46.4,117.6c-18.2,2.3-20.1,4.1-22.3,22.3c-2.3-18.2-4.1-20.1-22.3-22.3c18.2-2.3,20.1-4.1,22.3-22.3
	C26.4,113.6,28.2,115.4,46.4,117.6z"/>
</svg>
