<?xml version="1.0" encoding="UTF-8"?><svg id="Layer_1" xmlns="http://www.w3.org/2000/svg" viewBox="0 0 259.81 250.27"><defs><style>.cls-1{fill:#46576e;stroke-width:0px;}</style></defs><path class="cls-1" d="M171.66,121.66c-.96,4.45-3.84,5.39-6.19,5.57-2.34.17-4.85-1.02-6.09-1.42-1.23-.4-2.92-.62-3.53,1.37-.62,1.99,1.24,7.96,1.85,10.48.37,1.51.89,3.9,1.42,6.13-4.26,1.05-9.21,2.27-10.62,2.65-2.34.62-4.54,1.49-6.36.21-1.81-1.28-1.1-3.49-.66-4.9.45-1.42,2.44-3.18,2.12-7.03-.3-3.84-6.05-5.17-9.94-4.46-3.88.71-6.36,3.71-6.4,6.68-.05,2.96,1.59,3.98,1.94,6.41.35,2.43-.84,3.26-2.91,3.66-2.07.4-6.29-.65-8.34-1.44-1.01-.39-2.68-1.06-4.25-1.78,1.39-3.53,2.48-6.79,2.98-8.61.57-2.08,1.07-3.94.39-5.84-.58-1.62-2.47-2.07-4.59-1.33-2.03.71-3.98,2.47-7.77,1.41-3.49-.98-4.37-6.01-3.76-10.3.62-4.28,2.98-6.07,6.49-5.65,1.93.23,3.62,2.07,6.32,1.19,2.69-.88,2.27-5.5,1.76-8.04-.64-3.27-1.27-5.78-1.82-8.27,3.05-.89,6.36-1.74,8.93-2.37,6.1-1.51,8.17-.66,8.7.57.53,1.24-.18,2.74-.97,4.33-.8,1.59-2.07,2.83-1.1,6.72.97,3.89,6.93,5.44,11.34,3.4,4.42-2.03,4.38-6.19,3.67-8.04-.7-1.86-1.99-4.86-1.1-6.63.88-1.77,7.31-.83,10.75.16.9.26,2.9.97,5.2,1.85-1.1,3.09-2.88,8.12-3.37,11.29-.65,4.25.61,4.89,2.97,4.53,2.61-.4,2.76-3.01,7.09-2.78,5.05.27,6.92,5.27,5.84,10.28Z"/><path class="cls-1" d="M97.07,169.76c-2.91,3.49-5.91,2.98-8.07,2.04-2.15-.94-3.82-3.16-4.73-4.09-.92-.93-2.29-1.9-3.76-.43-1.48,1.47-2.62,7.61-3.24,10.13-.38,1.51-1.04,3.87-1.6,6.09-7.87-4.18-40.18-21.17-40.18-21.17,0,0,18.13-34.52,21.18-40.2,3.12.64,6.43,1.43,9,2.07,6.09,1.51,7.54,3.22,7.43,4.57-.11,1.34-1.43,2.33-2.88,3.37-1.45,1.04-3.15,1.54-4.11,5.43-.95,3.9,3.61,8.04,8.46,8.3,4.85.26,6.76-3.43,6.99-5.4.24-1.97.51-5.23,2.11-6.38,1.61-1.15,6.86,2.67,9.44,5.16.67.64,2.11,2.2,3.74,4.06-2.41,2.22-6.34,5.84-8.25,8.42-2.55,3.45-1.73,4.61.52,5.39,2.49.86,3.85-1.38,7.57.84,4.35,2.59,3.67,7.89.37,11.81Z"/><path class="cls-1" d="M179.37,195.63s-33.08,11.92-42.76,15.33c.12-3.79.05-7.23-.1-9.11-.17-2.15-.32-4.07-1.61-5.63-1.09-1.33-3.02-1.12-4.77.3-1.67,1.35-2.92,3.66-6.84,3.95-3.62.26-6.15-4.18-7.01-8.43-.86-4.24.75-6.72,4.21-7.51,1.89-.44,4.1.73,6.35-1.01,2.24-1.74.28-5.95-1.05-8.17-1.71-2.85-3.15-5.01-4.51-7.17,2.57-1.87,5.4-3.78,7.6-5.24,5.23-3.47,7.47-3.38,8.39-2.39.91.99.75,2.63.54,4.4-.21,1.77-1,3.37,1.23,6.7,2.22,3.34,8.36,2.77,11.83-.63,3.47-3.4,2.03-7.3.74-8.8-1.29-1.51-3.52-3.91-3.28-5.87.23-1.96,6.61-3.25,10.18-3.48.93-.06,3.05-.07,5.52-.01,2.07,5.73,15.34,42.78,15.34,42.78Z"/><path class="cls-1" d="M204.54,98.35c-4.26,1.05-9.21,2.28-10.61,2.65-2.34.62-4.55,1.5-6.36.22-1.81-1.28-1.1-3.49-.66-4.9.45-1.42,2.43-3.18,2.12-7.03-.31-3.85-6.05-5.17-9.94-4.46-3.88.71-6.36,3.71-6.4,6.67-.05,2.96,1.59,3.98,1.94,6.41.36,2.43-.84,3.27-2.92,3.67-2.07.4-6.28-.65-8.34-1.45-1.01-.39-2.69-1.06-4.25-1.78,1.39-3.54,2.48-6.79,2.98-8.61.57-2.08,1.07-3.94.38-5.85-.58-1.62-2.47-2.07-4.59-1.33-2.03.71-3.98,2.47-7.77,1.41-3.49-.97-4.38-6.01-3.76-10.3.62-4.29,2.98-6.07,6.5-5.65,1.93.23,3.62,2.07,6.31,1.19,2.7-.89,2.27-5.5,1.77-8.04-.65-3.27-1.27-5.78-1.82-8.27,10.39-.01,45.42,0,45.42,0,0,0-.05,36.21,0,45.44Z"/><path class="cls-1" d="M224.32,170.12c-2.31-.89-4.31-1.59-5.2-1.85-3.44-.99-9.88-1.93-10.75-.16-.89,1.76.39,4.77,1.1,6.63.71,1.85.75,6.01-3.67,8.04-4.41,2.03-10.38.49-11.35-3.4-.98-3.89.31-5.13,1.1-6.72.8-1.59,1.5-3.09.97-4.32-.53-1.25-2.61-2.08-8.7-.58-2.57.64-5.88,1.48-8.93,2.37-.54-2.23-1.05-4.62-1.42-6.13-.62-2.52-2.47-8.49-1.85-10.48.61-1.99,2.3-1.77,3.53-1.37,1.24.4,3.76,1.59,6.09,1.42,2.35-.18,5.23-1.12,6.19-5.57,1.08-5.01-.78-10.01-5.84-10.28-4.33-.22-4.48,2.39-7.09,2.78-2.35.36-3.62-.28-2.97-4.53.49-3.17,2.27-8.19,3.37-11.29,1.57.72,3.24,1.39,4.25,1.78,2.06.8,6.26,1.85,8.34,1.45,2.08-.4,3.27-1.23,2.92-3.67-.35-2.43-1.99-3.45-1.94-6.41.04-2.96,2.52-5.96,6.4-6.67,3.89-.7,9.63.62,9.94,4.46.31,3.85-1.68,5.62-2.12,7.03-.44,1.41-1.15,3.62.66,4.9,1.81,1.28,4.02.4,6.36-.22,1.4-.37,6.36-1.6,10.61-2.65.01,14.27-.05,28.72,0,45.44Z"/><path class="cls-1" d="M117.18,63.63c.93,4.45-1.33,6.48-3.4,7.6-2.06,1.11-4.85,1.04-6.14,1.17-1.3.15-2.92.62-2.67,2.69.23,2.07,4.35,6.77,5.94,8.82.95,1.23,2.39,3.21,3.79,5.03-3.46,2.69-7.5,5.82-8.63,6.73-1.89,1.51-3.55,3.21-5.73,2.78-2.17-.44-2.42-2.74-2.59-4.21-.16-1.48.94-3.9-.91-7.29-1.84-3.39-7.62-2.27-10.89-.05-3.26,2.22-4.31,5.97-3.15,8.7,1.16,2.72,3.07,3,4.38,5.07,1.31,2.08.56,3.33-1.18,4.54-1.74,1.21-6.01,1.96-8.21,2.06-1.09.06-2.88.12-4.61.1-7.02-15.68-18.43-41.54-18.43-41.54,0,0,30.98-13.77,41.52-18.42.25,3.27.66,8.59,1.49,11.68,1.13,4.15,2.55,4.22,4.55,2.93,2.22-1.42,1.31-3.87,5.35-5.42,4.73-1.8,8.47,2.01,9.51,7.03Z"/></svg>