<?xml version="1.0" encoding="utf-8"?>
<!-- Generator: Adobe Illustrator 27.8.1, SVG Export Plug-In . SVG Version: 6.00 Build 0)  -->
<svg version="1.1" id="Layer_1" xmlns="http://www.w3.org/2000/svg" xmlns:xlink="http://www.w3.org/1999/xlink" x="0px" y="0px"
	 viewBox="0 0 192.8 201.3" style="enable-background:new 0 0 192.8 201.3;" xml:space="preserve">
<style type="text/css">
	.st0{fill:#46576E;stroke:#ABBBD0;stroke-width:0.77;stroke-linecap:round;stroke-linejoin:round;}
	.st1{fill:#6EA6EF;stroke:#ABBBD0;stroke-width:0.77;stroke-linecap:round;stroke-linejoin:round;}
</style>
<path class="st0" d="M86.7,50.3c-0.9,4.4-3.8,5.4-6.2,5.6c-2.3,0.2-4.8-1-6.1-1.4c-1.2-0.4-2.9-0.6-3.5,1.4c-0.6,2,1.2,7.9,1.8,10.5
	c0.4,1.5,0.9,3.9,1.4,6.1c-4.3,1.1-9.2,2.3-10.6,2.7c-2.3,0.6-4.6,1.5-6.4,0.2s-1.1-3.5-0.7-4.9c0.4-1.4,2.4-3.2,2.1-7
	c-0.3-3.8-6-5.2-9.9-4.5c-3.9,0.7-6.4,3.7-6.4,6.7c0,3,1.6,4,1.9,6.4c0.3,2.4-0.8,3.3-2.9,3.7S35.1,75,33,74.2
	c-1-0.4-2.7-1.1-4.3-1.8c-0.1-17.2,0-45.4,0-45.4s33.9,0,45.4,0c-1.1,3.1-2.9,8.1-3.4,11.3c-0.7,4.2,0.6,4.9,3,4.5
	c2.6-0.4,2.8-3,7.1-2.8C85.9,40.2,87.8,45.2,86.7,50.3L86.7,50.3z"/>
<path class="st0" d="M132.2,95.7c-1,4.5-3.8,5.4-6.2,5.6c-2.3,0.2-4.9-1-6.1-1.4c-1.2-0.4-2.9-0.6-3.5,1.4c-0.6,2,1.2,8,1.9,10.5
	c0.4,1.5,0.9,3.9,1.4,6.1c-4.3,1.1-9.2,2.3-10.6,2.6c-2.3,0.6-4.5,1.5-6.4,0.2c-1.8-1.3-1.1-3.5-0.7-4.9c0.4-1.4,2.4-3.2,2.1-7
	c-0.3-3.8-6.1-5.2-9.9-4.5c-3.9,0.7-6.4,3.7-6.4,6.7c-0.1,3,1.6,4,1.9,6.4c0.3,2.4-0.8,3.3-2.9,3.7c-2.1,0.4-6.3-0.6-8.3-1.4
	c-1-0.4-2.7-1.1-4.2-1.8c1.4-3.5,2.5-6.8,3-8.6c0.6-2.1,1.1-3.9,0.4-5.8c-0.6-1.6-2.5-2.1-4.6-1.3c-2,0.7-4,2.5-7.8,1.4
	c-3.5-1-4.4-6-3.8-10.3c0.6-4.3,3-6.1,6.5-5.7c1.9,0.2,3.6,2.1,6.3,1.2c2.7-0.9,2.3-5.5,1.8-8c-0.6-3.3-1.3-5.8-1.8-8.3
	c3.1-0.9,6.4-1.7,8.9-2.4c6.1-1.5,8.2-0.7,8.7,0.6c0.5,1.2-0.2,2.7-1,4.3c-0.8,1.6-2.1,2.8-1.1,6.7s6.9,5.4,11.3,3.4
	c4.4-2,4.4-6.2,3.7-8c-0.7-1.9-2-4.9-1.1-6.6c0.9-1.8,7.3-0.8,10.8,0.2c0.9,0.3,2.9,1,5.2,1.8c-1.1,3.1-2.9,8.1-3.4,11.3
	c-0.6,4.2,0.6,4.9,3,4.5c2.6-0.4,2.8-3,7.1-2.8C131.4,85.7,133.2,90.7,132.2,95.7L132.2,95.7z"/>
<path class="st1" d="M77.2,109.2c-0.5,1.8-1.6,5.1-3,8.6c-2.3-0.9-4.3-1.6-5.2-1.9c-3.4-1-9.9-1.9-10.8-0.2
	c-0.9,1.8,0.4,4.8,1.1,6.6c0.7,1.9,0.8,6-3.7,8c-4.4,2-10.4,0.5-11.3-3.4s0.3-5.1,1.1-6.7s1.5-3.1,1-4.3c-0.5-1.2-2.6-2.1-8.7-0.6
	c-2.6,0.6-5.9,1.5-8.9,2.4c-0.1-7.3-0.1-38.7,0-45.4c1.6,0.7,3.2,1.4,4.3,1.8c2.1,0.8,6.3,1.8,8.3,1.4c2.1-0.4,3.3-1.2,2.9-3.7
	c-0.4-2.4-2-3.4-1.9-6.4c0.1-3,2.5-6,6.4-6.7c3.9-0.7,9.6,0.6,9.9,4.5c0.3,3.8-1.7,5.6-2.1,7c-0.4,1.4-1.1,3.6,0.7,4.9
	c1.8,1.3,4,0.4,6.4-0.2c1.4-0.4,6.4-1.6,10.6-2.7c0.6,2.5,1.2,5,1.8,8.3c0.5,2.5,0.9,7.2-1.8,8s-4.4-1-6.3-1.2
	c-3.5-0.4-5.9,1.4-6.5,5.7c-0.6,4.3,0.3,9.3,3.8,10.3c3.8,1.1,5.7-0.7,7.8-1.4c2.1-0.7,4-0.3,4.6,1.3
	C78.3,105.3,77.8,107.2,77.2,109.2L77.2,109.2z"/>
<path class="st1" d="M122.6,63.8c-0.5,1.8-1.6,5.1-3,8.6c-2.3-0.9-4.3-1.6-5.2-1.8c-3.4-1-9.9-1.9-10.8-0.2
	c-0.9,1.8,0.4,4.8,1.1,6.6c0.7,1.8,0.8,6-3.7,8c-4.4,2-10.4,0.5-11.3-3.4c-1-3.9,0.3-5.1,1.1-6.7c0.8-1.6,1.5-3.1,1-4.3
	c-0.5-1.2-2.6-2.1-8.7-0.6c-2.6,0.6-5.9,1.5-8.9,2.4c-0.5-2.2-1.1-4.6-1.4-6.1c-0.6-2.5-2.5-8.5-1.8-10.5c0.6-2,2.3-1.8,3.5-1.4
	c1.2,0.4,3.8,1.6,6.1,1.4c2.3-0.2,5.2-1.1,6.2-5.6c1.1-5-0.8-10-5.8-10.3c-4.3-0.2-4.5,2.4-7.1,2.8c-2.3,0.4-3.6-0.3-3-4.5
	c0.5-3.2,2.3-8.2,3.4-11.3c9.2,0,34,0,45.4,0c0.6,2.5,1.2,5,1.8,8.3c0.5,2.5,0.9,7.2-1.8,8s-4.4-1-6.3-1.2c-3.5-0.4-5.9,1.4-6.5,5.7
	c-0.6,4.3,0.3,9.3,3.8,10.3c3.8,1.1,5.7-0.7,7.8-1.4c2.1-0.7,4-0.3,4.6,1.3C123.7,59.9,123.2,61.7,122.6,63.8L122.6,63.8z"/>
<path class="st0" d="M86.7,141.1c-0.9,4.4-3.8,5.4-6.2,5.6c-2.3,0.2-4.8-1-6.1-1.4s-2.9-0.6-3.5,1.4c-0.6,2,1.2,8,1.8,10.5
	c0.4,1.5,0.9,3.9,1.4,6.1c-8.9,0-45.4,0-45.4,0s-0.1-39,0-45.4c3.1-0.9,6.4-1.7,8.9-2.4c6.1-1.5,8.2-0.7,8.7,0.6
	c0.5,1.2-0.2,2.7-1,4.3c-0.8,1.6-2.1,2.8-1.1,6.7c1,3.9,6.9,5.4,11.3,3.4c4.4-2,4.4-6.2,3.7-8c-0.7-1.9-2-4.9-1.1-6.6
	S65.6,115,69,116c0.9,0.3,2.9,1,5.2,1.9c-1.1,3.1-2.9,8.1-3.4,11.3c-0.7,4.2,0.6,4.9,3,4.5c2.6-0.4,2.8-3,7.1-2.8
	C86,131.1,87.8,136.1,86.7,141.1L86.7,141.1z"/>
<path class="st0" d="M122.6,154.7c-0.5,1.8-1.6,5.1-3,8.6c-7,0.1-39.3,0.1-45.4,0c-0.5-2.2-1.1-4.6-1.4-6.1
	c-0.6-2.5-2.5-8.5-1.8-10.5c0.6-2,2.3-1.8,3.5-1.4c1.2,0.4,3.8,1.6,6.1,1.4c2.3-0.2,5.2-1.1,6.2-5.6c1.1-5-0.8-10-5.8-10.3
	c-4.3-0.2-4.5,2.4-7.1,2.8c-2.3,0.4-3.6-0.3-3-4.5c0.5-3.2,2.3-8.2,3.4-11.3c1.6,0.7,3.2,1.4,4.2,1.8c2.1,0.8,6.3,1.8,8.3,1.4
	c2.1-0.4,3.3-1.2,2.9-3.7c-0.3-2.4-2-3.4-1.9-6.4c0-3,2.5-6,6.4-6.7c3.9-0.7,9.6,0.6,9.9,4.5c0.3,3.9-1.7,5.6-2.1,7
	c-0.4,1.4-1.1,3.6,0.7,4.9c1.8,1.3,4,0.4,6.4-0.2c1.4-0.4,6.4-1.6,10.6-2.6c0.6,2.5,1.2,5,1.8,8.3c0.5,2.5,0.9,7.2-1.8,8.1
	c-2.7,0.9-4.4-1-6.3-1.2c-3.5-0.4-5.9,1.4-6.5,5.6c-0.6,4.3,0.3,9.3,3.8,10.3c3.8,1.1,5.7-0.7,7.8-1.4c2.1-0.7,4-0.3,4.6,1.3
	C123.7,150.7,123.2,152.6,122.6,154.7L122.6,154.7z"/>
<path class="st0" d="M165.1,163.3c0,0-35.2,0.1-45.4,0c1.4-3.5,2.5-6.8,3-8.6c0.6-2.1,1.1-3.9,0.4-5.8c-0.6-1.6-2.5-2.1-4.6-1.3
	c-2,0.7-4,2.5-7.8,1.4c-3.5-1-4.4-6-3.8-10.3c0.6-4.3,3-6.1,6.5-5.6c1.9,0.2,3.6,2.1,6.3,1.2c2.7-0.9,2.3-5.5,1.8-8.1
	c-0.6-3.3-1.3-5.8-1.8-8.3c3.1-0.9,6.4-1.7,8.9-2.4c6.1-1.5,8.2-0.7,8.7,0.6c0.5,1.2-0.2,2.7-1,4.3c-0.8,1.6-2.1,2.8-1.1,6.7
	c1,3.9,6.9,5.4,11.4,3.4c4.4-2,4.4-6.2,3.7-8c-0.7-1.9-2-4.9-1.1-6.6c0.9-1.8,7.3-0.8,10.8,0.2c0.9,0.3,2.9,1,5.2,1.9
	C165.1,123.9,165.1,163.3,165.1,163.3L165.1,163.3z"/>
<path class="st0" d="M165.1,72.4c-4.3,1.1-9.2,2.3-10.6,2.7c-2.3,0.6-4.6,1.5-6.4,0.2s-1.1-3.5-0.7-4.9c0.4-1.4,2.4-3.2,2.1-7
	s-6.1-5.2-9.9-4.5c-3.9,0.7-6.4,3.7-6.4,6.7c-0.1,3,1.6,4,1.9,6.4c0.4,2.4-0.8,3.3-2.9,3.7c-2.1,0.4-6.3-0.7-8.3-1.4
	c-1-0.4-2.7-1.1-4.2-1.8c1.4-3.5,2.5-6.8,3-8.6c0.6-2.1,1.1-3.9,0.4-5.8c-0.6-1.6-2.5-2.1-4.6-1.3c-2,0.7-4,2.5-7.8,1.4
	c-3.5-1-4.4-6-3.8-10.3c0.6-4.3,3-6.1,6.5-5.7c1.9,0.2,3.6,2.1,6.3,1.2c2.7-0.9,2.3-5.5,1.8-8c-0.6-3.3-1.3-5.8-1.8-8.3
	c10.4,0,45.4,0,45.4,0S165,63.2,165.1,72.4L165.1,72.4z"/>
<path class="st0" d="M165.1,117.8c-2.3-0.9-4.3-1.6-5.2-1.9c-3.4-1-9.9-1.9-10.8-0.2c-0.9,1.8,0.4,4.8,1.1,6.6c0.7,1.9,0.8,6-3.7,8
	c-4.4,2-10.4,0.5-11.4-3.4c-1-3.9,0.3-5.1,1.1-6.7c0.8-1.6,1.5-3.1,1-4.3c-0.5-1.2-2.6-2.1-8.7-0.6c-2.6,0.6-5.9,1.5-8.9,2.4
	c-0.5-2.2-1.1-4.6-1.4-6.1c-0.6-2.5-2.5-8.5-1.9-10.5c0.6-2,2.3-1.8,3.5-1.4c1.2,0.4,3.8,1.6,6.1,1.4c2.4-0.2,5.2-1.1,6.2-5.6
	c1.1-5-0.8-10-5.8-10.3c-4.3-0.2-4.5,2.4-7.1,2.8c-2.4,0.4-3.6-0.3-3-4.5c0.5-3.2,2.3-8.2,3.4-11.3c1.6,0.7,3.2,1.4,4.2,1.8
	c2.1,0.8,6.3,1.8,8.3,1.4s3.3-1.2,2.9-3.7c-0.4-2.4-2-3.4-1.9-6.4c0-3,2.5-6,6.4-6.7c3.9-0.7,9.6,0.6,9.9,4.5c0.3,3.8-1.7,5.6-2.1,7
	c-0.4,1.4-1.1,3.6,0.7,4.9s4,0.4,6.4-0.2c1.4-0.4,6.4-1.6,10.6-2.7C165.1,86.7,165,101.1,165.1,117.8L165.1,117.8z"/>
</svg>
