<?xml version="1.0" encoding="utf-8"?>
<!-- Generator: Adobe Illustrator 27.8.1, SVG Export Plug-In . SVG Version: 6.00 Build 0)  -->
<svg version="1.1" id="Layer_1" xmlns="http://www.w3.org/2000/svg" xmlns:xlink="http://www.w3.org/1999/xlink" x="0px" y="0px"
	 viewBox="0 0 208 196.3" style="enable-background:new 0 0 208 196.3;" xml:space="preserve">
<style type="text/css">
	.st0{fill:#FFFFFF;}
	.st1{fill:#182D4A;}
	.st2{fill:#231F20;}
	.st3{enable-background:new    ;}
	.st4{fill:none;stroke:#182D4A;stroke-width:1.53;stroke-miterlimit:10;}
	.st5{fill:none;stroke:#8199B9;stroke-width:1.53;stroke-miterlimit:10;}
	.st6{fill:none;stroke:#8199B9;stroke-width:1.53;stroke-miterlimit:10;stroke-dasharray:0,0,0,0,8.39,8.39;}
	.st7{fill:none;stroke:#8199B9;stroke-width:1.53;stroke-miterlimit:10;stroke-dasharray:0,0,0,0,0,0;}
	.st8{fill:#8199B9;}
	.st9{fill:none;stroke:#8199B9;stroke-width:1.32;stroke-miterlimit:10;}
	.st10{fill:none;stroke:#8199B9;stroke-width:1.32;stroke-miterlimit:10;stroke-dasharray:0,0,0,0,7.17,7.17;}
	.st11{fill:none;stroke:#8199B9;stroke-width:1.32;stroke-miterlimit:10;stroke-dasharray:0,0,0,0,0,0;}
	.st12{fill:none;stroke:#8199B9;stroke-width:1.53;stroke-miterlimit:10;stroke-dasharray:0,0,0,0,6.9,6.9;}
	.st13{fill:none;stroke:#8199B9;stroke-width:1.53;stroke-miterlimit:10;stroke-dasharray:0,0,0,0,6.02,6.02;}
	.st14{fill:none;stroke:#8199B9;stroke-width:1.53;stroke-miterlimit:10;stroke-dasharray:0,0,0,0,3.99,3.99;}
</style>
<path class="st0" d="M207.6,15.5c2.1-2.2,3-5.8,1.1-6.9c-1.9-1.1-2.3-2.8-3-4.5c-1.4-3.8-5.4-4.4-7.8-1.1c-0.8,1.2-1.4,2.8-1.4,4.2
	c0,4.5-2,7.3-6.2,8.8c-1.6,0.5-3.2,1.3-4.6,2.2c-3.8,2.2-4.5,3.9-3.8,8.3c-2.2,0.9-4.5,1.7-6.6,2.9c-0.8,0.5-1.9,2.1-1.7,2.5
	c1.5,2.5-0.2,3.7-1.8,4.9c-1.8,1.3-3.6,2.7-5.6,3.8c-0.8,0.5-2.5,1-2.8,0.6c-0.7-0.8-1-2.2-1.1-3.3c-0.1-0.9,0.6-1.9,0.5-2.9
	c0-0.9-0.3-2.5-0.8-2.6c-3.2-0.8-3.3-3.2-3.8-5.7c-0.2-1.1-1.2-2.1-1.7-2.9c1-0.8,2-1.6,3-2.4c-1.1-0.9-2.1-2.3-3.4-2.6
	c-2.5-0.6-5.2-0.8-7.7-0.7c-5.2,0.2-10.4,0.7-15.9,1.1c1.1-1.8,2.1-3.5-0.1-4.1c-4.6-1.3-9.1-2.9-13.8-3.3
	c-12.7-1.1-25.4-1.8-38.1-2.5C67.1,8.4,53.5,7.6,39.9,6.9c-3.6-0.2-7.5-0.4-8,5c-0.4-0.5-0.6-0.6-0.6-0.7c-0.2-2.5-2-3.6-4.1-3.5
	c-2.3,0.2-1.8,2.4-1.7,3.9c0.1,4-0.2,8-2.4,11.5c-3.2,4.9-5.7,10-5.7,16c0,0.4-0.2,0.9-0.2,1.3c-0.1,4.3-0.3,8.6-0.4,12.9
	c0,4.8,3.4,8.8,2.9,13.8c-0.1,0.7,0.7,1.4,1.1,2.1c0.4,0.8,1,1.6,1.1,2.4c0.4,2.7,2.1,4.4,4.1,6.1c2.4,2,4.3,4.6,6.6,6.7
	c1.5,1.4,3.3,2.7,5.2,3.5c2.9,1.3,6,2.2,9,3.4c4.6,1.9,9,4.3,13.7,5.6c2.9,0.8,6.3,0.6,9.3-0.3c3.5-1,5.2-1.1,8,1.4
	c3,2.7,6.1,5.4,9.2,8c1.6,1.3,3.2,1.8,5.1,0.1c1.9-1.7,4.7-1.6,6.3,0.4c1.9,2.4,3.4,5,4.8,7.7c1.9,3.6,4.1,6.9,8.1,8.3
	c1.2,0.4,3,0.4,3.9-0.3c0.6-0.4,0.1-2.4,0-3.7c0-0.2-0.2-0.5-0.3-0.8c-1.3-3-0.4-5.3,2.5-6.9c1.6-0.9,3.3-1.8,4.7-3.1
	c4.3-4.1,10.1-5.2,15.6-3.2c2.1,0.7,4.6,0.6,6.9,0.4c1.9-0.2,2.9-1.4,1.9-3.5c-0.2-0.5-0.4-1.1-0.7-1.8c1.8-0.4,3.4-0.6,4.9-1
	c1.7-0.4,3.2-1.1,4.9-1.5c0.7-0.2,1.6,0,2.4,0.1c2.2,0.2,4.4,0.8,6.6,0.7c3.9-0.1,7.2,1.4,7.9,5.1c1,5.7,5.3,8.6,8.9,12.1
	c2.4,2.3,5.8,1,6-2.5c0.1-2.1-0.4-4.3-1.2-6.2c-1.3-3.1-3.1-5.9-4.7-8.8c-4-7.3-3.7-10.4,1.5-16.9c2.8-3.5,5.6-7.1,8-10.9
	c2.6-4.1,2.8-8.5,0.4-12.8c-0.8-1.4-1.2-2.9-1.6-3.9c1.5-0.8,3.3-1.1,3.6-2c1.1-2.5,1.9-5.3,2.2-8c0.3-3.7,1.7-6.3,4.8-8.3
	c1.6-1,3.2-2.1,4.4-3.5c0.6-0.7,0.5-2.8-0.1-3.4c-2.2-2-2.4-4.4-1.3-6.6C204.2,19.3,205.9,17.3,207.6,15.5L207.6,15.5z"/>
<path class="st1" d="M37.8,140.9l3.8,1.4v-4.2h1.9v4.1l3.9-1.4l0.6,1.8l-3.9,1.2l2.5,3.3l-1.6,1.1l-2.4-3.3l-2.4,3.4l-1.5-1.2
	l2.4-3.3l-3.9-1.3L37.8,140.9L37.8,140.9z"/>
<path class="st1" d="M31.5,130.5l3.8,1.4v-4.2h1.9v4.1l3.9-1.4l0.6,1.8l-3.9,1.2l2.5,3.3l-1.6,1.1l-2.4-3.3l-2.4,3.4l-1.5-1.2
	l2.4-3.3l-3.9-1.3L31.5,130.5L31.5,130.5z"/>
<path class="st1" d="M19.3,133.6l3.8,1.4v-4.2H25v4.1l3.9-1.4l0.6,1.8l-4,1.2l2.5,3.3l-1.5,1.1l-2.4-3.3l-2.4,3.4l-1.5-1.2l2.4-3.3
	l-4-1.3L19.3,133.6L19.3,133.6z"/>
<path class="st1" d="M14.6,149.1l3.8,1.4v-4.2h1.9v4.1l3.9-1.4l0.6,1.8l-4,1.2l2.5,3.3l-1.5,1.1l-2.4-3.3l-2.4,3.4l-1.5-1.2l2.4-3.3
	l-4-1.3L14.6,149.1L14.6,149.1z"/>
<path class="st1" d="M37.8,167.6l3.8,1.4v-4.2h1.9v4.1l3.9-1.4l0.6,1.8l-3.9,1.2l2.5,3.3l-1.6,1.1l-2.4-3.3l-2.4,3.4l-1.5-1.2
	l2.4-3.3l-3.9-1.3L37.8,167.6L37.8,167.6z"/>
<path class="st1" d="M46.2,131.8l3.8,1.4v-4.2H52v4.1l3.9-1.4l0.6,1.8l-3.9,1.2l2.5,3.3l-1.6,1.1l-2.4-3.3l-2.4,3.4l-1.5-1.2
	l2.4-3.3l-3.9-1.3L46.2,131.8L46.2,131.8z"/>
<path class="st1" d="M61,136.9l3.8,1.4v-4.2h1.9v4.1l3.9-1.4l0.6,1.8l-3.9,1.2l2.5,3.3l-1.6,1.1l-2.4-3.3l-2.4,3.4l-1.5-1.2l2.4-3.3
	l-3.9-1.3L61,136.9L61,136.9z"/>
<path class="st1" d="M62.8,151.3l3.8,1.4v-4.2h1.9v4.1l3.9-1.4l0.6,1.8l-3.9,1.2l2.5,3.3l-1.6,1.1l-2.4-3.3l-2.4,3.4l-1.5-1.2
	l2.4-3.3l-3.9-1.3L62.8,151.3L62.8,151.3z"/>
<path class="st1" d="M26.7,144.8l3.9,1.4V142h1.9v4.1l3.9-1.4l0.6,1.8l-3.9,1.2l2.5,3.3l-1.6,1.1l-2.4-3.3l-2.4,3.4l-1.5-1.2
	l2.4-3.3l-4-1.3L26.7,144.8L26.7,144.8z"/>
<path class="st1" d="M24.7,158.3l3.8,1.4v-4.2h1.9v4.1l3.9-1.4l0.6,1.8l-3.9,1.2l2.5,3.3l-1.6,1.1l-2.4-3.3l-2.4,3.4l-1.5-1.2
	l2.4-3.3l-4-1.3L24.7,158.3L24.7,158.3z"/>
<path class="st1" d="M37.8,154.3l3.8,1.4v-4.2h1.9v4.1l3.9-1.4l0.6,1.8l-3.9,1.2l2.5,3.3l-1.6,1.1l-2.4-3.3l-2.4,3.4l-1.5-1.2
	l2.4-3.3l-3.9-1.3L37.8,154.3L37.8,154.3z"/>
<path class="st1" d="M50.1,146.1l3.8,1.4v-4.2h1.9v4.1l3.9-1.4l0.6,1.8l-3.9,1.2l2.5,3.3l-1.6,1.1l-2.4-3.3l-2.4,3.4l-1.5-1.2
	l2.4-3.3l-3.9-1.3L50.1,146.1L50.1,146.1z"/>
<path class="st1" d="M50.1,159.4l3.8,1.4v-4.2h1.9v4.1l3.9-1.4l0.6,1.8l-3.9,1.2l2.5,3.3l-1.6,1.1l-2.4-3.3l-2.4,3.4l-1.5-1.2
	l2.4-3.3l-3.9-1.3L50.1,159.4L50.1,159.4z"/>
<path class="st1" d="M45.7,60.8l3.8,1.3V58h1.9v4.2l3.9-1.3l0.6,1.8L52,63.8l2.5,3.3l-1.6,1.1L50.5,65l-2.4,3.4l-1.5-1.2l2.4-3.3
	L45,62.6L45.7,60.8L45.7,60.8z"/>
<path class="st1" d="M106.5,48.8l3.9,1.3v-4.2h1.9v4.2l3.9-1.3l0.6,1.8l-3.9,1.2l2.5,3.3l-1.6,1.1l-2.4-3.3l-2.4,3.4l-1.5-1.2
	l2.4-3.3l-3.9-1.3L106.5,48.8L106.5,48.8z"/>
<path class="st1" d="M129.8,33.2l3.9,1.3v-4.2h1.9v4.2l3.9-1.3l0.6,1.8l-3.9,1.2l2.5,3.3l-1.6,1.1l-2.4-3.3l-2.4,3.4l-1.5-1.2
	l2.4-3.3l-3.9-1.3L129.8,33.2L129.8,33.2z"/>
<path class="st1" d="M135.2,66l3.9,1.3v-4.2h1.9v4.2l3.9-1.3l0.6,1.8l-3.9,1.2l2.5,3.3l-1.6,1.1l-2.4-3.3l-2.4,3.4l-1.5-1.2l2.4-3.3
	l-3.9-1.3L135.2,66L135.2,66z"/>
<path class="st1" d="M164.1,81l3.9,1.3v-4.2h1.9v4.2l3.9-1.3l0.6,1.8l-3.9,1.2l2.5,3.3l-1.6,1.1l-2.4-3.3l-2.4,3.4l-1.5-1.2l2.4-3.3
	l-3.9-1.3L164.1,81L164.1,81z"/>
<path class="st1" d="M175,59.1l3.9,1.3v-4.2h1.9v4.2l3.9-1.3l0.6,1.8l-3.9,1.2l2.5,3.3l-1.6,1.1l-2.4-3.3l-2.4,3.4l-1.5-1.2l2.4-3.3
	l-3.9-1.3L175,59.1L175,59.1z"/>
<path class="st1" d="M155.4,48.8l3.9,1.3v-4.2h1.9v4.2l3.9-1.3l0.6,1.8l-3.9,1.2l2.5,3.3l-1.6,1.1l-2.4-3.3l-2.4,3.4l-1.5-1.2
	l2.4-3.3l-3.9-1.3L155.4,48.8L155.4,48.8z"/>
<path class="st1" d="M188.6,24l3.9,1.3v-4.2h1.9v4.2l3.9-1.3l0.6,1.8l-3.9,1.2l2.5,3.3l-1.6,1.1l-2.4-3.3l-2.4,3.4l-1.5-1.2l2.4-3.3
	l-3.9-1.3L188.6,24L188.6,24z"/>
<path class="st1" d="M23,56.1l3.8,1.3v-4.2h1.9v4.2l3.9-1.3l0.6,1.8l-3.9,1.2l2.5,3.3l-1.6,1.1l-2.4-3.3l-2.4,3.4l-1.5-1.2l2.4-3.3
	l-4-1.3L23,56.1L23,56.1z"/>
<path class="st1" d="M39.4,28l3.8,1.3v-4.2h1.9v4.2l3.9-1.3l0.6,1.8L45.8,31l2.5,3.3l-1.6,1.1l-2.4-3.3l-2.4,3.4l-1.5-1.2l2.4-3.3
	l-3.9-1.3L39.4,28L39.4,28z"/>
<path class="st1" d="M69.8,46.2l3.8,1.3v-4.2h1.9v4.2l3.9-1.3L80,48l-3.9,1.2l2.5,3.3L77,53.7l-2.4-3.3l-2.4,3.4l-1.5-1.2l2.4-3.3
	L69.1,48L69.8,46.2L69.8,46.2z"/>
<path class="st1" d="M85.8,22.8l3.8,1.3V20h1.9v4.2l3.9-1.3l0.6,1.8l-3.9,1.2l2.5,3.3l-1.6,1.1L90.7,27l-2.4,3.4l-1.5-1.2l2.4-3.3
	l-3.9-1.3L85.8,22.8L85.8,22.8z"/>
<path class="st1" d="M86.6,75.4l3.8,1.3v-4.2h1.9v4.2l3.9-1.3l0.6,1.8l-3.9,1.2l2.5,3.3l-1.6,1.1l-2.4-3.3L89,83l-1.5-1.2l2.4-3.3
	L86,77.2L86.6,75.4L86.6,75.4z"/>
<path class="st1" d="M105.5,100.6l3.9,1.3v-4.2h1.9v4.2l3.9-1.3l0.6,1.8l-3.9,1.3l2.5,3.3l-1.6,1.1l-2.4-3.3l-2.4,3.4l-1.5-1.2
	l2.4-3.3l-3.9-1.3L105.5,100.6L105.5,100.6z"/>
<circle class="st2" cx="147.3" cy="150.4" r="29.8"/>
<g class="st3">
	<path class="st0" d="M138,153.2c-0.7,2.4-2.7,3.9-5.8,3.9c-3.6,0-6.4-2.7-6.4-6.7s2.8-6.7,6.5-6.7c2.7,0,4.6,1.3,5.5,3.4l-1.5,1
		c-0.5-1.7-1.9-2.9-4-2.9c-2.7,0-4.6,2-4.6,5.2s1.9,5.2,4.6,5.2c2.3,0,3.7-1.2,4.2-3.2L138,153.2z"/>
	<path class="st0" d="M146.9,156.8l-4.4-11.3h-0.1v11.3h-1.7v-12.9h2.9l3.8,10h0.1l3.7-10h2.9v12.9h-1.8v-11.3h-0.1l-4.3,11.3H146.9
		z"/>
	<path class="st0" d="M169,153.2c-0.7,2.4-2.7,3.9-5.8,3.9c-3.6,0-6.4-2.7-6.4-6.7s2.8-6.7,6.5-6.7c2.7,0,4.6,1.3,5.5,3.4l-1.5,1
		c-0.5-1.7-1.9-2.9-4-2.9c-2.7,0-4.6,2-4.6,5.2s1.9,5.2,4.6,5.2c2.3,0,3.7-1.2,4.2-3.2L169,153.2z"/>
</g>
<line class="st4" x1="86" y1="153.6" x2="104.3" y2="153.6"/>
<polygon class="st1" points="103.6,155.9 107.6,153.6 103.6,151.4 "/>
<path class="st5" d="M113.3,133.3c0,0-1.3,0-3.6-0.2"/>
<path class="st6" d="M101.4,132c-7.4-1.4-17.4-4.3-27.3-10.4"/>
<path class="st7" d="M70.5,119.4c-10.8-7.4-21.2-18.8-27.5-36.2"/>
<path class="st5" d="M41.7,79.2c-0.3-1.1-0.7-2.3-1-3.4"/>
<polygon class="st8" points="43.1,75.8 39.9,72.6 38.7,77 "/>
<path class="st9" d="M169.6,120.3c0,0,1.1-0.8,2.8-2.3"/>
<path class="st10" d="M177.5,113c3.8-4,8.2-9.6,11.8-16.7c0.7-1.3,1.3-2.7,1.9-4.1"/>
<path class="st11" d="M192.5,88.8c3.8-10.6,5.3-23.6,1.1-38.8"/>
<path class="st9" d="M192.6,46.6c-0.4-1.1-0.8-2.2-1.2-3.4"/>
<polygon class="st8" points="193.4,43 190.3,40.6 189.7,44.4 "/>
<line class="st5" x1="92.9" y1="43.7" x2="94.4" y2="46.9"/>
<line class="st12" x1="97.4" y1="53.1" x2="108" y2="74.8"/>
<polyline class="st7" points="109.5,77.9 111.4,81.8 126.1,112.1 "/>
<line class="st5" x1="127.6" y1="115.2" x2="129.2" y2="118.4"/>
<polygon class="st8" points="91.1,45.3 91.4,40.7 95.2,43.3 "/>
<path class="st5" d="M116.6,125.5c-0.4,0-1.7-0.1-3.6-0.4"/>
<path class="st13" d="M107.2,123.7c-5.4-1.6-12.2-4.6-18.1-10.4"/>
<path class="st7" d="M87,111.1c-1.4-1.6-2.8-3.4-4-5.5c-5.6-9.2-6.4-18.5-5.9-25.2"/>
<path class="st5" d="M77.4,77.5c0.2-1.3,0.4-2.5,0.7-3.5"/>
<polygon class="st8" points="80.1,75.2 78.9,70.8 75.7,74 "/>
<path class="st5" d="M147.2,114c-0.5-0.9-1-2-1.5-3.3"/>
<path class="st14" d="M144.8,106.9c-0.2-1.6-0.3-3.2-0.1-5c0.4-3.4,1.8-5.9,3.5-8.1"/>
<path class="st7" d="M149.4,92.1c2.2-2.8,4.5-5.5,5.8-9.6c0.8-2.5,1.3-5.9,0.4-10.5"/>
<path class="st5" d="M155.1,70c-0.3-1.1-0.6-2.2-1.1-3.4"/>
<polygon class="st8" points="156.4,66.3 152.8,63.5 152.1,68.1 "/>
</svg>
