<?xml version="1.0" encoding="utf-8"?>
<!-- Generator: Adobe Illustrator 27.8.1, SVG Export Plug-In . SVG Version: 6.00 Build 0)  -->
<svg version="1.1" id="Layer_1" xmlns="http://www.w3.org/2000/svg" xmlns:xlink="http://www.w3.org/1999/xlink" x="0px" y="0px"
	 viewBox="0 0 207.8 176.3" style="enable-background:new 0 0 207.8 176.3;" xml:space="preserve">
<style type="text/css">
	.st0{fill:#46576E;stroke:#ABBBD0;stroke-width:0.77;stroke-linecap:round;stroke-linejoin:round;}
	.st1{fill:#FFFFFF;}
</style>
<path class="st0" d="M99.8,31.1c-0.9,4.4-3.8,5.4-6.2,5.6c-2.3,0.2-4.8-1-6.1-1.4c-1.2-0.4-2.9-0.6-3.5,1.4c-0.6,2,1.2,7.9,1.8,10.5
	c0.4,1.5,0.9,3.9,1.4,6.1c-4.3,1.1-9.2,2.3-10.6,2.7c-2.3,0.6-4.6,1.5-6.4,0.2s-1.1-3.5-0.7-4.9c0.4-1.4,2.4-3.2,2.1-7
	c-0.3-3.8-6-5.2-9.9-4.5c-3.9,0.7-6.4,3.7-6.4,6.7c0,3,1.6,4,1.9,6.4c0.3,2.4-0.8,3.3-2.9,3.7s-6.3-0.7-8.3-1.4
	c-1-0.4-2.7-1.1-4.3-1.8c-0.1-17.2,0-45.4,0-45.4s33.9,0,45.4,0c-1.1,3.1-2.9,8.1-3.4,11.3c-0.7,4.2,0.6,4.9,3,4.5
	c2.6-0.4,2.8-3,7.1-2.8C99,21.1,100.9,26.1,99.8,31.1L99.8,31.1z"/>
<path class="st0" d="M145.2,76.6c-1,4.4-3.8,5.4-6.2,5.6c-2.3,0.2-4.9-1-6.1-1.4c-1.2-0.4-2.9-0.6-3.5,1.4c-0.6,2,1.2,8,1.9,10.5
	c0.4,1.5,0.9,3.9,1.4,6.1c-4.3,1.1-9.2,2.3-10.6,2.6c-2.3,0.6-4.5,1.5-6.4,0.2c-1.8-1.3-1.1-3.5-0.7-4.9c0.4-1.4,2.4-3.2,2.1-7
	c-0.3-3.8-6.1-5.2-9.9-4.5c-3.9,0.7-6.4,3.7-6.4,6.7c-0.1,3,1.6,4,1.9,6.4c0.4,2.4-0.8,3.3-2.9,3.7c-2.1,0.4-6.3-0.6-8.3-1.4
	c-1-0.4-2.7-1.1-4.2-1.8c1.4-3.5,2.5-6.8,3-8.6c0.6-2.1,1.1-3.9,0.4-5.8c-0.6-1.6-2.5-2.1-4.6-1.3c-2,0.7-4,2.5-7.8,1.4
	c-3.5-1-4.4-6-3.8-10.3c0.6-4.3,3-6.1,6.5-5.7c1.9,0.2,3.6,2.1,6.3,1.2c2.7-0.9,2.3-5.5,1.8-8c-0.6-3.3-1.3-5.8-1.8-8.3
	c3.1-0.9,6.4-1.7,8.9-2.4c6.1-1.5,8.2-0.7,8.7,0.6c0.5,1.2-0.2,2.7-1,4.3c-0.8,1.6-2.1,2.8-1.1,6.7s6.9,5.4,11.3,3.4
	c4.4-2,4.4-6.2,3.7-8c-0.7-1.9-2-4.9-1.1-6.6c0.9-1.8,7.3-0.8,10.8,0.2c0.9,0.3,2.9,1,5.2,1.8c-1.1,3.1-2.9,8.1-3.4,11.3
	c-0.6,4.2,0.6,4.9,3,4.5c2.6-0.4,2.8-3,7.1-2.8C144.4,66.6,146.3,71.6,145.2,76.6L145.2,76.6z"/>
<path class="st0" d="M90.3,90.1c-0.5,1.8-1.6,5.1-3,8.6c-2.3-0.9-4.3-1.6-5.2-1.9c-3.4-1-9.9-1.9-10.8-0.2c-0.9,1.8,0.4,4.8,1.1,6.6
	c0.7,1.9,0.8,6-3.7,8c-4.4,2-10.4,0.5-11.3-3.4s0.3-5.1,1.1-6.7s1.5-3.1,1-4.3c-0.5-1.2-2.6-2.1-8.7-0.6c-2.6,0.6-5.9,1.5-8.9,2.4
	c-0.1-7.3-0.1-38.7,0-45.4c1.6,0.7,3.2,1.4,4.3,1.8c2.1,0.8,6.3,1.8,8.3,1.4c2.1-0.4,3.3-1.2,2.9-3.7c-0.4-2.4-2-3.4-1.9-6.4
	c0.1-3,2.5-6,6.4-6.7c3.9-0.7,9.6,0.6,9.9,4.5c0.3,3.8-1.7,5.6-2.1,7c-0.4,1.4-1.1,3.6,0.7,4.9c1.8,1.3,4,0.4,6.4-0.2
	c1.4-0.4,6.4-1.6,10.6-2.7c0.6,2.5,1.2,5,1.8,8.3c0.5,2.5,0.9,7.2-1.8,8s-4.4-1-6.3-1.2c-3.5-0.4-5.9,1.4-6.5,5.7
	c-0.6,4.3,0.3,9.3,3.8,10.3c3.8,1.1,5.7-0.7,7.8-1.4c2.1-0.7,4-0.3,4.6,1.3C91.3,86.2,90.8,88,90.3,90.1L90.3,90.1z"/>
<path class="st0" d="M135.7,44.7c-0.5,1.8-1.6,5.1-3,8.6c-2.3-0.9-4.3-1.6-5.2-1.8c-3.4-1-9.9-1.9-10.8-0.2
	c-0.9,1.8,0.4,4.8,1.1,6.6c0.7,1.8,0.8,6-3.7,8c-4.4,2-10.4,0.5-11.3-3.4c-1-3.9,0.3-5.1,1.1-6.7c0.8-1.6,1.5-3.1,1-4.3
	c-0.5-1.2-2.6-2.1-8.7-0.6c-2.6,0.6-5.9,1.5-8.9,2.4c-0.5-2.2-1.1-4.6-1.4-6.1c-0.6-2.5-2.5-8.5-1.8-10.5c0.6-2,2.3-1.8,3.5-1.4
	c1.2,0.4,3.8,1.6,6.1,1.4c2.3-0.2,5.2-1.1,6.2-5.6c1.1-5-0.8-10-5.8-10.3c-4.3-0.2-4.5,2.4-7.1,2.8c-2.3,0.4-3.6-0.3-3-4.5
	c0.5-3.2,2.3-8.2,3.4-11.3c9.2,0,34,0,45.4,0c0.6,2.5,1.2,5,1.8,8.3c0.5,2.5,0.9,7.2-1.8,8s-4.4-1-6.3-1.2c-3.5-0.4-5.9,1.4-6.5,5.7
	c-0.6,4.3,0.3,9.3,3.8,10.3c3.8,1.1,5.7-0.7,7.8-1.4c2.1-0.7,4-0.3,4.6,1.3C136.7,40.7,136.2,42.6,135.7,44.7L135.7,44.7z"/>
<path class="st0" d="M99.8,122c-0.9,4.4-3.8,5.4-6.2,5.6c-2.3,0.2-4.8-1-6.1-1.4c-1.2-0.4-2.9-0.6-3.5,1.4c-0.6,2,1.2,8,1.8,10.5
	c0.4,1.5,0.9,3.9,1.4,6.1c-8.9,0-45.4,0-45.4,0s-0.1-39,0-45.4c3.1-0.9,6.4-1.7,8.9-2.4c6.1-1.5,8.2-0.7,8.7,0.6
	c0.5,1.2-0.2,2.7-1,4.3c-0.8,1.6-2.1,2.8-1.1,6.7c1,3.9,6.9,5.4,11.3,3.4c4.4-2,4.4-6.2,3.7-8c-0.7-1.9-2-4.9-1.1-6.6
	s7.3-0.8,10.8,0.2c0.9,0.3,2.9,1,5.2,1.9c-1.1,3.1-2.9,8.1-3.4,11.3c-0.7,4.2,0.6,4.9,3,4.5c2.6-0.4,2.8-3,7.1-2.8
	C99,112,100.9,117,99.8,122L99.8,122z"/>
<path class="st0" d="M135.7,135.6c-0.5,1.8-1.6,5.1-3,8.6c-7,0.1-39.3,0.1-45.4,0c-0.5-2.2-1.1-4.6-1.4-6.1
	c-0.6-2.5-2.5-8.5-1.8-10.5c0.6-2,2.3-1.8,3.5-1.4c1.2,0.4,3.8,1.6,6.1,1.4c2.3-0.2,5.2-1.1,6.2-5.6c1.1-5-0.8-10-5.8-10.3
	c-4.3-0.2-4.5,2.4-7.1,2.8c-2.3,0.4-3.6-0.3-3-4.5c0.5-3.2,2.3-8.2,3.4-11.3c1.6,0.7,3.2,1.4,4.2,1.8c2.1,0.8,6.3,1.8,8.3,1.4
	s3.3-1.2,2.9-3.7c-0.4-2.4-2-3.4-1.9-6.4c0-3,2.5-6,6.4-6.7c3.9-0.7,9.6,0.6,9.9,4.5c0.3,3.9-1.7,5.6-2.1,7
	c-0.4,1.4-1.1,3.6,0.7,4.9c1.8,1.3,4,0.4,6.4-0.2c1.4-0.4,6.4-1.6,10.6-2.6c0.6,2.5,1.2,5,1.8,8.3c0.5,2.5,0.9,7.2-1.8,8.1
	c-2.7,0.9-4.4-1-6.3-1.2c-3.5-0.4-5.9,1.4-6.5,5.6c-0.6,4.3,0.3,9.3,3.8,10.3c3.8,1.1,5.7-0.7,7.8-1.4c2.1-0.7,4-0.3,4.6,1.3
	C136.7,131.6,136.2,133.5,135.7,135.6L135.7,135.6z"/>
<path class="st0" d="M178.1,144.2c0,0-35.2,0.1-45.4,0c1.4-3.5,2.5-6.8,3-8.6c0.6-2.1,1.1-3.9,0.4-5.8c-0.6-1.6-2.5-2.1-4.6-1.3
	c-2,0.7-4,2.5-7.8,1.4c-3.5-1-4.4-6-3.8-10.3c0.6-4.3,3-6.1,6.5-5.6c1.9,0.2,3.6,2.1,6.3,1.2c2.7-0.9,2.3-5.5,1.8-8.1
	c-0.6-3.3-1.3-5.8-1.8-8.3c3.1-0.9,6.4-1.7,8.9-2.4c6.1-1.5,8.2-0.7,8.7,0.6c0.5,1.2-0.2,2.7-1,4.3c-0.8,1.6-2.1,2.8-1.1,6.7
	c1,3.9,6.9,5.4,11.4,3.4c4.4-2,4.4-6.2,3.7-8c-0.7-1.9-2-4.9-1.1-6.6c0.9-1.8,7.3-0.8,10.8,0.2c0.9,0.3,2.9,1,5.2,1.9
	C178.1,104.8,178.1,144.1,178.1,144.2L178.1,144.2z"/>
<path class="st0" d="M178.1,53.3c-4.3,1.1-9.2,2.3-10.6,2.7c-2.3,0.6-4.6,1.5-6.4,0.2s-1.1-3.5-0.7-4.9c0.4-1.4,2.4-3.2,2.1-7
	s-6.1-5.2-9.9-4.5c-3.9,0.7-6.4,3.7-6.4,6.7c-0.1,3,1.6,4,1.9,6.4c0.4,2.4-0.8,3.3-2.9,3.7c-2.1,0.4-6.3-0.7-8.3-1.4
	c-1-0.4-2.7-1.1-4.2-1.8c1.4-3.5,2.5-6.8,3-8.6c0.6-2.1,1.1-3.9,0.4-5.8c-0.6-1.6-2.5-2.1-4.6-1.3c-2,0.7-4,2.5-7.8,1.4
	c-3.5-1-4.4-6-3.8-10.3c0.6-4.3,3-6.1,6.5-5.7c1.9,0.2,3.6,2.1,6.3,1.2c2.7-0.9,2.3-5.5,1.8-8c-0.6-3.3-1.3-5.8-1.8-8.3
	c10.4,0,45.4,0,45.4,0S178.1,44,178.1,53.3L178.1,53.3z"/>
<path class="st0" d="M178.1,98.7c-2.3-0.9-4.3-1.6-5.2-1.9c-3.4-1-9.9-1.9-10.8-0.2c-0.9,1.8,0.4,4.8,1.1,6.6c0.7,1.9,0.8,6-3.7,8
	c-4.4,2-10.4,0.5-11.4-3.4c-1-3.9,0.3-5.1,1.1-6.7c0.8-1.6,1.5-3.1,1-4.3c-0.5-1.2-2.6-2.1-8.7-0.6c-2.6,0.6-5.9,1.5-8.9,2.4
	c-0.5-2.2-1.1-4.6-1.4-6.1c-0.6-2.5-2.5-8.5-1.9-10.5c0.6-2,2.3-1.8,3.5-1.4c1.2,0.4,3.8,1.6,6.1,1.4c2.4-0.2,5.2-1.1,6.2-5.6
	c1.1-5-0.8-10-5.8-10.3c-4.3-0.2-4.5,2.4-7.1,2.8c-2.4,0.4-3.6-0.3-3-4.5c0.5-3.2,2.3-8.2,3.4-11.3c1.6,0.7,3.2,1.4,4.2,1.8
	c2.1,0.8,6.3,1.8,8.3,1.4s3.3-1.2,2.9-3.7c-0.4-2.4-2-3.4-1.9-6.4c0-3,2.5-6,6.4-6.7c3.9-0.7,9.6,0.6,9.9,4.5c0.3,3.8-1.7,5.6-2.1,7
	c-0.4,1.4-1.1,3.6,0.7,4.9s4,0.4,6.4-0.2c1.4-0.4,6.4-1.6,10.6-2.7C178.1,67.5,178.1,82,178.1,98.7L178.1,98.7z"/>
<path class="st1" d="M47.1,59.6c-17.8,2.2-19.6,4-21.8,21.8c-2.2-17.8-4-19.6-21.8-21.8c17.8-2.2,19.6-4,21.8-21.8
	C27.5,55.6,29.3,57.4,47.1,59.6z"/>
<path class="st1" d="M181.4,153.6c-17.8,2.2-19.6,4-21.8,21.8c-2.2-17.8-4-19.6-21.8-21.8c17.8-2.2,19.6-4,21.8-21.8
	C161.9,149.6,163.7,151.4,181.4,153.6z"/>
<path class="st1" d="M204,28.8c-13,1.6-14.3,2.9-15.9,15.9c-1.6-13-2.9-14.3-15.9-15.9c13-1.6,14.3-2.9,15.9-15.9
	C189.7,25.8,191,27.2,204,28.8z"/>
</svg>
