<?xml version="1.0" encoding="UTF-8"?><svg id="Layer_1" xmlns="http://www.w3.org/2000/svg" xmlns:xlink="http://www.w3.org/1999/xlink" viewBox="0 0 278.02 250.27"><defs><style>.cls-1{fill:none;stroke:#ffa638;stroke-width:.89px;}.cls-1,.cls-2,.cls-3{stroke-miterlimit:10;}.cls-4{fill:#ffb860;}.cls-4,.cls-5,.cls-6,.cls-7,.cls-8,.cls-9,.cls-10,.cls-11,.cls-12{stroke-width:0px;}.cls-2{stroke-width:1.04px;}.cls-2,.cls-5,.cls-3{fill:#ff704f;}.cls-2,.cls-3{stroke:#231f20;}.cls-6{fill:#81ba97;}.cls-13,.cls-10{fill:#fff;}.cls-14{clip-path:url(#clippath);}.cls-7{fill:#e8eeee;}.cls-8{fill:#ffa638;}.cls-9{fill:#231f20;}.cls-11{fill:#bf543b;}.cls-3{stroke-width:1.15px;}.cls-12{fill:#358755;}</style><clipPath id="clippath"><circle class="cls-10" cx="139.05" cy="120.31" r="106.84"/></clipPath></defs><circle class="cls-13" cx="139.05" cy="120.31" r="106.84"/><g class="cls-14"><path class="cls-11" d="M182.79,228.23s-2.61.15-7.03.38h-102.4c-.1-.12-.15-.25-.16-.38-.21-6.32,4.42-16.42,7.79-26,3.37-9.58,10.42-17.37,11.37-17.89.95-.53,2-3.05,2-4.43s.32-4.21,1.79-4.95c1.48-.74,1.58-2.85,2.43-4.63.84-1.79,7.02-1.07,7.02-1.07l.45-.15c.42-.58,52.9,19.01,52.9,19.01l23.84,40.1Z"/><path class="cls-5" d="M173.88,162.96s-14.45,17.69-15.02,25.97-54.46-17.26-54.46-17.26c0,0,4.21-8.98,6.46-9.97,2.24-.98,2.53-14.64,2.53-14.64,0,0,13.47-8.94,13.19-26.07-.28-17.12,1.26-24.42,14.6-24,13.33.42,22.17,20.35,12.07,34.67-10.11,14.32,20.63,31.3,20.63,31.3Z"/><path class="cls-9" d="M194.79,157.91l-20.92,5.05s-30.74-16.98-20.63-31.3c10.11-14.31,1.26-34.25-12.07-34.67-13.34-.42-14.88,6.88-14.6,24,.28,17.12-13.19,26.07-13.19,26.07,0,0-1.41-15.4-13.34-23.4,0,0-12.07-20.63-9.68-36.78,2.39-16.14,15.72-21.48,12.63-27.79,0,0,8-3.79,7.58-10.53,0,0,18.94-7.58,19.79-8.84s14.46-1.12,16,0c1.54,1.12,12.07.98,13.2-.28,1.12-1.26,10.24.7,10.67,2.11.42,1.4,7.02.7,7.58.28.56-.42,12.49,8.84,12.49,11.65s.7,7.72,3.08,7.16l-12.81,4c-1.68-.53-5.26,3.69-7.79,5.79-2.52,2.1-5.37,1.58-7.68-.84-2.32-2.42-4.52-.97-4.52-.97,0,0-1.58,2.24,2.73,4.45,4.32,2.22,6.42,4,6.42,4,0,0,1.26,10.42-2.1,12.1-3.37,1.68-2.53,4.21-2.53,4.21-6.1,18.64,13.58,34.95,17.64,35.9,4.06.95,10.57,16.43,12.99,17.48,2.42,1.05,2.42-.84,1.79-1.68-.63-.84-2.32-3.27-1.36-3.79,0,0,8.45,11.44-1.37,16.63Z"/><path class="cls-5" d="M200.27,120.75c-6.42,1.05-2.84,4.31-2.84,4.31,0,0,.1,5.9-2.32,7.27-2.42,1.37.84.84,2.11,2.42,1.26,1.58-.11,6-1.05,6.53-.95.53.73,2.95,1.36,3.79.63.84.63,2.73-1.79,1.68-2.42-1.05-8.93-16.53-12.99-17.48-4.06-.95-23.75-17.26-17.64-35.9,0,0-.84-2.53,2.53-4.21,3.37-1.68,2.1-12.1,2.1-12.1,0,0-2.1-1.79-6.42-4-4.31-2.21-2.73-4.45-2.73-4.45,0,0,2.21-1.45,4.52.97,2.32,2.42,5.16,2.95,7.68.84,2.53-2.1,6.11-6.31,7.79-5.79,1.68.53,12.74,19.37,12.74,21.9s-.31,7.37,0,9.37c.32,2,11.26,18.1,11.26,18.63s2.11,5.16-4.31,6.21Z"/><path class="cls-11" d="M130.23,108.36s1.97,12.42,5.61,15.79,9.33,6.32,13.9,3.86c0,0,1.47.14-.35,1.75-1.82,1.61-9.61,3.16-13.4-.91-3.79-4.07-6.46-7.58-5.75-20.49Z"/><path class="cls-11" d="M139.42,116.92s2.95-3.79,5.3-2.18,1.47,6,2.49,5.16,1.12-1.3.18-2.88-2.32-4.95-1.86-5.33-4.7,2.7-6.11,5.23Z"/><path class="cls-11" d="M137.49,116.04s2.56-4.6,5.09-6.46.77-2.21,0-1.93-6.77,6.88-5.09,8.39Z"/><path class="cls-11" d="M134.05,108.15s2.84-3.05,5.37-3.16c2.53-.11,3.23.6,3.97.21s-.74-1.68-3.18-1.16c-2.44.53-5.14,1.23-5.45,2.32-.32,1.09-.7,1.79-.7,1.79Z"/><path class="cls-9" d="M177.63,97.38s6.05-4.26,8.53-4.26,5.05,1.63,5.58.79,1.26-4.79-1.95-4.95-10.47,4.11-12.16,8.42Z"/><path class="cls-7" d="M187.32,102.32l-5-1.43,5-2.62c-.09.1-1.2,1.38,0,4.05Z"/><path class="cls-9" d="M180.74,101.53l6.58-3.26,2.32-1.3s-4-.86-8.9,4.56Z"/><path class="cls-9" d="M187.32,102.32c-1.21-2.67-.1-3.95,0-4.05h0s0,0,0,0c.11.13,1.35,1.72,0,4.05Z"/><path class="cls-11" d="M193.48,121.17c-2.89-.95-1.27-4.68-1.27-4.68,0,0-.52.39-.91,1.07-.93,1.61.33,3.62,2.18,3.62h0Z"/><path class="cls-11" d="M198.61,118.77c.44-.32.95-.52,1.49-.55.48-.03.99.04,1.09.41.21.74-.54.63-2.19,1.11s-1.39-.11-1.23-.3c.09-.1.49-.41.84-.66Z"/><path class="cls-11" d="M190.99,118.82s.58,7.15-2.02,9.47c0,0,4.18-1.04,2.02-9.47Z"/><path class="cls-9" d="M195.06,122.8l1.74,2.68s-.22,6.37-5.19,7.16c-4.97.79,3.08-3.26,3.45-9.84Z"/></g><ellipse class="cls-8" cx="215.87" cy="25.8" rx="12.74" ry="42.22" transform="translate(132.33 226.52) rotate(-74.22)"/><path class="cls-4" d="M207.59,30.84c-3.48-1-6.59-3.33-8.5-6.75-1.91-3.41-2.26-7.28-1.3-10.77,3.5,1,6.6,3.33,8.51,6.74,1.91,3.42,2.27,7.29,1.29,10.78Z"/><path class="cls-4" d="M220.72,34.55c-3.48-1-6.59-3.33-8.5-6.75-1.91-3.41-2.26-7.28-1.3-10.77,3.5,1,6.6,3.33,8.51,6.74,1.91,3.42,2.27,7.29,1.29,10.78Z"/><path class="cls-4" d="M234.38,38.41c-3.48-1-6.59-3.33-8.5-6.75-1.91-3.41-2.26-7.28-1.3-10.77,3.5,1,6.6,3.33,8.51,6.74,1.91,3.42,2.27,7.29,1.29,10.78Z"/><path class="cls-5" d="M224.52,41.01c0,9.19-7.45,16.65-16.65,16.65s-16.65-7.45-16.65-16.65,7.45-12.33,16.65-12.33,16.65,3.13,16.65,12.33Z"/><line class="cls-2" x1="203.84" y1="32.89" x2="210.5" y2="35.42"/><line class="cls-3" x1="211.48" y1="32.4" x2="204.27" y2="35.64"/><circle class="cls-12" cx="237.12" cy="44.51" r="5.83"/><circle class="cls-12" cx="234.04" cy="36.73" r="5.83"/><circle class="cls-12" cx="229.89" cy="46.94" r="5.83"/><circle class="cls-12" cx="231.42" cy="41.04" r="5.83"/><circle class="cls-12" cx="224.97" cy="41.86" r="5.83"/><circle class="cls-12" cx="225.2" cy="36.4" r="5.83"/><path class="cls-6" d="M217.76,54.13l5.63,3.42s5.05-9.76,10.87-12.92l-5.82,3.15,6.97-8.7-8.35,7.49,3.99-8.02-5.04,7.37,1.18-7.27s-5.5,13.06-9.41,15.48Z"/><path class="cls-5" d="M44.09,41.54c.11.22.21.45.31.69l-28.65,9.78,6.49-11.12c4.97-8.51,17.57-8.23,21.84.65Z"/><ellipse class="cls-5" cx="40.7" cy="26.16" rx="24.94" ry="20.74"/><path class="cls-9" d="M53.77,56.17c-.11.22-.21.45-.31.69l28.64,9.78-6.49-11.12c-4.97-8.51-17.56-8.23-21.83.65Z"/><ellipse class="cls-9" cx="57.16" cy="40.79" rx="24.93" ry="20.73"/><rect class="cls-8" x="28.08" y="191.53" width="42.64" height="42.64" transform="translate(-43.25 14.96) rotate(-12.02)"/><rect class="cls-9" x="47.28" y="219.18" width="10.06" height="14.69" transform="translate(-46.04 15.86) rotate(-12.02)"/><rect class="cls-10" x="33.26" y="203.95" width="10.06" height="10.06" transform="translate(-42.69 12.56) rotate(-12.02)"/><rect class="cls-10" x="52.94" y="199.76" width="10.06" height="10.06" transform="translate(-41.38 16.57) rotate(-12.02)"/><line class="cls-1" x1="36.63" y1="201.17" x2="40.11" y2="217.49"/><line class="cls-1" x1="68.17" y1="202.98" x2="30.21" y2="211.06"/><line class="cls-1" x1="56.31" y1="196.98" x2="59.78" y2="213.3"/><polygon class="cls-5" points="44.96 192 41.18 174.25 12.48 198.91 44.96 192"/><polygon class="cls-5" points="44.96 192 41.18 174.25 77.45 185.08 44.96 192"/><rect class="cls-11" x="183.63" y="225.18" width="42.32" height="6.54" rx="3.27" ry="3.27" transform="translate(88 -55.25) rotate(19.5)"/><rect class="cls-5" x="180.2" y="231.4" width="45.48" height="4.52" rx="2.26" ry="2.26" transform="translate(89.63 -54.34) rotate(19.5)"/><rect class="cls-11" x="218.43" y="211.72" width="52.23" height="5.59" rx="2.58" ry="2.58" transform="translate(189.48 -106.09) rotate(39)"/><rect class="cls-11" x="217.81" y="181.95" width="21.86" height="4.8" rx="2.4" ry="2.4" transform="translate(166.98 -102.86) rotate(39)"/><rect class="cls-11" x="200.77" y="203" width="21.86" height="4.8" rx="2.4" ry="2.4" transform="translate(176.42 -87.45) rotate(39)"/><rect class="cls-5" x="222.65" y="180.41" width="16.66" height="2.33" rx="1.17" ry="1.17" transform="translate(165.73 -104.89) rotate(39)"/><rect class="cls-5" x="201.12" y="207" width="16.66" height="2.33" rx="1.17" ry="1.17" transform="translate(177.67 -85.42) rotate(39)"/><rect class="cls-11" x="205.33" y="198.92" width="21.33" height="2.33" rx="1.17" ry="1.17" transform="translate(174.04 -91.34) rotate(39)"/><rect class="cls-11" x="213.83" y="188.42" width="21.33" height="2.33" rx="1.17" ry="1.17" transform="translate(169.33 -99.02) rotate(39)"/><rect class="cls-8" x="210.53" y="189.25" width="19.42" height="11.17" transform="translate(171.68 -95.18) rotate(39)"/><path class="cls-5" d="M234.18,191.8l-6.93-5.61-6.93-5.61s-.79.79.08,2.1c.86,1.31-.73,1.5-1.64.77.72.58,6.48,5.24,6.48,5.24,0,0,5.76,4.66,6.48,5.24-.91-.73-1.06-2.33.41-1.76,1.46.57,2.07-.36,2.07-.36Z"/><path class="cls-5" d="M220.17,209.1l-6.93-5.61-6.93-5.61s.6-.93,2.07-.36c1.46.57,1.31-1.03.41-1.76.72.58,6.48,5.24,6.48,5.24l6.48,5.24c-.91-.73-2.5-.55-1.64.77.86,1.31.08,2.1.08,2.1Z"/></svg>