<?xml version="1.0" encoding="UTF-8"?><svg id="Layer_1" xmlns="http://www.w3.org/2000/svg" viewBox="0 0 259.81 250.27"><defs><style>.cls-1{fill:#46576e;stroke:#abbbd0;stroke-linecap:round;stroke-linejoin:round;stroke-width:.77px;}.cls-2{fill:#fff;stroke-width:0px;}</style></defs><path class="cls-1" d="M127.81,78.13c-.95,4.45-3.84,5.39-6.18,5.57-2.34.18-4.85-1.02-6.09-1.42-1.24-.39-2.92-.62-3.53,1.38-.63,1.99,1.23,7.95,1.85,10.47.37,1.51.89,3.91,1.42,6.13-4.26,1.05-9.22,2.28-10.61,2.65-2.34.62-4.55,1.5-6.36.22-1.81-1.28-1.1-3.49-.66-4.9.45-1.42,2.44-3.18,2.12-7.03-.31-3.85-6.04-5.17-9.94-4.46-3.89.71-6.36,3.71-6.41,6.67-.04,2.96,1.59,3.98,1.95,6.41.35,2.43-.84,3.27-2.92,3.67-2.08.4-6.29-.65-8.34-1.45-1.02-.39-2.69-1.06-4.26-1.78-.06-17.18,0-45.44,0-45.44,0,0,33.9-.02,45.42,0-1.1,3.09-2.88,8.12-3.37,11.29-.65,4.25.62,4.89,2.97,4.53,2.61-.39,2.77-3.01,7.09-2.79,5.06.27,6.92,5.27,5.84,10.28Z"/><path class="cls-1" d="M173.23,123.58c-.96,4.45-3.84,5.39-6.19,5.57-2.34.17-4.85-1.02-6.09-1.42-1.23-.4-2.92-.62-3.53,1.37-.62,1.99,1.24,7.96,1.85,10.48.37,1.51.89,3.9,1.42,6.13-4.26,1.05-9.21,2.27-10.62,2.65-2.34.62-4.54,1.49-6.36.21-1.81-1.28-1.1-3.49-.66-4.9.45-1.42,2.44-3.18,2.12-7.03-.3-3.84-6.05-5.17-9.94-4.46-3.88.71-6.36,3.71-6.4,6.68-.05,2.96,1.59,3.98,1.94,6.41.35,2.43-.84,3.26-2.91,3.66-2.07.4-6.29-.65-8.34-1.44-1.01-.39-2.68-1.06-4.25-1.78,1.39-3.53,2.48-6.79,2.98-8.61.57-2.08,1.07-3.94.39-5.84-.58-1.62-2.47-2.07-4.59-1.33-2.03.71-3.98,2.47-7.77,1.41-3.49-.98-4.37-6.01-3.76-10.3.62-4.28,2.98-6.07,6.49-5.65,1.93.23,3.62,2.07,6.32,1.19,2.69-.88,2.27-5.5,1.76-8.04-.64-3.27-1.27-5.78-1.82-8.27,3.05-.89,6.36-1.74,8.93-2.37,6.1-1.51,8.17-.66,8.7.57.53,1.24-.18,2.74-.97,4.33-.8,1.59-2.07,2.83-1.1,6.72.97,3.89,6.93,5.44,11.34,3.4,4.42-2.03,4.38-6.19,3.67-8.04-.7-1.86-1.99-4.86-1.1-6.63.88-1.77,7.31-.83,10.75.16.9.26,2.9.97,5.2,1.85-1.1,3.09-2.88,8.12-3.37,11.29-.65,4.25.61,4.89,2.97,4.53,2.61-.4,2.76-3.01,7.09-2.78,5.05.27,6.92,5.27,5.84,10.28Z"/><path class="cls-1" d="M118.26,137.1c-.5,1.82-1.59,5.08-2.98,8.61-2.31-.89-4.31-1.59-5.2-1.85-3.44-.99-9.87-1.93-10.76-.16-.89,1.76.39,4.77,1.1,6.63.71,1.85.75,6.01-3.66,8.04-4.42,2.03-10.38.49-11.35-3.4-.97-3.89.31-5.13,1.11-6.72.8-1.59,1.5-3.09.97-4.32-.53-1.25-2.61-2.08-8.71-.58-2.56.64-5.87,1.48-8.93,2.37-.06-7.29-.06-38.71,0-45.44,1.57.72,3.24,1.39,4.26,1.78,2.05.8,6.26,1.85,8.34,1.45,2.07-.4,3.27-1.23,2.92-3.67-.36-2.43-1.99-3.45-1.95-6.41.05-2.96,2.52-5.96,6.41-6.67,3.89-.7,9.63.62,9.94,4.46.32,3.85-1.67,5.62-2.12,7.03-.44,1.41-1.14,3.62.66,4.9,1.81,1.28,4.02.4,6.36-.22,1.4-.37,6.36-1.6,10.61-2.65.55,2.5,1.18,5.01,1.82,8.27.5,2.54.93,7.16-1.76,8.04-2.69.88-4.38-.96-6.32-1.19-3.52-.42-5.87,1.37-6.49,5.65-.62,4.29.27,9.33,3.76,10.3,3.79,1.05,5.74-.71,7.77-1.41,2.12-.74,4.02-.29,4.59,1.33.68,1.9.18,3.76-.39,5.84Z"/><path class="cls-1" d="M163.68,91.66c-.5,1.82-1.59,5.07-2.98,8.61-2.3-.88-4.3-1.59-5.2-1.85-3.44-.99-9.87-1.93-10.75-.16-.89,1.77.39,4.77,1.1,6.63.71,1.85.75,6.01-3.67,8.04-4.41,2.04-10.38.49-11.34-3.4-.98-3.89.3-5.13,1.1-6.72.79-1.59,1.5-3.09.97-4.33-.53-1.24-2.61-2.08-8.7-.57-2.57.63-5.88,1.48-8.93,2.37-.54-2.23-1.05-4.62-1.42-6.13-.62-2.52-2.48-8.49-1.85-10.47.61-1.99,2.29-1.77,3.53-1.38,1.24.4,3.75,1.59,6.09,1.42,2.34-.18,5.23-1.12,6.18-5.57,1.08-5.01-.78-10.01-5.84-10.28-4.32-.22-4.48,2.39-7.09,2.79-2.35.36-3.62-.28-2.97-4.53.49-3.17,2.27-8.2,3.37-11.29,9.15-.02,33.96-.02,45.42,0,.55,2.49,1.17,5.01,1.82,8.27.51,2.54.93,7.16-1.77,8.04-2.7.88-4.38-.96-6.31-1.19-3.52-.42-5.87,1.37-6.5,5.65-.62,4.29.27,9.33,3.76,10.3,3.79,1.05,5.74-.7,7.77-1.41,2.12-.74,4.01-.29,4.59,1.33.68,1.91.18,3.76-.38,5.85Z"/><path class="cls-1" d="M127.81,169.02c-.95,4.44-3.84,5.39-6.18,5.57-2.34.17-4.85-1.02-6.09-1.42-1.24-.4-2.92-.62-3.53,1.37-.63,1.99,1.23,7.96,1.85,10.47.37,1.51.89,3.91,1.42,6.14-8.91-.03-45.42,0-45.42,0,0,0-.06-38.99,0-45.44,3.05-.89,6.36-1.73,8.93-2.37,6.09-1.5,8.17-.67,8.71.58.53,1.24-.18,2.73-.97,4.32-.79,1.59-2.07,2.83-1.11,6.72.97,3.89,6.94,5.43,11.35,3.4,4.41-2.03,4.38-6.18,3.66-8.04-.71-1.86-1.99-4.86-1.1-6.63.89-1.77,7.31-.83,10.76.16.89.26,2.89.96,5.2,1.85-1.1,3.09-2.88,8.12-3.37,11.29-.65,4.25.62,4.88,2.97,4.53,2.61-.4,2.77-3.01,7.09-2.78,5.06.27,6.92,5.27,5.84,10.28Z"/><path class="cls-1" d="M163.68,182.55c-.5,1.82-1.59,5.08-2.98,8.61-6.99.05-39.31.05-45.42,0-.54-2.23-1.05-4.62-1.42-6.14-.62-2.52-2.48-8.49-1.85-10.47.61-1.99,2.29-1.77,3.53-1.37,1.24.4,3.75,1.59,6.09,1.42,2.34-.18,5.23-1.12,6.18-5.57,1.08-5.01-.78-10.01-5.84-10.28-4.32-.23-4.48,2.39-7.09,2.78-2.35.36-3.62-.28-2.97-4.53.49-3.17,2.27-8.2,3.37-11.29,1.57.72,3.24,1.39,4.25,1.78,2.05.8,6.27,1.84,8.34,1.44,2.07-.4,3.27-1.23,2.91-3.66-.35-2.43-1.99-3.45-1.94-6.41.04-2.96,2.52-5.97,6.4-6.68,3.89-.7,9.63.62,9.94,4.46.32,3.85-1.67,5.61-2.12,7.03-.43,1.41-1.14,3.62.66,4.9,1.82,1.28,4.02.4,6.36-.21,1.4-.38,6.36-1.6,10.62-2.65.55,2.5,1.17,5.01,1.82,8.27.51,2.54.93,7.16-1.77,8.05-2.7.88-4.38-.97-6.31-1.19-3.52-.42-5.87,1.37-6.5,5.65-.62,4.29.27,9.32,3.76,10.3,3.79,1.05,5.74-.71,7.77-1.41,2.12-.74,4.01-.29,4.59,1.33.68,1.9.18,3.77-.38,5.84Z"/><path class="cls-1" d="M206.12,191.16s-35.16.06-45.42,0c1.39-3.53,2.48-6.79,2.98-8.61.57-2.08,1.07-3.94.38-5.84-.58-1.62-2.47-2.07-4.59-1.33-2.03.7-3.98,2.46-7.77,1.41-3.49-.97-4.38-6.01-3.76-10.3.62-4.28,2.98-6.07,6.5-5.65,1.93.22,3.62,2.07,6.31,1.19,2.7-.89,2.27-5.5,1.77-8.05-.65-3.26-1.27-5.77-1.82-8.27,3.05-.89,6.36-1.73,8.93-2.37,6.1-1.5,8.17-.67,8.7.58.53,1.24-.18,2.73-.97,4.32-.79,1.59-2.08,2.83-1.1,6.72.97,3.89,6.93,5.43,11.35,3.4,4.42-2.03,4.37-6.18,3.67-8.04-.71-1.86-1.99-4.86-1.1-6.63.88-1.77,7.31-.83,10.75.16.89.26,2.89.96,5.2,1.85.01,6.09,0,45.44,0,45.44Z"/><path class="cls-1" d="M206.12,100.27c-4.26,1.05-9.21,2.28-10.61,2.65-2.34.62-4.55,1.5-6.36.22-1.81-1.28-1.1-3.49-.66-4.9.45-1.42,2.43-3.18,2.12-7.03-.31-3.85-6.05-5.17-9.94-4.46-3.88.71-6.36,3.71-6.4,6.67-.05,2.96,1.59,3.98,1.94,6.41.36,2.43-.84,3.27-2.92,3.67-2.07.4-6.28-.65-8.34-1.45-1.01-.39-2.69-1.06-4.25-1.78,1.39-3.54,2.48-6.79,2.98-8.61.57-2.08,1.07-3.94.38-5.85-.58-1.62-2.47-2.07-4.59-1.33-2.03.71-3.98,2.47-7.77,1.41-3.49-.97-4.38-6.01-3.76-10.3.62-4.29,2.98-6.07,6.5-5.65,1.93.23,3.62,2.07,6.31,1.19,2.7-.89,2.27-5.5,1.77-8.04-.65-3.27-1.27-5.78-1.82-8.27,10.39-.01,45.42,0,45.42,0,0,0-.05,36.21,0,45.44Z"/><path class="cls-1" d="M206.12,145.71c-2.31-.89-4.31-1.59-5.2-1.85-3.44-.99-9.88-1.93-10.75-.16-.89,1.76.39,4.77,1.1,6.63.71,1.85.75,6.01-3.67,8.04-4.41,2.03-10.38.49-11.35-3.4-.98-3.89.31-5.13,1.1-6.72.8-1.59,1.5-3.09.97-4.32-.53-1.25-2.61-2.08-8.7-.58-2.57.64-5.88,1.48-8.93,2.37-.54-2.23-1.05-4.62-1.42-6.13-.62-2.52-2.47-8.49-1.85-10.48.61-1.99,2.3-1.77,3.53-1.37,1.24.4,3.76,1.59,6.09,1.42,2.35-.18,5.23-1.12,6.19-5.57,1.08-5.01-.78-10.01-5.84-10.28-4.33-.22-4.48,2.39-7.09,2.78-2.35.36-3.62-.28-2.97-4.53.49-3.17,2.27-8.19,3.37-11.29,1.57.72,3.24,1.39,4.25,1.78,2.06.8,6.26,1.85,8.34,1.45,2.08-.4,3.27-1.23,2.92-3.67-.35-2.43-1.99-3.45-1.94-6.41.04-2.96,2.52-5.96,6.4-6.67,3.89-.7,9.63.62,9.94,4.46.31,3.85-1.68,5.62-2.12,7.03-.44,1.41-1.15,3.62.66,4.9,1.81,1.28,4.02.4,6.36-.22,1.4-.37,6.36-1.6,10.61-2.65.01,14.27-.05,28.72,0,45.44Z"/><path class="cls-2" d="M75.08,106.57c-17.78,2.21-19.56,3.99-21.77,21.77-2.21-17.78-3.99-19.56-21.77-21.77,17.78-2.21,19.56-3.99,21.77-21.77,2.21,17.78,3.99,19.56,21.77,21.77Z"/><path class="cls-2" d="M209.44,200.58c-17.78,2.21-19.56,3.99-21.77,21.77-2.21-17.78-3.99-19.56-21.77-21.77,17.78-2.21,19.56-3.99,21.77-21.77,2.21,17.78,3.99,19.56,21.77,21.77Z"/><path class="cls-2" d="M231.97,75.77c-12.96,1.61-14.27,2.91-15.88,15.88-1.61-12.96-2.91-14.27-15.88-15.88,12.96-1.61,14.27-2.91,15.88-15.88,1.61,12.96,2.91,14.27,15.88,15.88Z"/></svg>