<?xml version="1.0" encoding="UTF-8"?><svg id="Layer_1" xmlns="http://www.w3.org/2000/svg" viewBox="0 0 278.02 250.27"><defs><style>.cls-1{fill:#d4324d;}.cls-1,.cls-2,.cls-3{stroke-width:0px;}.cls-2{fill:#182d4a;}.cls-4{fill:none;stroke:#182d4a;stroke-miterlimit:10;stroke-width:1.71px;}.cls-3{fill:#fff;}</style></defs><path class="cls-3" d="M239.15,49.57c2.02-2.13,2.88-5.49,1-6.55-1.86-1.05-2.22-2.64-2.85-4.3-1.38-3.64-5.12-4.22-7.41-1.05-.8,1.11-1.3,2.69-1.3,4.06-.01,4.28-1.91,6.98-5.94,8.36-1.54.53-3.02,1.28-4.42,2.11-3.64,2.15-4.34,3.72-3.62,7.9-2.09.88-4.29,1.65-6.31,2.74-.79.43-1.85,1.99-1.64,2.36,1.42,2.41-.19,3.53-1.71,4.68-1.72,1.29-3.48,2.55-5.33,3.64-.8.47-2.43.95-2.71.61-.68-.81-.97-2.08-1.07-3.2-.08-.9.53-1.85.52-2.77-.01-.87-.28-2.39-.72-2.5-3.02-.75-3.16-3.09-3.61-5.48-.2-1.08-1.15-2.02-1.59-2.75.91-.73,1.89-1.5,2.86-2.27-1.07-.86-2.02-2.21-3.22-2.48-2.39-.54-4.93-.72-7.39-.63-4.95.19-9.9.68-15.22,1.07,1.04-1.68,2.01-3.29-.13-3.91-4.34-1.26-8.73-2.75-13.19-3.15-12.1-1.09-24.24-1.67-36.36-2.42-12.99-.8-25.97-1.62-38.97-2.31-3.47-.19-7.2-.38-7.64,4.81-.37-.43-.53-.54-.55-.66-.23-2.36-1.89-3.43-3.89-3.3-2.24.15-1.69,2.26-1.65,3.71.09,3.85-.15,7.66-2.31,10.96-3.08,4.69-5.41,9.57-5.41,15.32,0,.42-.22.84-.23,1.27-.14,4.09-.31,8.19-.36,12.29-.05,4.57,3.26,8.45,2.79,13.15-.06.64.67,1.35,1.02,2.04.38.76.93,1.5,1.06,2.3.4,2.59,1.99,4.21,3.89,5.84,2.25,1.94,4.08,4.36,6.29,6.36,1.47,1.33,3.15,2.53,4.94,3.35,2.78,1.28,5.77,2.11,8.61,3.27,4.37,1.78,8.57,4.11,13.07,5.37,2.74.77,6.07.53,8.85-.26,3.31-.94,5.02-1.06,7.67,1.34,2.87,2.6,5.81,5.13,8.78,7.61,1.51,1.26,3.06,1.72,4.82.12,1.79-1.62,4.47-1.52,5.99.42,1.78,2.27,3.26,4.81,4.61,7.36,1.82,3.43,3.9,6.59,7.69,7.95,1.13.41,2.87.37,3.76-.26.56-.4.08-2.28.03-3.5-.01-.24-.19-.47-.3-.71-1.25-2.9-.36-5.1,2.43-6.57,1.58-.83,3.18-1.76,4.46-2.98,4.11-3.91,9.62-4.92,14.96-3.05,2,.7,4.38.61,6.55.43,1.8-.15,2.76-1.36,1.82-3.33-.24-.5-.4-1.05-.67-1.75,1.73-.35,3.25-.58,4.73-.96,1.58-.41,3.11-1.04,4.7-1.41.71-.17,1.51.02,2.27.11,2.09.24,4.19.77,6.28.71,3.74-.1,6.89,1.39,7.51,4.91.95,5.43,5.06,8.26,8.54,11.58,2.34,2.24,5.54.92,5.76-2.36.13-1.96-.34-4.13-1.12-5.96-1.25-2.92-2.96-5.64-4.5-8.43-3.84-6.93-3.51-9.92,1.45-16.17,2.67-3.37,5.31-6.79,7.62-10.41,2.49-3.9,2.67-8.08.37-12.28-.72-1.32-1.17-2.79-1.56-3.73,1.43-.73,3.11-1.03,3.47-1.88,1.01-2.42,1.86-5.03,2.06-7.62.27-3.5,1.61-6.04,4.54-7.91,1.51-.97,3.1-1.99,4.18-3.36.54-.68.47-2.72-.12-3.25-2.13-1.9-2.32-4.19-1.28-6.34,1.05-2.17,2.68-4.13,4.35-5.89Z"/><path class="cls-2" d="M108.26,162.36l3.68,1.29v-4h1.83v3.97l3.75-1.29.57,1.73-3.78,1.2,2.36,3.18-1.48,1.07-2.3-3.15-2.3,3.21-1.45-1.13,2.3-3.12-3.78-1.23.6-1.73Z"/><path class="cls-2" d="M102.18,152.44l3.68,1.29v-4h1.83v3.97l3.75-1.29.57,1.73-3.78,1.2,2.36,3.18-1.48,1.07-2.3-3.15-2.3,3.21-1.45-1.13,2.3-3.12-3.78-1.23.6-1.73Z"/><path class="cls-2" d="M90.55,155.36l3.68,1.29v-4h1.83v3.97l3.75-1.29.57,1.73-3.78,1.2,2.36,3.18-1.48,1.07-2.3-3.15-2.3,3.21-1.45-1.13,2.3-3.12-3.78-1.23.6-1.73Z"/><path class="cls-2" d="M86.07,170.14l3.68,1.29v-4h1.83v3.97l3.75-1.29.57,1.73-3.78,1.2,2.36,3.18-1.48,1.07-2.3-3.15-2.3,3.21-1.45-1.13,2.3-3.12-3.78-1.23.6-1.73Z"/><path class="cls-2" d="M108.26,187.85l3.68,1.29v-4h1.83v3.97l3.75-1.29.57,1.73-3.78,1.2,2.36,3.18-1.48,1.07-2.3-3.15-2.3,3.21-1.45-1.13,2.3-3.12-3.78-1.23.6-1.73Z"/><path class="cls-2" d="M116.28,153.6l3.68,1.29v-4h1.83v3.97l3.75-1.29.57,1.73-3.78,1.2,2.36,3.18-1.48,1.07-2.3-3.15-2.3,3.21-1.45-1.13,2.3-3.12-3.78-1.23.6-1.73Z"/><path class="cls-2" d="M130.4,158.56l3.68,1.29v-4h1.83v3.97l3.75-1.29.57,1.73-3.78,1.2,2.36,3.18-1.48,1.07-2.3-3.15-2.3,3.21-1.45-1.13,2.3-3.12-3.78-1.23.6-1.73Z"/><path class="cls-2" d="M132.12,172.27l3.68,1.29v-4h1.83v3.97l3.75-1.29.57,1.73-3.78,1.2,2.36,3.18-1.48,1.07-2.3-3.15-2.3,3.21-1.45-1.13,2.3-3.12-3.78-1.23.6-1.73Z"/><path class="cls-2" d="M97.66,166.1l3.68,1.29v-4h1.83v3.97l3.75-1.29.57,1.73-3.78,1.2,2.36,3.18-1.48,1.07-2.3-3.15-2.3,3.21-1.45-1.13,2.3-3.12-3.78-1.23.6-1.73Z"/><path class="cls-2" d="M95.76,178.94l3.68,1.29v-4h1.83v3.97l3.75-1.29.57,1.73-3.78,1.2,2.36,3.18-1.48,1.07-2.3-3.15-2.3,3.21-1.45-1.13,2.3-3.12-3.78-1.23.6-1.73Z"/><path class="cls-2" d="M108.26,175.1l3.68,1.29v-4h1.83v3.97l3.75-1.29.57,1.73-3.78,1.2,2.36,3.18-1.48,1.07-2.3-3.15-2.3,3.21-1.45-1.13,2.3-3.12-3.78-1.23.6-1.73Z"/><path class="cls-2" d="M119.98,167.32l3.68,1.29v-4h1.83v3.97l3.75-1.29.57,1.73-3.78,1.2,2.36,3.18-1.48,1.07-2.3-3.15-2.3,3.21-1.45-1.13,2.3-3.12-3.78-1.23.6-1.73Z"/><path class="cls-2" d="M119.98,180.06l3.68,1.29v-4h1.83v3.97l3.75-1.29.57,1.73-3.78,1.2,2.36,3.18-1.48,1.07-2.3-3.15-2.3,3.21-1.45-1.13,2.3-3.12-3.78-1.23.6-1.73Z"/><polyline class="cls-4" points="186.71 88.58 201.34 86.03 197.5 100.36"/><line class="cls-4" x1="129.34" y1="150.41" x2="201.34" y2="86.03"/><polyline class="cls-4" points="93.54 112.43 93.42 105.56 99.7 108.33"/><line class="cls-4" x1="117.74" y1="143.1" x2="93.42" y2="105.55"/><path class="cls-1" d="M212.94,73.4h2.01v2h-2.01v-2ZM214.93,67.33v2.11l-.41,3.39h-1.15l-.41-3.39v-2.11h1.97Z"/><path class="cls-1" d="M182.24,81.46h2.01v2h-2.01v-2ZM184.24,75.4v2.11l-.41,3.39h-1.15l-.41-3.39v-2.11h1.97Z"/><path class="cls-1" d="M212.94,89.45h2.01v2h-2.01v-2ZM214.93,83.39v2.11l-.41,3.39h-1.15l-.41-3.39v-2.11h1.97Z"/><path class="cls-1" d="M75.86,111.27h2.01v2h-2.01v-2ZM77.86,105.2v2.11l-.41,3.39h-1.15l-.41-3.39v-2.11h1.97Z"/><path class="cls-1" d="M84.47,92.49h2.01v2h-2.01v-2ZM86.47,86.42v2.11l-.41,3.39h-1.15l-.41-3.39v-2.11h1.97Z"/></svg>