<?xml version="1.0" encoding="utf-8"?>
<!-- Generator: Adobe Illustrator 27.8.1, SVG Export Plug-In . SVG Version: 6.00 Build 0)  -->
<svg version="1.1" id="Layer_1" xmlns="http://www.w3.org/2000/svg" xmlns:xlink="http://www.w3.org/1999/xlink" x="0px" y="0px"
	 viewBox="0 0 190 160.3" style="enable-background:new 0 0 190 160.3;" xml:space="preserve">
<style type="text/css">
	.st0{fill:#FFFFFF;}
	.st1{fill:#182D4A;}
	.st2{fill:none;stroke:#182D4A;stroke-width:1.71;stroke-miterlimit:10;}
	.st3{fill:#D4324D;}
</style>
<path class="st0" d="M185.1,12.6c2-2.1,2.9-5.5,1-6.5c-1.9-1-2.2-2.6-2.9-4.3c-1.4-3.6-5.1-4.2-7.4-1c-0.8,1.1-1.3,2.7-1.3,4.1
	c0,4.3-1.9,7-5.9,8.4c-1.5,0.5-3,1.3-4.4,2.1c-3.6,2.2-4.3,3.7-3.6,7.9c-2.1,0.9-4.3,1.7-6.3,2.7c-0.8,0.4-1.9,2-1.6,2.4
	c1.4,2.4-0.2,3.5-1.7,4.7c-1.7,1.3-3.5,2.6-5.3,3.6c-0.8,0.5-2.4,0.9-2.7,0.6c-0.7-0.8-1-2.1-1.1-3.2c-0.1-0.9,0.5-1.8,0.5-2.8
	c0-0.9-0.3-2.4-0.7-2.5c-3-0.8-3.2-3.1-3.6-5.5c-0.2-1.1-1.1-2-1.6-2.8c0.9-0.7,1.9-1.5,2.9-2.3c-1.1-0.9-2-2.2-3.2-2.5
	c-2.4-0.5-4.9-0.7-7.4-0.6c-4.9,0.2-9.9,0.7-15.2,1.1c1-1.7,2-3.3-0.1-3.9c-4.3-1.3-8.7-2.8-13.2-3.2C88,8,75.9,7.4,63.8,6.6
	c-13-0.8-26-1.6-39-2.3c-3.5-0.2-7.2-0.4-7.6,4.8c-0.4-0.4-0.5-0.5-0.6-0.7c-0.2-2.4-1.9-3.4-3.9-3.3c-2.2,0.2-1.7,2.3-1.7,3.7
	c0.1,3.8-0.2,7.7-2.3,11c-3.1,4.7-5.4,9.6-5.4,15.3c0,0.4-0.2,0.8-0.2,1.3C3,40.5,2.8,44.6,2.8,48.7c0,4.6,3.3,8.4,2.8,13.2
	c-0.1,0.6,0.7,1.3,1,2c0.4,0.8,0.9,1.5,1.1,2.3c0.4,2.6,2,4.2,3.9,5.8c2.2,1.9,4.1,4.4,6.3,6.4c1.5,1.3,3.2,2.5,4.9,3.3
	c2.8,1.3,5.8,2.1,8.6,3.3c4.4,1.8,8.6,4.1,13.1,5.4c2.7,0.8,6.1,0.5,8.8-0.3c3.3-0.9,5-1.1,7.7,1.3c2.9,2.6,5.8,5.1,8.8,7.6
	c1.5,1.3,3.1,1.7,4.8,0.1c1.8-1.6,4.5-1.5,6,0.4c1.8,2.3,3.3,4.8,4.6,7.4c1.8,3.4,3.9,6.6,7.7,7.9c1.1,0.4,2.9,0.4,3.8-0.3
	c0.6-0.4,0.1-2.3,0-3.5c0-0.2-0.2-0.5-0.3-0.7c-1.2-2.9-0.4-5.1,2.4-6.6c1.6-0.8,3.2-1.8,4.5-3c4.1-3.9,9.6-4.9,15-3.1
	c2,0.7,4.4,0.6,6.6,0.4c1.8-0.1,2.8-1.4,1.8-3.3c-0.2-0.5-0.4-1.1-0.7-1.8c1.7-0.4,3.2-0.6,4.7-1c1.6-0.4,3.1-1,4.7-1.4
	c0.7-0.2,1.5,0,2.3,0.1c2.1,0.2,4.2,0.8,6.3,0.7c3.7-0.1,6.9,1.4,7.5,4.9c0.9,5.4,5.1,8.3,8.5,11.6c2.3,2.2,5.5,0.9,5.8-2.4
	c0.1-2-0.3-4.1-1.1-6c-1.2-2.9-3-5.6-4.5-8.4c-3.8-6.9-3.5-9.9,1.4-16.2c2.7-3.4,5.3-6.8,7.6-10.4c2.5-3.9,2.7-8.1,0.4-12.3
	c-0.7-1.3-1.2-2.8-1.6-3.7c1.4-0.7,3.1-1,3.5-1.9c1-2.4,1.9-5,2.1-7.6c0.3-3.5,1.6-6,4.5-7.9c1.5-1,3.1-2,4.2-3.4
	c0.5-0.7,0.5-2.7-0.1-3.2c-2.1-1.9-2.3-4.2-1.3-6.3C181.8,16.3,183.5,14.3,185.1,12.6L185.1,12.6z"/>
<path class="st1" d="M54.3,125.4l3.7,1.3v-4h1.8v4l3.8-1.3l0.6,1.7l-3.8,1.2l2.4,3.2l-1.5,1.1l-2.3-3.1l-2.3,3.2l-1.4-1.1l2.3-3.1
	l-3.8-1.2L54.3,125.4L54.3,125.4z"/>
<path class="st1" d="M48.2,115.4l3.7,1.3v-4h1.8v4l3.8-1.3l0.6,1.7l-3.8,1.2l2.4,3.2l-1.5,1.1l-2.3-3.1l-2.3,3.2l-1.4-1.1l2.3-3.1
	l-3.8-1.2L48.2,115.4L48.2,115.4z"/>
<path class="st1" d="M36.6,118.4l3.7,1.3v-4h1.8v4l3.8-1.3l0.6,1.7l-3.8,1.2l2.4,3.2l-1.5,1.1l-2.3-3.1l-2.3,3.2l-1.4-1.1l2.3-3.1
	l-3.8-1.2L36.6,118.4L36.6,118.4z"/>
<path class="st1" d="M32.1,133.1l3.7,1.3v-4h1.8v4l3.8-1.3l0.6,1.7l-3.8,1.2l2.4,3.2l-1.5,1.1l-2.3-3.1l-2.3,3.2l-1.4-1.1l2.3-3.1
	l-3.8-1.2L32.1,133.1L32.1,133.1z"/>
<path class="st1" d="M54.3,150.9l3.7,1.3v-4h1.8v4l3.8-1.3l0.6,1.7l-3.8,1.2l2.4,3.2l-1.5,1.1l-2.3-3.1l-2.3,3.2l-1.4-1.1l2.3-3.1
	l-3.8-1.2L54.3,150.9L54.3,150.9z"/>
<path class="st1" d="M62.3,116.6l3.7,1.3v-4h1.8v4l3.8-1.3l0.6,1.7l-3.8,1.2l2.4,3.2l-1.5,1.1l-2.3-3.1l-2.3,3.2l-1.4-1.1l2.3-3.1
	l-3.8-1.2L62.3,116.6L62.3,116.6z"/>
<path class="st1" d="M76.4,121.6l3.7,1.3v-4h1.8v4l3.8-1.3l0.6,1.7l-3.8,1.2l2.4,3.2l-1.5,1.1l-2.3-3.1l-2.3,3.2l-1.4-1.1l2.3-3.1
	l-3.8-1.2L76.4,121.6L76.4,121.6z"/>
<path class="st1" d="M78.1,135.3l3.7,1.3v-4h1.8v4l3.8-1.3l0.6,1.7l-3.8,1.2l2.4,3.2l-1.5,1.1l-2.3-3.1l-2.3,3.2l-1.4-1.1l2.3-3.1
	l-3.8-1.2L78.1,135.3L78.1,135.3z"/>
<path class="st1" d="M43.7,129.1l3.7,1.3v-4h1.8v4l3.8-1.3l0.6,1.7l-3.8,1.2l2.4,3.2l-1.5,1.1l-2.3-3.1l-2.3,3.2l-1.4-1.1l2.3-3.1
	l-3.8-1.2L43.7,129.1L43.7,129.1z"/>
<path class="st1" d="M41.8,141.9l3.7,1.3v-4h1.8v4l3.8-1.3l0.6,1.7l-3.8,1.2l2.4,3.2l-1.5,1.1l-2.3-3.1l-2.3,3.2l-1.4-1.1l2.3-3.1
	l-3.8-1.2L41.8,141.9L41.8,141.9z"/>
<path class="st1" d="M54.3,138.1l3.7,1.3v-4h1.8v4l3.8-1.3l0.6,1.7l-3.8,1.2l2.4,3.2l-1.5,1.1l-2.3-3.1l-2.3,3.2l-1.4-1.1l2.3-3.1
	l-3.8-1.2L54.3,138.1L54.3,138.1z"/>
<path class="st1" d="M66,130.3l3.7,1.3v-4h1.8v4l3.8-1.3l0.6,1.7l-3.8,1.2l2.4,3.2l-1.5,1.1l-2.3-3.1l-2.3,3.2l-1.4-1.1l2.3-3.1
	l-3.8-1.2L66,130.3L66,130.3z"/>
<path class="st1" d="M66,143.1l3.7,1.3v-4h1.8v4l3.8-1.3l0.6,1.7L72,146l2.4,3.2l-1.5,1.1l-2.3-3.1l-2.3,3.2l-1.4-1.1l2.3-3.1
	l-3.8-1.2L66,143.1L66,143.1z"/>
<polyline class="st2" points="132.7,51.6 147.3,49 143.5,63.4 "/>
<line class="st2" x1="75.3" y1="113.4" x2="147.3" y2="49"/>
<polyline class="st2" points="39.5,75.4 39.4,68.6 45.7,71.3 "/>
<line class="st2" x1="63.7" y1="106.1" x2="39.4" y2="68.6"/>
<path class="st3" d="M158.9,36.4h2v2h-2V36.4z M160.9,30.3v2.1l-0.4,3.4h-1.1l-0.4-3.4v-2.1H160.9z"/>
<path class="st3" d="M128.2,44.5h2v2h-2V44.5z M130.2,38.4v2.1l-0.4,3.4h-1.1l-0.4-3.4v-2.1H130.2z"/>
<path class="st3" d="M158.9,52.4h2v2h-2V52.4z M160.9,46.4v2.1l-0.4,3.4h-1.1l-0.4-3.4v-2.1H160.9z"/>
<path class="st3" d="M21.9,74.3h2v2h-2V74.3z M23.9,68.2v2.1l-0.4,3.4h-1.2l-0.4-3.4v-2.1C21.9,68.2,23.9,68.2,23.9,68.2z"/>
<path class="st3" d="M30.5,55.5h2v2h-2V55.5z M32.5,49.4v2.1l-0.4,3.4h-1.2l-0.4-3.4v-2.1C30.5,49.4,32.5,49.4,32.5,49.4z"/>
</svg>
