<?xml version="1.0" encoding="UTF-8"?><svg id="Layer_1" xmlns="http://www.w3.org/2000/svg" viewBox="0 0 278.02 250.27"><defs><style>.cls-1{stroke-dasharray:0 0 0 0 8.39 8.39 8.39 8.39;}.cls-1,.cls-2,.cls-3,.cls-4,.cls-5,.cls-6,.cls-7,.cls-8,.cls-9,.cls-10,.cls-11,.cls-12{stroke:#8199b9;}.cls-1,.cls-2,.cls-3,.cls-4,.cls-5,.cls-6,.cls-7,.cls-8,.cls-9,.cls-10,.cls-11,.cls-12,.cls-13{fill:none;stroke-miterlimit:10;}.cls-1,.cls-2,.cls-3,.cls-5,.cls-7,.cls-8,.cls-10,.cls-11,.cls-12,.cls-13{stroke-width:1.53px;}.cls-14{fill:#8199b9;}.cls-14,.cls-15,.cls-16,.cls-17{stroke-width:0px;}.cls-2{stroke-dasharray:0 0 0 0 3.99 3.99 3.99 3.99;}.cls-3{stroke-dasharray:0 0 0 0 0 0 8.39 8.39 8.39 8.39 8.39 8.39;}.cls-15{fill:#182d4a;}.cls-4,.cls-6,.cls-9{stroke-width:1.32px;}.cls-5{stroke-dasharray:0 0 0 0 6.02 6.02 6.02 6.02;}.cls-6{stroke-dasharray:0 0 0 0 0 0 7.17 7.17 7.17 7.17 7.17 7.17;}.cls-7{stroke-dasharray:0 0 0 0 0 0 6.9 6.9 6.9 6.9 6.9 6.9;}.cls-8{stroke-dasharray:0 0 0 0 0 0 6.02 6.02 6.02 6.02 6.02 6.02;}.cls-9{stroke-dasharray:0 0 0 0 7.17 7.17 7.17 7.17;}.cls-11{stroke-dasharray:0 0 0 0 0 0 3.99 3.99 3.99 3.99 3.99 3.99;}.cls-12{stroke-dasharray:0 0 0 0 6.9 6.9 6.9 6.9;}.cls-13{stroke:#182d4a;}.cls-18{font-family:FoundersGroteskText-Regular, 'Founders Grotesk Text';font-size:20.55px;}.cls-18,.cls-17{fill:#fff;}.cls-16{fill:#231f20;}</style></defs><path class="cls-17" d="M242.64,40.5c2.12-2.23,3.01-5.75,1.05-6.86-1.95-1.1-2.32-2.76-2.98-4.5-1.45-3.81-5.36-4.42-7.75-1.09-.83,1.16-1.36,2.82-1.36,4.25-.01,4.48-2,7.3-6.22,8.75-1.61.55-3.16,1.34-4.63,2.2-3.81,2.25-4.54,3.89-3.79,8.26-2.18.92-4.49,1.72-6.61,2.87-.83.45-1.94,2.09-1.71,2.47,1.48,2.52-.2,3.7-1.79,4.89-1.8,1.35-3.64,2.67-5.58,3.81-.84.49-2.54,1-2.83.64-.71-.85-1.02-2.18-1.12-3.35-.08-.94.56-1.93.54-2.9-.01-.91-.29-2.5-.75-2.62-3.16-.78-3.31-3.23-3.77-5.73-.21-1.13-1.2-2.12-1.66-2.88.96-.76,1.97-1.57,2.99-2.37-1.11-.9-2.12-2.31-3.37-2.59-2.5-.56-5.16-.76-7.73-.66-5.18.2-10.36.71-15.93,1.12,1.09-1.76,2.1-3.45-.14-4.09-4.55-1.32-9.14-2.88-13.81-3.3-12.66-1.14-25.36-1.75-38.05-2.54-13.59-.84-27.18-1.69-40.78-2.42-3.63-.19-7.53-.4-7.99,5.03-.38-.46-.56-.57-.57-.69-.24-2.47-1.98-3.59-4.07-3.46-2.34.15-1.76,2.36-1.73,3.88.09,4.03-.15,8.02-2.42,11.47-3.22,4.9-5.67,10.01-5.66,16.03,0,.44-.23.88-.24,1.33-.14,4.28-.33,8.57-.38,12.86-.05,4.78,3.41,8.84,2.92,13.76-.07.67.71,1.41,1.07,2.13.4.79.98,1.57,1.11,2.41.42,2.71,2.09,4.41,4.07,6.12,2.36,2.03,4.27,4.56,6.58,6.66,1.53,1.39,3.3,2.65,5.17,3.51,2.91,1.34,6.04,2.21,9.01,3.42,4.57,1.86,8.97,4.3,13.68,5.62,2.86.8,6.35.56,9.26-.27,3.46-.99,5.25-1.11,8.02,1.4,3,2.72,6.08,5.36,9.18,7.96,1.58,1.32,3.2,1.81,5.05.13,1.87-1.7,4.68-1.59,6.27.44,1.86,2.37,3.41,5.03,4.82,7.7,1.9,3.59,4.08,6.89,8.05,8.32,1.18.43,3,.39,3.93-.28.59-.42.08-2.39.03-3.66-.01-.25-.2-.5-.31-.75-1.31-3.03-.38-5.34,2.54-6.88,1.65-.87,3.33-1.84,4.67-3.12,4.3-4.09,10.06-5.15,15.65-3.19,2.09.73,4.58.64,6.85.45,1.88-.16,2.89-1.42,1.9-3.49-.25-.53-.42-1.1-.7-1.83,1.81-.36,3.4-.61,4.95-1.01,1.66-.43,3.25-1.09,4.91-1.48.74-.17,1.59.02,2.38.11,2.19.25,4.39.8,6.57.74,3.92-.1,7.21,1.45,7.86,5.14.99,5.68,5.3,8.64,8.94,12.12,2.45,2.34,5.8.96,6.03-2.47.14-2.06-.36-4.32-1.17-6.24-1.3-3.05-3.09-5.9-4.71-8.82-4.02-7.26-3.68-10.38,1.52-16.92,2.8-3.52,5.56-7.11,7.98-10.9,2.6-4.08,2.8-8.46.39-12.85-.76-1.38-1.23-2.92-1.63-3.9,1.5-.76,3.26-1.07,3.63-1.96,1.06-2.53,1.95-5.27,2.16-7.98.29-3.66,1.68-6.32,4.75-8.28,1.58-1.01,3.25-2.08,4.38-3.52.56-.71.49-2.85-.13-3.4-2.23-1.99-2.43-4.38-1.34-6.63,1.1-2.27,2.8-4.32,4.56-6.16Z"/><path class="cls-15" d="M72.83,165.92l3.85,1.35v-4.18h1.91v4.15l3.92-1.35.59,1.81-3.95,1.25,2.47,3.33-1.55,1.12-2.41-3.3-2.41,3.36-1.52-1.19,2.41-3.26-3.95-1.28.63-1.81Z"/><path class="cls-15" d="M66.46,155.54l3.85,1.35v-4.18h1.91v4.15l3.92-1.35.59,1.81-3.95,1.25,2.47,3.33-1.55,1.12-2.41-3.3-2.41,3.36-1.52-1.19,2.41-3.26-3.95-1.28.63-1.81Z"/><path class="cls-15" d="M54.29,158.6l3.85,1.35v-4.18h1.91v4.15l3.92-1.35.59,1.81-3.95,1.25,2.47,3.33-1.55,1.12-2.41-3.3-2.41,3.36-1.52-1.19,2.41-3.26-3.95-1.28.63-1.81Z"/><path class="cls-15" d="M49.61,174.07l3.85,1.35v-4.18h1.91v4.15l3.92-1.35.59,1.81-3.95,1.25,2.47,3.33-1.55,1.12-2.41-3.3-2.41,3.36-1.52-1.19,2.41-3.26-3.95-1.28.63-1.81Z"/><path class="cls-15" d="M72.83,192.6l3.85,1.35v-4.18h1.91v4.15l3.92-1.35.59,1.81-3.95,1.25,2.47,3.33-1.55,1.12-2.41-3.3-2.41,3.36-1.52-1.19,2.41-3.26-3.95-1.28.63-1.81Z"/><path class="cls-15" d="M81.22,156.75l3.85,1.35v-4.18h1.91v4.15l3.92-1.35.59,1.81-3.95,1.25,2.47,3.33-1.55,1.12-2.41-3.3-2.41,3.36-1.52-1.19,2.41-3.26-3.95-1.28.63-1.81Z"/><path class="cls-15" d="M95.99,161.94l3.85,1.35v-4.18h1.91v4.15l3.92-1.35.59,1.81-3.95,1.25,2.47,3.33-1.55,1.12-2.41-3.3-2.41,3.36-1.52-1.19,2.41-3.26-3.95-1.28.63-1.81Z"/><path class="cls-15" d="M97.79,176.3l3.85,1.35v-4.18h1.91v4.15l3.92-1.35.59,1.81-3.95,1.25,2.47,3.33-1.55,1.12-2.41-3.3-2.41,3.36-1.52-1.19,2.41-3.26-3.95-1.28.63-1.81Z"/><path class="cls-15" d="M61.73,169.84l3.85,1.35v-4.18h1.91v4.15l3.92-1.35.59,1.81-3.95,1.25,2.47,3.33-1.55,1.12-2.41-3.3-2.41,3.36-1.52-1.19,2.41-3.26-3.95-1.28.63-1.81Z"/><path class="cls-15" d="M59.74,183.28l3.85,1.35v-4.18h1.91v4.15l3.92-1.35.59,1.81-3.95,1.25,2.47,3.33-1.55,1.12-2.41-3.3-2.41,3.36-1.52-1.19,2.41-3.26-3.95-1.28.63-1.81Z"/><path class="cls-15" d="M72.83,179.26l3.85,1.35v-4.18h1.91v4.15l3.92-1.35.59,1.81-3.95,1.25,2.47,3.33-1.55,1.12-2.41-3.3-2.41,3.36-1.52-1.19,2.41-3.26-3.95-1.28.63-1.81Z"/><path class="cls-15" d="M85.09,171.11l3.85,1.35v-4.18h1.91v4.15l3.92-1.35.59,1.81-3.95,1.25,2.47,3.33-1.55,1.12-2.41-3.3-2.41,3.36-1.52-1.19,2.41-3.26-3.95-1.28.63-1.81Z"/><path class="cls-15" d="M85.09,184.45l3.85,1.35v-4.18h1.91v4.15l3.92-1.35.59,1.81-3.95,1.25,2.47,3.33-1.55,1.12-2.41-3.3-2.41,3.36-1.52-1.19,2.41-3.26-3.95-1.28.63-1.81Z"/><path class="cls-15" d="M80.67,85.8l3.85,1.35v-4.18h1.91v4.15l3.92-1.35.59,1.81-3.95,1.25,2.47,3.33-1.55,1.12-2.41-3.3-2.41,3.36-1.52-1.19,2.41-3.26-3.95-1.28.63-1.81Z"/><path class="cls-15" d="M141.54,73.76l3.85,1.35v-4.18h1.91v4.15l3.92-1.35.59,1.81-3.95,1.25,2.47,3.33-1.55,1.12-2.41-3.3-2.41,3.36-1.52-1.19,2.41-3.26-3.95-1.28.63-1.81Z"/><path class="cls-15" d="M164.79,58.18l3.85,1.35v-4.18h1.91v4.15l3.92-1.35.59,1.81-3.95,1.25,2.47,3.33-1.55,1.12-2.41-3.3-2.41,3.36-1.52-1.19,2.41-3.26-3.95-1.28.63-1.81Z"/><path class="cls-15" d="M170.24,90.99l3.85,1.35v-4.18h1.91v4.15l3.92-1.35.59,1.81-3.95,1.25,2.47,3.33-1.55,1.12-2.41-3.3-2.41,3.36-1.52-1.19,2.41-3.26-3.95-1.28.63-1.81Z"/><path class="cls-15" d="M199.13,105.99l3.85,1.35v-4.18h1.91v4.15l3.92-1.35.59,1.81-3.95,1.25,2.47,3.33-1.55,1.12-2.41-3.3-2.41,3.36-1.52-1.19,2.41-3.26-3.95-1.28.63-1.81Z"/><path class="cls-15" d="M210.03,84.14l3.85,1.35v-4.18h1.91v4.15l3.92-1.35.59,1.81-3.95,1.25,2.47,3.33-1.55,1.12-2.41-3.3-2.41,3.36-1.52-1.19,2.41-3.26-3.95-1.28.63-1.81Z"/><path class="cls-15" d="M190.45,73.76l3.85,1.35v-4.18h1.91v4.15l3.92-1.35.59,1.81-3.95,1.25,2.47,3.33-1.55,1.12-2.41-3.3-2.41,3.36-1.52-1.19,2.41-3.26-3.95-1.28.63-1.81Z"/><path class="cls-15" d="M223.6,48.97l3.85,1.35v-4.18h1.91v4.15l3.92-1.35.59,1.81-3.95,1.25,2.47,3.33-1.55,1.12-2.41-3.3-2.41,3.36-1.52-1.19,2.41-3.26-3.95-1.28.63-1.81Z"/><path class="cls-15" d="M57.97,81.08l3.85,1.35v-4.18h1.91v4.15l3.92-1.35.59,1.81-3.95,1.25,2.47,3.33-1.55,1.12-2.41-3.3-2.41,3.36-1.52-1.19,2.41-3.26-3.95-1.28.63-1.81Z"/><path class="cls-15" d="M74.44,52.99l3.85,1.35v-4.18h1.91v4.15l3.92-1.35.59,1.81-3.95,1.25,2.47,3.33-1.55,1.12-2.41-3.3-2.41,3.36-1.52-1.19,2.41-3.26-3.95-1.28.63-1.81Z"/><path class="cls-15" d="M104.76,71.23l3.85,1.35v-4.18h1.91v4.15l3.92-1.35.59,1.81-3.95,1.25,2.47,3.33-1.55,1.12-2.41-3.3-2.41,3.36-1.52-1.19,2.41-3.26-3.95-1.28.63-1.81Z"/><path class="cls-15" d="M120.83,47.8l3.85,1.35v-4.18h1.91v4.15l3.92-1.35.59,1.81-3.95,1.25,2.47,3.33-1.55,1.12-2.41-3.3-2.41,3.36-1.52-1.19,2.41-3.26-3.95-1.28.63-1.81Z"/><path class="cls-15" d="M121.6,100.43l3.85,1.35v-4.18h1.91v4.15l3.92-1.35.59,1.81-3.95,1.25,2.47,3.33-1.55,1.12-2.41-3.3-2.41,3.36-1.52-1.19,2.41-3.26-3.95-1.28.63-1.81Z"/><path class="cls-15" d="M140.47,125.6l3.85,1.35v-4.18h1.91v4.15l3.92-1.35.59,1.81-3.95,1.25,2.47,3.33-1.55,1.12-2.41-3.3-2.41,3.36-1.52-1.19,2.41-3.26-3.95-1.28.63-1.81Z"/><circle class="cls-16" cx="182.32" cy="175.4" r="29.82"/><text class="cls-18" transform="translate(159.74 181.84)"><tspan x="0" y="0">CMC</tspan></text><line class="cls-13" x1="120.97" y1="178.65" x2="139.28" y2="178.65"/><polygon class="cls-15" points="138.62 180.94 142.57 178.65 138.62 176.37 138.62 180.94"/><path class="cls-10" d="M148.28,158.32s-1.31,0-3.57-.19"/><path class="cls-1" d="M136.4,156.97c-7.42-1.42-17.42-4.34-27.33-10.35"/><path class="cls-3" d="M105.54,144.35c-10.81-7.42-21.15-18.77-27.47-36.15"/><path class="cls-10" d="M76.73,104.22c-.35-1.12-.69-2.27-1-3.44"/><polygon class="cls-14" points="78.14 100.83 74.91 97.6 73.73 102.01 78.14 100.83"/><path class="cls-4" d="M204.61,145.26s1.07-.77,2.78-2.26"/><path class="cls-9" d="M212.53,138.01c3.75-4.01,8.18-9.63,11.78-16.73.67-1.33,1.32-2.71,1.92-4.14"/><path class="cls-6" d="M227.53,113.8c3.79-10.57,5.29-23.6,1.08-38.79"/><path class="cls-4" d="M227.58,71.57c-.36-1.12-.76-2.24-1.19-3.38"/><polygon class="cls-14" points="228.41 68.04 225.34 65.55 224.72 69.45 228.41 68.04"/><line class="cls-10" x1="127.86" y1="68.68" x2="129.43" y2="71.9"/><line class="cls-12" x1="132.44" y1="78.11" x2="143" y2="99.83"/><polyline class="cls-7" points="144.5 102.93 146.36 106.76 161.09 137.06"/><line class="cls-10" x1="162.59" y1="140.16" x2="164.16" y2="143.38"/><polygon class="cls-14" points="126.1 70.28 126.43 65.73 130.21 68.28 126.1 70.28"/><path class="cls-10" d="M151.58,150.48c-.4-.02-1.68-.11-3.56-.42"/><path class="cls-5" d="M142.16,148.71c-5.39-1.6-12.21-4.64-18.11-10.39"/><path class="cls-8" d="M121.98,136.14c-1.43-1.63-2.79-3.44-4.03-5.46-5.63-9.16-6.4-18.47-5.88-25.22"/><path class="cls-10" d="M112.4,102.46c.19-1.34.42-2.53.65-3.52"/><polygon class="cls-14" points="115.12 100.17 113.9 95.77 110.7 99.02 115.12 100.17"/><path class="cls-10" d="M182.24,138.98c-.48-.91-1-2.01-1.46-3.27"/><path class="cls-2" d="M179.77,131.86c-.25-1.56-.32-3.24-.09-5.01.44-3.39,1.82-5.86,3.47-8.14"/><path class="cls-11" d="M184.35,117.12c2.16-2.77,4.5-5.52,5.76-9.64.76-2.5,1.27-5.95.41-10.53"/><path class="cls-10" d="M190.09,95c-.28-1.08-.63-2.23-1.07-3.43"/><polygon class="cls-14" points="191.36 91.35 187.77 88.53 187.12 93.05 191.36 91.35"/></svg>