<?xml version="1.0" encoding="utf-8"?>
<!-- Generator: Adobe Illustrator 27.8.1, SVG Export Plug-In . SVG Version: 6.00 Build 0)  -->
<svg version="1.1" id="Layer_1" xmlns="http://www.w3.org/2000/svg" xmlns:xlink="http://www.w3.org/1999/xlink" x="0px" y="0px"
	 viewBox="0 0 223.8 200.3" style="enable-background:new 0 0 223.8 200.3;" xml:space="preserve">
<style type="text/css">
	.st0{fill:#46576E;}
</style>
<path class="st0" d="M153.7,96.7c-1,4.4-3.8,5.4-6.2,5.6c-2.3,0.2-4.9-1-6.1-1.4c-1.2-0.4-2.9-0.6-3.5,1.4c-0.6,2,1.2,8,1.9,10.5
	c0.4,1.5,0.9,3.9,1.4,6.1c-4.3,1.1-9.2,2.3-10.6,2.6c-2.3,0.6-4.5,1.5-6.4,0.2c-1.8-1.3-1.1-3.5-0.7-4.9c0.4-1.4,2.4-3.2,2.1-7
	c-0.3-3.8-6.1-5.2-9.9-4.5c-3.9,0.7-6.4,3.7-6.4,6.7c-0.1,3,1.6,4,1.9,6.4c0.4,2.4-0.8,3.3-2.9,3.7c-2.1,0.4-6.3-0.6-8.3-1.4
	c-1-0.4-2.7-1.1-4.2-1.8c1.4-3.5,2.5-6.8,3-8.6c0.6-2.1,1.1-3.9,0.4-5.8c-0.6-1.6-2.5-2.1-4.6-1.3c-2,0.7-4,2.5-7.8,1.4
	c-3.5-1-4.4-6-3.8-10.3c0.6-4.3,3-6.1,6.5-5.7c1.9,0.2,3.6,2.1,6.3,1.2c2.7-0.9,2.3-5.5,1.8-8c-0.6-3.3-1.3-5.8-1.8-8.3
	c3.1-0.9,6.4-1.7,8.9-2.4c6.1-1.5,8.2-0.7,8.7,0.6c0.5,1.2-0.2,2.7-1,4.3c-0.8,1.6-2.1,2.8-1.1,6.7s6.9,5.4,11.3,3.4
	c4.4-2,4.4-6.2,3.7-8c-0.7-1.9-2-4.9-1.1-6.6c0.9-1.8,7.3-0.8,10.8,0.2c0.9,0.3,2.9,1,5.2,1.8c-1.1,3.1-2.9,8.1-3.4,11.3
	c-0.6,4.2,0.6,4.9,3,4.5c2.6-0.4,2.8-3,7.1-2.8C152.9,86.7,154.7,91.7,153.7,96.7L153.7,96.7z"/>
<path class="st0" d="M79.1,144.8c-2.9,3.5-5.9,3-8.1,2c-2.2-0.9-3.8-3.2-4.7-4.1c-0.9-0.9-2.3-1.9-3.8-0.4
	c-1.5,1.5-2.6,7.6-3.2,10.1c-0.4,1.5-1,3.9-1.6,6.1c-7.9-4.2-40.2-21.2-40.2-21.2s18.1-34.5,21.2-40.2c3.1,0.6,6.4,1.4,9,2.1
	c6.1,1.5,7.5,3.2,7.4,4.6c-0.1,1.3-1.4,2.3-2.9,3.4s-3.2,1.5-4.1,5.4c-0.9,3.9,3.6,8,8.5,8.3c4.8,0.3,6.8-3.4,7-5.4
	c0.2-2,0.5-5.2,2.1-6.4c1.6-1.1,6.9,2.7,9.4,5.2c0.7,0.6,2.1,2.2,3.7,4.1c-2.4,2.2-6.3,5.8-8.2,8.4c-2.6,3.4-1.7,4.6,0.5,5.4
	c2.5,0.9,3.8-1.4,7.6,0.8C83,135.5,82.4,140.8,79.1,144.8L79.1,144.8z"/>
<path class="st0" d="M161.4,170.6c0,0-33.1,11.9-42.8,15.3c0.1-3.8,0.1-7.2-0.1-9.1c-0.2-2.1-0.3-4.1-1.6-5.6
	c-1.1-1.3-3-1.1-4.8,0.3c-1.7,1.4-2.9,3.7-6.8,3.9c-3.6,0.3-6.2-4.2-7-8.4c-0.9-4.2,0.8-6.7,4.2-7.5c1.9-0.4,4.1,0.7,6.3-1
	c2.2-1.7,0.3-5.9-1.1-8.2c-1.7-2.9-3.2-5-4.5-7.2c2.6-1.9,5.4-3.8,7.6-5.2c5.2-3.5,7.5-3.4,8.4-2.4c0.9,1,0.8,2.6,0.5,4.4
	c-0.2,1.8-1,3.4,1.2,6.7c2.2,3.3,8.4,2.8,11.8-0.6c3.5-3.4,2-7.3,0.7-8.8c-1.3-1.5-3.5-3.9-3.3-5.9c0.2-2,6.6-3.2,10.2-3.5
	c0.9-0.1,3.1-0.1,5.5,0C148.1,133.6,161.4,170.6,161.4,170.6L161.4,170.6z"/>
<path class="st0" d="M186.5,73.3c-4.3,1.1-9.2,2.3-10.6,2.7c-2.3,0.6-4.6,1.5-6.4,0.2s-1.1-3.5-0.7-4.9c0.4-1.4,2.4-3.2,2.1-7
	s-6.1-5.2-9.9-4.5c-3.9,0.7-6.4,3.7-6.4,6.7c-0.1,3,1.6,4,1.9,6.4c0.4,2.4-0.8,3.3-2.9,3.7c-2.1,0.4-6.3-0.7-8.3-1.4
	c-1-0.4-2.7-1.1-4.2-1.8c1.4-3.5,2.5-6.8,3-8.6c0.6-2.1,1.1-3.9,0.4-5.8c-0.6-1.6-2.5-2.1-4.6-1.3c-2,0.7-4,2.5-7.8,1.4
	c-3.5-1-4.4-6-3.8-10.3c0.6-4.3,3-6.1,6.5-5.7c1.9,0.2,3.6,2.1,6.3,1.2c2.7-0.9,2.3-5.5,1.8-8c-0.6-3.3-1.3-5.8-1.8-8.3
	c10.4,0,45.4,0,45.4,0S186.5,64.1,186.5,73.3L186.5,73.3z"/>
<path class="st0" d="M206.3,145.1c-2.3-0.9-4.3-1.6-5.2-1.9c-3.4-1-9.9-1.9-10.8-0.2c-0.9,1.8,0.4,4.8,1.1,6.6c0.7,1.9,0.8,6-3.7,8
	c-4.4,2-10.4,0.5-11.4-3.4c-1-3.9,0.3-5.1,1.1-6.7c0.8-1.6,1.5-3.1,1-4.3c-0.5-1.2-2.6-2.1-8.7-0.6c-2.6,0.6-5.9,1.5-8.9,2.4
	c-0.5-2.2-1.1-4.6-1.4-6.1c-0.6-2.5-2.5-8.5-1.9-10.5c0.6-2,2.3-1.8,3.5-1.4c1.2,0.4,3.8,1.6,6.1,1.4c2.4-0.2,5.2-1.1,6.2-5.6
	c1.1-5-0.8-10-5.8-10.3c-4.3-0.2-4.5,2.4-7.1,2.8c-2.4,0.4-3.6-0.3-3-4.5c0.5-3.2,2.3-8.2,3.4-11.3c1.6,0.7,3.2,1.4,4.2,1.8
	c2.1,0.8,6.3,1.8,8.3,1.4s3.3-1.2,2.9-3.7c-0.4-2.4-2-3.4-1.9-6.4c0-3,2.5-6,6.4-6.7c3.9-0.7,9.6,0.6,9.9,4.5c0.3,3.8-1.7,5.6-2.1,7
	c-0.4,1.4-1.1,3.6,0.7,4.9s4,0.4,6.4-0.2c1.4-0.4,6.4-1.6,10.6-2.7C206.3,113.9,206.3,128.4,206.3,145.1L206.3,145.1z"/>
<path class="st0" d="M99.2,38.6c0.9,4.5-1.3,6.5-3.4,7.6c-2.1,1.1-4.8,1-6.1,1.2c-1.3,0.2-2.9,0.6-2.7,2.7c0.2,2.1,4.3,6.8,5.9,8.8
	c0.9,1.2,2.4,3.2,3.8,5c-3.5,2.7-7.5,5.8-8.6,6.7c-1.9,1.5-3.6,3.2-5.7,2.8c-2.2-0.4-2.4-2.7-2.6-4.2c-0.2-1.5,0.9-3.9-0.9-7.3
	c-1.8-3.4-7.6-2.3-10.9-0.1c-3.3,2.2-4.3,6-3.2,8.7c1.2,2.7,3.1,3,4.4,5.1c1.3,2.1,0.6,3.3-1.2,4.5s-6,2-8.2,2.1
	c-1.1,0.1-2.9,0.1-4.6,0.1c-7-15.7-18.4-41.5-18.4-41.5s31-13.8,41.5-18.4c0.2,3.3,0.7,8.6,1.5,11.7c1.1,4.2,2.6,4.2,4.6,2.9
	c2.2-1.4,1.3-3.9,5.3-5.4C94.4,29.8,98.1,33.6,99.2,38.6L99.2,38.6z"/>
</svg>
