<?xml version="1.0" encoding="UTF-8"?><svg id="Layer_1" xmlns="http://www.w3.org/2000/svg" xmlns:xlink="http://www.w3.org/1999/xlink" viewBox="0 0 792 973.14"><defs><style>.cls-1{fill:#eff0f0;}.cls-1,.cls-2,.cls-3,.cls-4,.cls-5,.cls-6,.cls-7,.cls-8,.cls-9,.cls-10,.cls-11,.cls-12,.cls-13,.cls-14{stroke-width:0px;}.cls-2{fill:#000;}.cls-15,.cls-4,.cls-16{fill:#ff704f;}.cls-17{clip-path:url(#clippath-2);}.cls-18,.cls-19,.cls-20,.cls-21,.cls-22,.cls-23,.cls-24,.cls-25,.cls-26,.cls-27,.cls-16{stroke-miterlimit:10;}.cls-18,.cls-19,.cls-22,.cls-23,.cls-24,.cls-25,.cls-26{fill:none;}.cls-18,.cls-20,.cls-21,.cls-22,.cls-25,.cls-27,.cls-16{stroke:#ff704f;}.cls-18,.cls-27{stroke-width:5.15px;}.cls-3{fill:#ff8d72;}.cls-28{clip-path:url(#clippath-1);}.cls-19{stroke-dasharray:0 0 5.93 5.93;}.cls-19,.cls-24,.cls-26{stroke:#748192;stroke-width:3.56px;}.cls-5{fill:#d7f0f4;}.cls-20,.cls-21,.cls-29,.cls-12{fill:#231f20;}.cls-20,.cls-25{stroke-width:4.94px;}.cls-6{fill:#748192;}.cls-30{clip-path:url(#clippath);}.cls-7{fill:#7d7f81;}.cls-8{fill:#aeb3b3;}.cls-21,.cls-23{stroke-width:2.54px;}.cls-31{clip-path:url(#clippath-3);}.cls-9{fill:#808285;}.cls-10{fill:#e8eeee;}.cls-11{fill:#6ea6ef;}.cls-22,.cls-16{stroke-width:4.42px;}.cls-23{stroke:#abbbd0;}.cls-13{fill:#fff;}.cls-32,.cls-27{fill:#bce6ed;}.cls-14{fill:#292627;}.cls-26{stroke-dasharray:0 0 5.96 5.96;}</style><clipPath id="clippath"><path class="cls-12" d="M240.6,660.81c39.36-.28,55.5-9.06,61.21-13.56,1.71-1.35,2.6-3.48,2.35-5.64l-1.16-10.12c0-6.87-8.92-11.14-14.22-13.07-2.34-.85-3.93-3.02-4.08-5.5h0c-.08-1.36.28-2.71,1.04-3.84,4.29-6.43,19.67-29.64,33.42-52.02,16.17-26.32,26.32-65.79,28.95-109.02,2.63-43.24-6.4-56.82-7.52-61.28-1.02-4.08-7.51-15.41-7.51-15.41-7.11-26.28,10.29-78.41,12.23-84.09.12-.36.21-.72.27-1.09.67-4.42,4.36-32.88-9.49-46.03-15.04-14.29-38.72-10.52-46.61-7.14-6.3,2.7-41.97,2.29-56.19,2.02-1.11-.02-2.08-.05-2.9-.06h-.06c-.81.02-1.79.04-2.9.06-14.21.28-49.89.68-56.19-2.02-7.89-3.38-31.58-7.14-46.61,7.14-13.85,13.15-10.16,41.61-9.49,46.03.06.37.15.73.27,1.09,1.94,5.68,19.34,57.8,12.23,84.09,0,0-6.15,11.44-7.51,15.41-1.78,5.17-10.15,18.04-7.52,61.28,2.63,43.23,12.78,82.7,28.95,109.02,13.75,22.39,29.14,45.6,33.42,52.02.75,1.13,1.12,2.47,1.04,3.83h0c-.14,2.49-1.74,4.66-4.08,5.51-5.3,1.93-14.22,6.2-14.22,13.07l-1.16,10.12c-.25,2.16.65,4.29,2.35,5.64,5.71,4.5,21.85,13.28,61.21,13.56h20.47ZM170.5,333c-7.43,6.04-12.75,10.02-16.54,12.64-3.94,2.72-9.35.18-9.78-4.6-.96-10.76-2.78-27.27-5.26-31.72-3.76-6.76-9.38-22.88-9.4-29.32,0,0-3.37-36.35,26.92-35.72.09,0,.19,0,.29,0,2.07-.08,26.99-.7,28.43,17.86,1.5,19.36,7.51,52.82-14.67,70.87ZM331.19,279.99c0,6.44-5.64,22.56-9.4,29.32-2.47,4.45-4.3,20.96-5.25,31.72-.42,4.78-5.83,7.32-9.78,4.6-3.79-2.62-9.11-6.6-16.55-12.64-22.18-18.04-16.17-51.5-14.66-70.87,1.44-18.56,26.35-17.94,28.43-17.86.09,0,.19,0,.29,0,30.29-.63,26.92,35.72,26.92,35.72Z"/></clipPath><clipPath id="clippath-1"><circle class="cls-16" cx="599.79" cy="686.38" r="82.77"/></clipPath><clipPath id="clippath-2"><circle class="cls-27" cx="599.79" cy="425.12" r="82.77"/></clipPath><clipPath id="clippath-3"><circle class="cls-20" cx="599.79" cy="131.45" r="82.77"/></clipPath></defs><path class="cls-11" d="M111.55,706.54c93.19,26.63,178.2,28.14,219.74,6.68,28.86-14.91,38.18-31.64,38.18-31.64,9.73-17.46.33-25.92,7.24-45.18,10.6-29.52,44.75-8.75,42.41-21.58-5.64-30.95-194.85-73.18-225.86-34.08-6.16,7.77-9.39,21.77-26.88,28.48-11.92,4.57-19.7.89-34.18,2.16-25.31,2.22-58.49,17.75-64.49,40.84-5.39,20.73,12.15,43.57,43.84,54.32Z"/><path class="cls-2" d="M223.57,300.48c.67.01,1.46.03,2.37.05v-.11s-.86.03-2.37.06Z"/><path class="cls-12" d="M227.44,234.88v.13c1.11-.02,2.08-.05,2.9-.06-1.84-.04-2.9-.07-2.9-.07Z"/><path class="cls-29" d="M240.6,660.81c39.36-.28,55.5-9.06,61.21-13.56,1.71-1.35,2.6-3.48,2.35-5.64l-1.16-10.12c0-6.87-8.92-11.14-14.22-13.07-2.34-.85-3.93-3.02-4.08-5.5h0c-.08-1.36.28-2.71,1.04-3.84,4.29-6.43,19.67-29.64,33.42-52.02,16.17-26.32,26.32-65.79,28.95-109.02,2.63-43.24-6.4-56.82-7.52-61.28-1.02-4.08-7.51-15.41-7.51-15.41-7.11-26.28,10.29-78.41,12.23-84.09.12-.36.21-.72.27-1.09.67-4.42,4.36-32.88-9.49-46.03-15.04-14.29-38.72-10.52-46.61-7.14-6.3,2.7-41.97,2.29-56.19,2.02-1.11-.02-2.08-.05-2.9-.06h-.06c-.81.02-1.79.04-2.9.06-14.21.28-49.89.68-56.19-2.02-7.89-3.38-31.58-7.14-46.61,7.14-13.85,13.15-10.16,41.61-9.49,46.03.06.37.15.73.27,1.09,1.94,5.68,19.34,57.8,12.23,84.09,0,0-6.15,11.44-7.51,15.41-1.78,5.17-10.15,18.04-7.52,61.28,2.63,43.23,12.78,82.7,28.95,109.02,13.75,22.39,29.14,45.6,33.42,52.02.75,1.13,1.12,2.47,1.04,3.83h0c-.14,2.49-1.74,4.66-4.08,5.51-5.3,1.93-14.22,6.2-14.22,13.07l-1.16,10.12c-.25,2.16.65,4.29,2.35,5.64,5.71,4.5,21.85,13.28,61.21,13.56h20.47ZM170.5,333c-7.43,6.04-12.75,10.02-16.54,12.64-3.94,2.72-9.35.18-9.78-4.6-.96-10.76-2.78-27.27-5.26-31.72-3.76-6.76-9.38-22.88-9.4-29.32,0,0-3.37-36.35,26.92-35.72.09,0,.19,0,.29,0,2.07-.08,26.99-.7,28.43,17.86,1.5,19.36,7.51,52.82-14.67,70.87ZM331.19,279.99c0,6.44-5.64,22.56-9.4,29.32-2.47,4.45-4.3,20.96-5.25,31.72-.42,4.78-5.83,7.32-9.78,4.6-3.79-2.62-9.11-6.6-16.55-12.64-22.18-18.04-16.17-51.5-14.66-70.87,1.44-18.56,26.35-17.94,28.43-17.86.09,0,.19,0,.29,0,30.29-.63,26.92,35.72,26.92,35.72Z"/><g class="cls-30"><path class="cls-9" d="M244.76,527.4c-5.7,8.82-11.8,17.98-17.67,26.67,0,0-.42.63-.42.63l-.74-.3c-13.8-5.55-32.57-13.32-46.26-19.13,0,0-15.34-6.56-15.34-6.56l1.24-.07c-3.91,2.17-7.85,4.3-11.77,6.44-4.19,2.28-8.39,4.57-12.61,6.81,0,0-.59-.64-.59-.64-9.51-10.23-19.37-21.06-28.61-31.55,10.09,9.68,20.46,20.02,30.27,29.96,0,0-1.39-.21-1.39-.21,3.87-2.25,7.76-4.46,11.65-6.67,4.09-2.33,8.17-4.67,12.28-6.95l.64.27c19.29,8.08,42.17,17.96,61.25,26.53,0,0-1.16.33-1.16.33,6.24-8.43,12.83-17.25,19.25-25.55h0Z"/><path class="cls-9" d="M250.47,482.23c12.8-7.62,25.87-14.73,39.02-21.71,7.91,3.36,15.79,6.8,23.64,10.3,0,0-1.11-.02-1.11-.02,3.93-1.55,7.89-3.04,11.84-4.53,11.87-4.48,23.79-8.82,35.85-12.76-15.51,7.23-31.31,13.82-47.18,20.2-7.87-3.4-15.71-6.85-23.52-10.38l1.2-.04c-13.12,6.56-26.3,13-39.73,18.93h0Z"/><path class="cls-9" d="M78.5,410.24c29.01-.91,59.35-1.32,88.46-1.57,0,0,1.33-.01,1.33-.01,1.52,9.2,3.1,18.39,4.57,27.6l-2.39-1.3,20.99-9.29.67-.3.68.26c12.37,4.79,29.81,11.52,41.97,16.32,0,0-1.7.35-1.7.35,11.54-11,23.11-21.95,34.76-32.83,0,0,.79-.74.79-.74l.72.76c10.14,10.76,21.74,23.09,31.71,33.97-7.7-7.41-17.3-16.78-24.98-24.3,0,0-8.26-8.17-8.26-8.17l1.51.02c-11.51,11.51-23.11,22.93-34.74,34.32-12.61-4.69-30.31-11.53-43.06-16.39,0,0,1.35-.03,1.35-.03l-21.04,9.19-2.04.89c-1.53-9.49-2.94-19.01-4.39-28.51l1.55,1.32c-29.12-.24-59.43-.67-88.46-1.57h0Z"/></g><circle class="cls-15" cx="599.79" cy="686.38" r="82.77"/><g class="cls-28"><polygon class="cls-3" points="518.57 660.58 530.98 612.41 541.97 680.28 576.27 625.64 601.8 637.45 625.22 603.37 628.43 693 643.79 637.88 666.04 683.62 682.07 588.41 680.5 741.06 652.37 736.82 641.48 755.76 641.38 715.69 607.88 763 604.85 703.45 593.18 747.88 586.49 692.57 574.04 734.87 565.78 667.54 549.46 727.31 531.08 703.72 518.01 715.14 518.57 660.58"/><path class="cls-12" d="M633.27,679.38c.08-.43.16-.89.3-1.3.15-.46.33-.88.42-1.36.03-.19.06-.39.15-.56.11-.21.31-.36.51-.5.34-.25.56-.56.86-.87.36-.39.73-.78.95-1.26.2-.42.29-.93.66-1.22.41-.33.46-.89.57-1.37.06-.24.12-.51.26-.72.22-.3.8-.63,1.16-.67.53-.07,1.1.1,1.49.48.1.1.11.05.23.13.18-.08.38-.12.57-.1.06,0,.12.01.16-.03.02-.03.02-.07.05-.1.04-.04.12-.01.17.02.09.06.18.11.26.17,0-.11.15-.17.24-.12-.04-.11-.07-.22-.11-.33.3-.01.61,0,.9.07.01-.51.08-.98.25-1.47.14-.43.29-.85.43-1.28.16-.47.32-.95.57-1.39.61-1.06,1.59-1.59,2.63-2.13-.08-.55-.7-.68-1.1-.95-.63-.42-1.2-.96-1.49-1.67-.04-.11-.08-.22-.11-.33-.37-.07-.7-.31-.92-.62-.24-.33-.36-.73-.43-1.13-.22-1.28.43-4.58,2.44-3.64.3.14.51.37.67.65.08-.03.16-.07.24-.12l.02.24c.27-.37.6-.69.99-.92.84-.51,1.77-.94,2.75-.92.98.02,1.77.42,2.67.82.79.35,1.49.88,2.04,1.54.26.31.49.66.6,1.05.1.39.07.84-.17,1.17-.18.25-.52.42-.8.28-.1.25-.24.49-.33.75.13.28.29.41.48.65.19.24.36.53.33.84-.02.17-.14.36-.31.35,0,.17-.1.31-.06.48.02.08.04.15.04.23,0,.08-.03.16-.1.21.05.16.02.33-.02.49-.02.08-.06.15-.08.22-.14.36-.03.77-.16,1.14-.11.31-.4.55-.72.6-.37.06-.66.12-1,.28-.08.04-.16.07-.22.13-.08.07-.13.17-.19.26-.27.45-.68.85-.71,1.37.1,0,.18.1.21.19.03.1.02.2.02.3.01.25.12.48.22.71.15.35.31.7.46,1.06.03-.2.12-.39.25-.55.06-.07.15-.14.24-.14.13,0,.25.11.28.24.04.13.01.26,0,.4.02-.1.17-.12.26-.06s.11.17.14.27c.03.13.07.25.1.38,0-.09.12-.17.22-.14.12.04.18.17.22.3.06.21.1.44.01.64.08-.08.23,0,.26.1.03.11,0,.22-.06.32-.12.24-.27.47-.46.66.17.52.12,1.11-.14,1.59.21.98-.05,1.96.01,2.95.07,1.05.44,2.06.49,3.12.02.45-.02.91-.06,1.36-.16,1.87-.32,3.74-.74,5.57-.31,1.35.12,2.77-.2,4.12.34.43.61.87.95,1.29.09.11.18.23.23.36.04.11.05.23.05.34.02.41,0,.83-.05,1.24,1.42,1.23,2.57,2.77,4.3,3.51,1.07-.28,1.93-1.14,3.04-1.21.05-.15.03-.31-.05-.45.67-.2,1.36-.37,2.05-.49.54.98,1.05,1.98,1.52,2.99.46.97.89,1.98.91,3.05,0,.06,0,.13-.03.19-.04.08-.11.13-.19.17-.25.15-.52.29-.78.42.31,1.12.69,2.11,1.17,3.17.13.29.26.58.32.88.05.31,0,.65-.19.9-.16.2-.4.31-.65.39-.42.13-.86.16-1.29.26-.43.1-.86.3-1.11.66-.03.04-.06.09-.1.11-.04.03-.09.03-.14.04-.56.08-1.09.4-1.42.86-.03-.09-.06-.18-.09-.27-.68.04-1.12.84-1.79.91-.8.09-1.44.91-2.19,1.2-.99.37-2.1.41-3.02.93-.39.22-.75.51-1.18.61-.14.03-.29.04-.44.03.1.58.31,1.13.68,1.58.36.44.85.76,1.22,1.19.37.44.6,1.07.33,1.57-.93-.46-1.86-.92-2.79-1.38.08.97.14,1.94.18,2.9.05,1.22.07,2.49.61,3.59.54,1.11,1.55,1.91,2.61,2.53,1.11.64,2.17,1.17,3.36,1.66.38.16.78.31,1.19.28.24-.02.54-.06.65.15.04.08.04.17.02.26-.05.25-.23.48-.47.58.2.05.34.3.28.49-.06.19-.31.31-.5.23.09.11-.07.25-.18.33-.11.09-.27.09-.4.05-.13-.04-.25-.12-.37-.2.09.05.08.16.03.26-.05.09-.15.15-.26.16-.1.01-.21-.02-.31-.06-.12-.05-.23-.11-.34-.18.06.1.08.19-.01.25-.03.02-.06.02-.09.03-.32.04-.64,0-.94-.11-.34-.13-.72-.03-1.08-.06-.19-.02-.38-.08-.57-.13-.7-.22-1.4-.44-2.1-.66-.98-.31-2.01-.45-2.98-.76-.21-.07-.43-.15-.59-.31-.18-.17-.28-.4-.33-.64-.12-.56.02-1.14.19-1.69.21-.69.13-1.38.13-2.1,0-.64-.16-1.27-.35-1.88-.21-.65-.39-1.23-.48-1.91-.16-1.11-.38-2.21-.66-3.3-.1.07-.21.13-.33.17-.93.26-1.62-1.12-2.59-1.1-.48,0-.87.36-1.24.66-.55.45-1.17.84-1.84,1.05-.15.71-.21,1.44-.28,2.16-.07.79-.13,1.63.07,2.37.14.02.28.05.4.1.25.1.4.26.26.4-.03.04-.08.07-.14.09.17.11.25.25.14.37-.03.03-.06.05-.1.08.49.47,1.37.52,2.06.58.39.03.83.04,1.1.31.01-.07.12-.07.19-.06.07.02.14.03.21.05.27.06.57.14.71.38.17-.24.61-.16.74.11.13.27,0,.61-.24.79-.24.18-.56.21-.86.19-.36-.03-.72-.06-1.01.14-.53.36-1.1.24-1.71.25-.55,0-1.1.02-1.63.17-.25.07-.49.17-.71.31-.2.13-.32.28-.55.39-.29.13-.58.26-.88.33-.33.08-.88.18-1.2.04-.11-.05-.21-.13-.3-.21-.7-.68-.62-1.44-.25-2.27.22-.48.37-.97.5-1.46-.24-.1-.32-.24-.1-.45.03-.03.06-.05.1-.07-.16-.09-.19-.21,0-.36.06-.05.15-.1.26-.14.22-.9.34-1.82.36-2.75.01-.75.07-1.49.13-2.22-.08-.07-.16-.14-.23-.22-.35-.38-.56-.87-.68-1.37-.43-1.73.06-3.53.29-5.29.31-2.32.16-4.68.3-7.02.06-.99.18-1.99.41-2.95-.62-1.57-.86-3.29-.61-4.95.12-.8.35-1.58.68-2.33-.06.02-.12.05-.18.07-.13.05-.25.09-.39.1-.12,0-.23,0-.34-.03-.72-.12-1.45-.23-2.17-.35.05.93.21,1.74.51,2.62.22.64.5,1.27.5,1.95,0,.09-.03.2-.12.2-.07,0-.11-.07-.13-.14-.18-.45-.35-.91-.53-1.36-.13-.34-.27-.69-.36-1.04-.18-.7-.2-1.43-.06-2.14-.17-.15-.47-.33-.67-.43-.09-.05-.19-.09-.27-.15-.18-.14-.27-.37-.32-.6-.05-.25-.06-.5-.07-.76-.01-.37-.03-.74-.04-1.1-.03-.86-.34-1.85-.68-2.63-.14-.31-.3-.62-.33-.95-.03-.31.04-.62-.05-.92-.3-.93-.65-1.96-.89-2.91-.06-.23-.11-.46-.12-.7,0-.25.03-.49.08-.73ZM655.59,698.47s-1.26-1.96-1.38-2.13c-.13-.2-.26-.41-.39-.61.15,1.01.09,2.03-.25,2.99-.13.37-.3.73-.44,1.1.87-.35,1.7-.8,2.47-1.34Z"/><path class="cls-12" d="M539.33,687.34c-1.46.86-2.04,2.94-1.25,4.44.19.36.45.69.71,1.01.28.36.61.74,1.06.81-.25.25-.44.56-.55.9-.08-.13-.29-.06-.36.07s-.09.29-.17.41c-.08.12-.21.2-.34.28-1.16.71-1.82,1.99-2.44,3.2-.4.78-.79,1.56-1.19,2.34-.32.63-.64,1.26-.87,1.93-.58,1.72-.51,3.58-.65,5.4-.06.78-.16,1.56-.18,2.34-.01.67-.01,1.56.31,2.17.02.04.05.09.1.09.24.01.35-.69.32-.84.02.12.05.23.11.34,0,.01.01.02.02.03.03.01.06,0,.08-.04.13-.19.03-.45.02-.66-.01-.27-.05-.53-.05-.79,0-.58.08-1.16.26-1.71-.03.09.5.56.56.67.06.12.2.42.34.25.16-.2-.03-.83-.08-1.06-.48-2.53.09-5.24,1.54-7.36.27.98.6,1.94,1,2.88-.32.29-.23.63-.14.98.09.34-.09.8-.24,1.11-.1.2-.17.4-.23.62-.11.43-.14.88-.1,1.33.09.98.48,1.9.86,2.81.2.48.42.94.54,1.46.06.25-.1.51-.17.75-.14.44-.32.86-.21,1.32.04.18.17.25.31.36.1.08,1.28.92,1.31.85-.31.56-.96.83-1.43,1.26-.99.92-1.16,2.6-2.36,3.23-.32.17-.67.24-.98.41s-.58.5-.52.85c.03.16.12.3.21.44.38.6.67,1.25.87,1.93.08.28.15.57.3.82.24.4.67.65.92,1.04.23.35.32.82.67,1.05.08.05.19.09.28.05.15-.07.15-.28.08-.42-.06-.15-.17-.29-.16-.44.1.06.22.09.34.08-.09-.29-.07-.61.05-.89-.25-.93-1.11-1.7-1.03-2.66.05-.55.41-1.02.82-1.38.41-.36.89-.64,1.3-1.01.34-.31.63-.67.96-.99,0-.15.63-.52.75-.6.27-.17.55-.31.82-.48.14-.09.32-.21.41-.04.05.09.05.29.07.4.05.35.04.71.1,1.06.2,1.22.34,2.38.74,3.55.22.64.51,1.25.74,1.88.21.6.37,1.22.38,1.86,0,.62-.05,1.11.15,1.71.11.35.18.71.21,1.07.01.19.02.38.13.53.11.15.38.19.47.03.12-.03.22-.14.3-.24.18.07.37.14.57.12.19-.02.39-.15.42-.34.06.14.25.19.39.12.13-.07.2-.24.19-.39.04.16.29.21.39.08.03-.05.05-.11.08-.16.12-.16.37-.09.54,0,.17.09.41.18.55.04.05-.05.07-.11.08-.18.03-.25-.13-.5-.34-.65-.21-.15-.45-.24-.68-.35-.71-.35-1.25-1.03-1.44-1.8-.32-1.3-.67-2.67-.84-3.99-.17-1.32-.15-2.69.26-3.97.08-.25.17-.5.17-.76,0-.29-.13-.56-.25-.82-.43-.91-.89-1.82-1.38-2.71.17-.92.61-1.95,1.05-2.78.17-.31.38-.68.22-1,.23.07.44-.21.43-.45-.01-.24-.16-.46-.24-.68-.1-.26-.12-.54-.13-.82-.03-.44-.12-.94-.05-1.38.03-.21.17-.32.31-.47.12-.13.21-.33.12-.49-.13-.21-.15-.54-.17-.78-.02-.27-.04-.59,0-.86.02-.15.11-.25.17-.38.08-.18.14-.39.2-.58.12-.41.2-.82.27-1.24.04-.22.07-.44.09-.65.02-.15.11-.43.07-.57.15.49.3.98.58,1.4s.72.77,1.23.81c.36-.31.87-.75,1.05-1.19.11-.28.16-.57.19-.87.12-1.06.08-2.14-.11-3.19-.05-.31-.11-.61-.23-.9-.02-.06-.05-.12-.11-.14-.06-.02-.13,0-.17.06-.04.05-.06.11-.08.17-.02-.16-.07-.32-.15-.47-.02-.04-.05-.08-.09-.06-.03,0-.04.04-.05.07l-.1.34c0-.13,0-.26-.03-.39,0-.06-.02-.12-.07-.16-.07-.05-.16,0-.2.06s-.04.15-.04.23.01.16-.02.24c0-.19-.03-.39-.07-.57-.02-.07-.05-.15-.12-.15-.07,0-.1.08-.12.15-.04.19-.04.39,0,.58,0-.07-.02-.14-.06-.18-.05-.05-.14-.04-.16.02,0,.02,0,.04,0,.06.02.18.04.36.09.53.03.1.08.2.12.3.07.2.14.47.1.69-.03.21-.08.43-.12.64,0,.02-.01.05-.03.05-.01,0-.02,0-.03-.01-.16-.12-.23-.27-.33-.44-.1-.17-.19-.35-.24-.54-.08-.27-.11-.56-.08-.85.06-.57-.35-1.19-.52-1.74-.09-.28-.29-.64-.58-.56.22-.36.45-.71.67-1.07-.19-.07-.35-.2-.46-.38.21-.18.43-.36.64-.54-.07-.15-.15-.3-.22-.46.16-.18.55-.15.56-.39,0-.16-.19-.23-.33-.32-.47-.28-.46-1.01-.37-1.47.06-.29.19-.47.32-.72.14-.28.26-.68.14-.96-.15-.37-.5-.71-.77-1-.39-.42-.89-.71-1.43-.89-.48-.16-1.04-.34-1.54-.4-1.21-.14-2.44.12-3.49.74Z"/><path class="cls-12" d="M595.6,674.4c.1-.12.2-.23.32-.32.13-.1.29-.17.45-.23,1.23-.51,2.46-1.01,3.69-1.52.47-.2.95-.39,1.44-.56.7-.24,1.42-.42,2.14-.59.71-.18,1.43-.35,2.16-.36.27-.14.48-.41.53-.71-.63-.37-1.16-.9-1.54-1.52.68.26,1.28.71,1.73,1.28.49.21,1.02-.23,1.55-.22.72.02,1.13.8,1.39,1.47.08-1.39-1.19-2.71-2.58-2.67-.04-.32.45-.38.76-.3.97.26,2.09.66,2.35,1.63.12.44.02.9.06,1.35.11-.07.22-.15.33-.22l.64-.55c.29-.33.64-.62.6-1.05-.07-.73-.13-1.45-.2-2.18-.04-.49-.09-.98-.06-1.46.07-1.01.48-1.99,1.16-2.75-.36-.14-.72-.24-1.1-.28-.51-.05-1.03.04-1.54.02-1.11-.03-2.15-.49-3.16-.95-.12-.06-.25-.12-.37-.17-.05.03-.11.05-.16.08-.14.07-.28.15-.43.16-.23,0-.42-.14-.6-.27-.49-.36-1.04-.65-1.61-.85-.66-.24-1.41-.42-1.78-1.01-.03-.05-.05-.1-.05-.15,0-.03.02-.05.03-.07-.23-.17-.42-.35-.53-.56-.6-1.12.79-2.28,1.6-2.78.43-.26.9-.47,1.25-.83.46-.47.66-1.14.94-1.74.46-.96,1.17-1.77,1.88-2.57.49-.56,1-1.12,1.65-1.49.75-.42,1.63-.54,2.49-.65,1.28-.17,2.76-.17,3.98-.57-.66-.56-1.82-.85-2.67-1.11-.37-.11-.77-.22-1.15-.11-.2.06-.38.17-.58.22-.43.1-.97-.07-1.25.27.35-.48.96-.69,1.53-.87.28-.09.57-.18.86-.19.48-.02.94.18,1.38.37.13.06.26.11.38.17.89.4,1.77.82,2.74.95-.18-.72.54-1.07,1.12-.76.54.29,1.25,1.38,1.67,1.84-.82-.44-1.48.03-2.19-.17,2.04.5,3.79,1.5,5.85,1.9,1.71.33,3.69.49,4.92,1.88.73.82,1.05,1.95,1.03,3.05-.02,1.1-.34,2.17-.76,3.18-.15.35-.31.7-.57.97-.85.86-2.18.58-3.22,1-.49.19-.73.59-1.12.84.5.13,1,.26,1.48.44,1.15.43,2.35.77,3.51,1.16.37.12.8.32.82.71,0,.15-.05.3-.12.43-.79,1.55-2.37,2.5-3.79,3.5-.45.32-.91.66-1.23,1.11-.32.45-.49,1.05-.31,1.57-1.59.59-3,1.66-4.01,3.02-.25.33-.47.69-.58,1.09-.11.41-.09.84-.07,1.27.14,2.74.28,5.47.42,8.21.06,1.09.11,2.19.33,3.26.33,1.64,1.84,5.36,1.86,7.04.01.79.53,1.51.85,2.23l.12.28c1.43,3.16,2.7,6.39,3.78,9.68-.25-.01-.5-.03-.75-.04.23.51.25,1.29.05,1.81-.2.52-.54.98-.87,1.43-.47.64-.94,1.28-1.4,1.92-.49.67-.99,1.35-1.4,2.08-.53.94-1.16,1.81-1.8,2.66-.64.86-1.2,1.73-1.75,2.65-.23.39-.47.78-.59,1.22-.13.46-.12.94-.1,1.41.01.5-.09,1.19.21,1.61.36.5.99.51,1.54.5.51-.02,1.02-.03,1.53-.05.39-.01.78-.02,1.15.08.03,0,.07.02.08.05.02.04-.01.09-.04.13-.49.56-1.18.83-1.88,1.03-.23.07-1.62.36-1.48.78.02.05.05.08.09.12.48.43,1.09.99,1.71,1.21.58.2,1.13.39,1.69.66.26.13.55.27.66.53.11.26-.08.64-.35.59.02-.02.03-.05,0-.06-.08-.01-.15.09-.23.09-1.29.07-2.6.07-3.84-.29-.84-.24-1.62-.65-2.38-1.08-1.1-.62-2.16-1.31-3.2-2.03-.23-.15-.46-.32-.59-.56-.29-.53.03-1.19.46-1.6.43-.42.98-.71,1.34-1.19.62-.84.48-2,.29-3.03-.46-2.59-1.03-5.21-.8-7.83.15-1.74.63-3.58-.08-5.18-1.33.2-2.65.54-3.91,1,.25-.44.06-.99-.09-1.47-.38-1.18-.55-2.42-.51-3.66.05-1.44.38-2.98-.26-4.27.14-.03.28-.06.42-.1-.61-2.33-.9-4.75-.86-7.16l.08-.51c-.17-1.78.52-1.56.09-3.29-.19-.75-.57-1.61-.28-2.27-.43.67-1.01,1.24-1.69,1.65-.22.13-.45.25-.7.28-.32.04-.63-.07-.95-.09-.68-.04-1.31.33-1.98.49-1.32.33-2.72-.19-3.85-.96-1.12-.77-2.06-1.78-3.12-2.63-.27-.21-.56-.43-.73-.73-.1-.18-.15-.37-.26-.55-.19-.31-.51-.5-.79-.73-.28-.23-.53-.56-.48-.91.02-.14.08-.27.05-.41-.03-.14-.16-.24-.28-.32-.31-.2-.64-.36-.99-.47,1.01-1.68,2.15-3.27,3.41-4.78ZM616.81,714.85c.59-1.4,1.33-2.74,2.2-3.99.26-.37.54-.75.66-1.19.15-.57.01-1.18-.13-1.76-.12.03-.24.06-.36.09.17-.04.11-.88.1-1.01-.05-.36-.19-.71-.41-1-.15-.21-.35-.44-.58-.57-.23-.12-.84-.32-.71.15.12.41.23.82.35,1.24-.14,0-.28-.02-.41-.08.15.54.03,1.12-.16,1.65-.19.53-.44,1.04-.55,1.59-.33,1.6.53,3.32.02,4.88Z"/><path class="cls-12" d="M622.3,729.02s.01,0,.02,0c-.02.02-.04.03-.02,0Z"/><path class="cls-12" d="M547.75,677.89c.19-.39.54-.68.89-.97,0-.96.24-1.95.65-2.89.01-.5.17-.99.47-1.39.13-.17.28-.33.41-.5.04-.34.14-.69.44-.81.03-.01.06-.02.09-.02,0,0,0-.01.01-.02.09-.11.2-.19.32-.27-.08-.11-.11-.26-.06-.38.09-.2.38-.31.38-.53.18-.15.47-.05.66-.18.16-.11.18-.34.29-.5.13-.2.39-.28.63-.29.24,0,.48.04.72.03.2,0,.4-.06.59-.12l-6.36-.33.05-1.04,6.7.34c.19-.14.41-.28.6-.39-.05-.06-.11-.11-.16-.16-.52-.44-.96-.83-1.58-1.1-.12-.05-.62-.19-.62-.19l.06-.36s1.3.39,1.43.44c.47.18.94.4,1.38.65.14.08.35.17.54.29,1.86-.42,5.52.14,5.51.25-.01.08-1.53-.2-3.14-.08-.95.07-1.09.11-1.09.11,0,0,.59.38.72.73l39.78,2.04-.05,1.04-40.28-2.07c.48.06,1.29.1,1.95.31.04.01.08.03.12.04.02,0,.04,0,.06.01.45.04.93-.14,1.35.03.38.15.61.54.8.9.46.9.84,1.84,1.13,2.81.07.24.13.53-.04.72,0,0-.02,0-.02.02.16,1.16-.07,2.35-.6,3.45-.04.3-.1.61-.18.91-.16.61-.41,1.21-.78,1.72-.12.17-.26.33-.44.43-.37.2-.82.11-1.25.09-.56.41-1.18.75-1.82.99-.01,0-.02,0-.03.01-.2.16-.4.32-.59.48-.26.21-.52.42-.83.56-.55.25-1.18.22-1.78.12-.91-.14-1.84-.44-2.49-1.09-.03-.03-.05-.06-.08-.1-1.18-.44-2.19-1.17-2.83-2.17-.5-.31-.99-.66-1.44-1.05-.1-.09-.22-.2-.21-.34,0-.06.02-.12.05-.17Z"/><path class="cls-12" d="M566.7,671.3s.02-.05.02-.08c.03.02.02.11-.02.08Z"/><path class="cls-12" d="M588.64,725.45c-.16-.27-1.03-.18-1.33-.23-.07-.01-.41-.21-.48-.22-.08-.01-.98-.17-1.4-.17-.74,0-1.62-.11-2.25-.46-1.49-.81-1.96-5.33-2.09-9.14.21-.51.42-1.02.57-1.55.32-.39.64-.77.97-1.16.41-.5.84-1.01,1.03-1.62.14-.46.14-.95.13-1.44-.14-4.11-2.15-7.51-2.78-11.44-.07-.42-.14-.83-.28-1.23-.19-.52-.51-1-.64-1.54-.08-.31-.2-.67-.28-1.51-.09-.92-.1-4.14-.15-5.16-.12-2.49-.91-1.96-1.15-4.77,0-.1-.02-.25-.03-.42,1.45,1.14,2.98,1.22,3.27,1.23.8-1.24,1.74-2.31,2.16-3.12.49-.95,1.57-3.68,1.76-5.12.08-.62.24-1.22.36-1.83.02-.11.36-2.05.45-2.59.01-.11,0-.01.12-.76.06-.39.1-.65.09-.99,0-.11,0-.21-.03-.34-.05-.35-.23-.58-.37-.57-.41.01-.36.4-.36.4,0,0-.16-.56-.4-.56-.44,0-.46.47-.46.47,0,0-.07-.53-.43-.53-.26,0-.38.56-.38.56,0,0-.08-.32-.39-.37-.15-.02-.23.1-.29.27-.03-.09-.08-.18-.16-.25-.1-.08-.27-.2-.34-.16-.1.07.01.28,0,.43-.01.23,0,.36.02.59.03.43,0,.44.02.91.02.37.03.55.06.65.1.35.29.46.54.79.02.2.05.4.09.6.31,1.14.13,2.03-.2,3.13-.16.54-.67,1.37-.9,1.88-.18.4-.37.8-.61,1.17-.06.09-.12.18-.18.27-.3.42-.38.51-.49.69-.38.57-.34.87-.49.88-.23.01-.35-.64-.81-1.4-.13-.21-.65-1.06-1.4-1.49-.07-.04-.15-.07-.22-.1.03-.44.02-.78-.11-1.21-.18-.59-.16-1.24-.44-1.78-.07-.15-.15-.36,0-.46.04-.03.09-.04.12-.08.04-.05.02-.12,0-.17-.33-.86-.66-1.71-1.08-2.54-.18-.36-.36-.71-.54-1.07-.06-.12-.12-.24-.21-.33-.16-.16-.39-.24-.55-.4-.29-.29-.27-.75-.23-1.16l.17-1.82c.02-.2.24-.34.41-.23.06.04.11.09.17.13.17.14.4.22.62.21.17,0,.35-.11.51-.15.19-.05.37-.16.49-.32.16-.21.22-.5.16-.75-.03-.12-.09-.24-.12-.36-.03-.12-.02-.27.06-.36.06-.07.14-.1.21-.16.21-.17.2-.54-.02-.7.12.07.27-.09.25-.23-.02-.14-.13-.25-.21-.37-.08-.12-.13-.29-.03-.4.16-.18.5.04.69-.12.07-.06.09-.17.1-.26.02-.2,0-.4-.04-.59-.13-.53-.49-1.02-.48-1.56,0-.31.13-.6.17-.9.07-.45-.06-.92-.31-1.31.23-.35.47-.59.34-1.09-.15-.57-.62-.98-1.07-1.36-.44-.37-.88-.74-1.38-1.01-1.16-.63-2.59-.67-3.85-.26-1.26.41-2.35,1.24-3.23,2.23-.21.24-.42.5-.49.81-.12.5.14,1.02.1,1.53-.06.71-.66,1.29-.69,2,0,.21.04.41.04.62,0,.57-.29,1.1-.34,1.67-.02.27,0,.54-.02.8-.04.37-.2.72-.34,1.06-1.18,2.71-2.11,5.58-2.22,8.54,0,.08.02.22.02.3.58-.98.27-2.24.99-3.12.03.49.06.98.1,1.47.11-.51.25-1.02.42-1.52.02-.05.05-.12.11-.12,0,0,0,0,.01,0,.18-.7.4-1.39.67-2.06.06.1.08.22.05.33.17-.34.55-.47.94-.58-.57.83-.98,1.76-1.21,2.74-.22.96.08,1.93-.1,2.9-.1.52-.26,1.03-.37,1.56-.21,1.03-.06,1.59-.28,3.3-.02.18-.02.17-.04.29-.12.91-.19,2.09-.08,3.54.38,1.87.67,3.85.86,5.95.03.37.06.74.09,1.1l.09.48c-.03.2-.07.39-.1.59,0,.05-.02.1-.05.14-.05.06-.13.08-.21.1-.24.08-.43.29-.48.54.07.06.14.11.22.17-.2.24-.34.53-.42.84-.03.13-1.32.47-.33,1-.82-.44-.11,1.96-.12,2.03-.02.23-.1.48-.23.73-.84.39-1.63.91-2.31,1.55-1.81,1.69-2.84,4.03-3.81,6.31-.59,1.38-1.18,2.76-1.78,4.15-.38.9-.78,1.84-.73,2.81.07,1.45,1.11,2.67,2.19,3.64.7.62,2.57,1.92,3.74,2.68-.38,2.15-1.06,6.32-2.06,7.24-.73.67-.91,1.54-.37,2.44.07.11.15.22.25.3.3.23.9.28,1.27.29.34,0,.68-.04,1.01-.1.27-.05.43-.17.68-.25.27-.09.55-.12.83-.13.59,0,1.17.13,1.75.28.64.16,1.2.44,1.85.21.37-.13.73,0,1.1.13.3.11.65.16.94.04.3-.12.53-.44.47-.76-.06-.32-.92-.51-1.19-.65-.07-.04-.32-.33-.39-.37-.07-.04-.88-.48-1.28-.62-.7-.25-1.61-.55-1.99-1.17-.58-.95-.01-2.94.28-3.74.2-.56.41-1.12.65-1.67,2.72.79,4.91.69,7.58.23l2.35-1.31c1.05,2.37,2.97,5.69,1.92,7.8-.44.87-.38,1.72.41,2.39.1.08.21.16.33.2.35.12.94-.02,1.29-.13.32-.1.63-.25.93-.42.24-.13.36-.3.57-.45.23-.16.48-.29.75-.38.56-.19,1.16-.24,1.75-.29.66-.06,1.28.03,1.82-.39.31-.24.69-.23,1.08-.22.32,0,.66-.06.91-.26.25-.2.37-.58.21-.85Z"/></g><circle class="cls-22" cx="599.79" cy="686.38" r="82.77"/><circle class="cls-32" cx="599.79" cy="425.12" r="82.77"/><g class="cls-17"><path class="cls-5" d="M577.37,331.14c-28.84,13.39-54.77,39.96-49.53,49.53,4.81,8.8,32.93-2.33,37.15,6.67,2.07,4.41-3.09,10.52-19.05,29.53-23.91,28.47-30.37,36.22-29.53,37.15,2.12,2.32,50.39-38.45,52.39-36.2,1.13,1.27-15.22,13.05-23.81,35.24-6.49,16.75-7.41,36.49-2.86,38.1,6.77,2.39,26.39-43.17,29.14-41.91,1.7.78-6.31,17.69-10.09,42.86-2.13,14.17-5.55,36.93.95,40.01,14.52,6.86,70.55-88.16,78.11-83.82,4.9,2.82-16.25,44.25-10.48,47.63,3.81,2.23,17.67-13.18,27.62-27.62,21.31-30.93,36.07-73.94,26.67-80.01-10.27-6.63-49.27,43.42-53.34,40.01-3.79-3.17,29.33-46.53,24.77-50.48-4.12-3.57-35.23,28.14-39.05,24.77-4.65-4.1,36.54-55.3,30.48-60.96-4.76-4.45-34.78,22.8-40.96,17.15-5.08-4.64,12.16-25.78,5.72-33.34-6.23-7.31-29.87,3.66-34.29,5.72Z"/><circle class="cls-6" cx="599.79" cy="372.73" r="4.53"/><polyline class="cls-23" points="568.72 413.42 599.79 372.73 630.25 413.42"/><rect class="cls-21" x="554.54" y="413.42" width="90.5" height="51.59" rx="9.29" ry="9.29"/><path class="cls-4" d="M580.4,437.29v-9.59h2.32v3.65h4.69v-3.65h2.32v9.59h-2.32v-3.93h-4.69v3.93h-2.32Z"/><path class="cls-4" d="M599.99,437.29h-8.04v-9.59h7.9v1.96h-5.63v1.77h4.22v1.93h-4.22v1.96h5.77v1.96Z"/><path class="cls-4" d="M604.15,427.69v7.55h5.48v2.04h-7.8v-9.59h2.32Z"/><path class="cls-4" d="M613.68,433.87v3.41h-2.3v-9.59h4.54c2.48,0,3.94,1.11,3.94,3.09s-1.46,3.09-3.94,3.09h-2.24ZM615.83,432.02c1.16,0,1.8-.37,1.8-1.23s-.64-1.23-1.8-1.23h-2.15v2.47h2.15Z"/><path class="cls-4" d="M576.04,447.33h.06l1.66-6.44h2.24l-2.54,9.59h-2.5l-1.71-6.41h-.06l-1.71,6.41h-2.45l-2.54-9.59h2.31l1.66,6.43h.06l1.71-6.43h2.1l1.71,6.44Z"/><path class="cls-4" d="M587.12,448.43h-3.88l-.78,2.06h-2.33l3.82-9.59h2.59l3.82,9.59h-2.45l-.79-2.06ZM583.9,446.68h2.54l-1.25-3.27h-.06l-1.23,3.27Z"/><path class="cls-4" d="M598.43,446.89v-6h2.13v9.59h-2.1l-4.6-6.61v6.61h-2.13v-9.59h2.6l4.1,6Z"/><path class="cls-4" d="M605.94,450.49v-7.55h-3.65v-2.04h9.67v2.04h-3.7v7.55h-2.31Z"/><path class="cls-4" d="M621.72,450.49h-8.04v-9.59h7.9v1.96h-5.63v1.77h4.22v1.93h-4.22v1.96h5.77v1.96Z"/><path class="cls-4" d="M623.57,440.89h4.08c3.17,0,5.15,1.8,5.15,4.8s-1.98,4.8-5.15,4.8h-4.08v-9.59ZM627.47,448.64c1.86,0,2.94-1.08,2.94-2.97s-1.08-2.94-2.94-2.94h-1.58v5.91h1.58Z"/></g><circle class="cls-18" cx="599.79" cy="425.12" r="82.77"/><circle class="cls-29" cx="599.79" cy="131.45" r="82.77"/><g class="cls-31"><rect class="cls-1" x="554.73" y="154.57" width="61.67" height="27.69"/><rect class="cls-8" x="616.4" y="154.57" width="32.93" height="27.69"/><path class="cls-10" d="M597.39,154.57l19.01-7.48s-3.14,5.84,0,7.48h-19.01Z"/><rect class="cls-1" x="569.1" y="182.34" width="61.67" height="37.13"/><rect class="cls-8" x="630.77" y="182.34" width="32.93" height="37.13"/><path class="cls-10" d="M611.76,182.34l19.01-7.48s-3.14,5.84,0,7.48h-19.01Z"/><rect class="cls-1" x="561.91" y="99.1" width="61.67" height="27.69"/><rect class="cls-8" x="623.58" y="99.1" width="32.93" height="27.69"/><path class="cls-10" d="M604.57,99.1l19.01-7.48s-3.14,5.84,0,7.48h-19.01Z"/><rect class="cls-1" x="576.28" y="126.88" width="61.67" height="27.69"/><rect class="cls-8" x="637.95" y="126.88" width="32.93" height="27.69"/><path class="cls-8" d="M573.61,113.84h26.38s-13.58-1.68-26.38,0Z"/><path class="cls-8" d="M607.12,147.46h23.13s-11.91-1.48-23.13,0Z"/><path class="cls-8" d="M582.74,207.14h31.73s-16.34-1.01-31.73,0Z"/><path class="cls-8" d="M601.67,215.68h24.14s-12.43-.83-24.14,0Z"/><path class="cls-8" d="M593.73,105.98h18.69s-9.62-1.19-18.69,0Z"/><path class="cls-8" d="M582.42,174.59h29.92s-15.41-1.19-29.92,0Z"/><polygon class="cls-7" points="617.05 117.65 632.86 117.65 624.12 119.39 617.05 117.65"/><polygon class="cls-7" points="634.13 144.96 643.36 144.96 638.26 145.97 634.13 144.96"/><polygon class="cls-7" points="620.6 200.25 644.25 200.25 631.18 202.86 620.6 200.25"/><path class="cls-13" d="M583.4,122.82l6.66,2.02c3.12.94,6.04,2.42,8.66,4.35l2.14,1.59,14.52-7.96h-31.98Z"/><path class="cls-13" d="M615.39,154.48l-7.48,2.02c-3.5.94-6.78,2.42-9.71,4.35l-2.4,1.59-16.29-7.96h35.89Z"/><path class="cls-13" d="M585.75,168.41l-5.06,1.36c-2.37.64-4.59,1.64-6.58,2.95l-1.62,1.07-11.03-5.39h24.29Z"/><path class="cls-13" d="M650.68,141.48l3.33,1.01c1.56.47,3.02,1.21,4.33,2.18l1.07.79,7.26-3.98h-15.99Z"/><path class="cls-10" d="M637.56,191.56l6.47,1.27c2.56.77,4.51.99,6.65,2.58l5.77,3.85,7.35-7.7h-26.25Z"/><polygon class="cls-13" points="558.11 118 567.54 119.86 558.11 120.79 558.11 118"/><polygon class="cls-13" points="574.79 134.63 584.22 136.49 574.79 137.42 574.79 134.63"/><polygon class="cls-13" points="548.68 159.05 566.2 160.91 548.68 161.84 548.68 159.05"/><polygon class="cls-13" points="568.05 199.51 585.56 201.37 568.05 202.3 568.05 199.51"/><polygon class="cls-13" points="568.05 210.19 579.59 211.42 568.05 212.03 568.05 210.19"/><polygon class="cls-13" points="660.27 107.11 650.84 105.25 660.27 104.32 660.27 107.11"/><polygon class="cls-13" points="675.6 137.42 666.17 135.56 675.6 134.63 675.6 137.42"/><polygon class="cls-13" points="651.5 163.24 642.07 161.38 651.5 160.45 651.5 163.24"/><polygon class="cls-13" points="664.99 208.54 655.56 206.68 664.99 205.75 664.99 208.54"/><path class="cls-7" d="M632.86,111.19h18.69s-9.62-1.19-18.69,0Z"/><path class="cls-7" d="M630.7,133.42h16.09s-8.28-1.03-16.09,0Z"/><path class="cls-7" d="M633.23,138.46h11.02s-5.67-.7-11.02,0Z"/><path class="cls-13" d="M579.59,182.26s15.21,5.26,16.56,13.16l16.56-13.07"/><path class="cls-7" d="M633.23,214.42h15.62s-8.04-.54-15.62,0Z"/><path class="cls-7" d="M622.96,169.88h15.62s-8.04-.54-15.62,0Z"/><path class="cls-1" d="M544.3,117.41c7.29,7.16,12.1,13.72,16.04,19.8-12.29,7.66-23.89,16.31-31.18,25.64-5.83-6.14-10.76-12.69-16.09-19.8,9.94-9.41,21.38-18.06,31.23-25.64Z"/><path class="cls-1" d="M713.95,89.89c3.03,6.07,3.27,11.8,3.55,17.3-9.51,3.77-18.09,8.06-24.66,12.76-3.12-6.04-4.25-12.35-6.3-19.05,8.84-4.22,18.19-7.93,27.41-11Z"/><path class="cls-1" d="M716.25,179.53c-9.74,3.96-18.66,8.33-26.39,13.06-4.88-11.71-5.77-24.08-10.11-37.46,10-3.73,20.28-6.97,30.7-9.68,5.23,12.12,4.81,23.36,5.8,34.08Z"/><path class="cls-1" d="M556.41,81.63c-1.73-11.13,5.06-22.44,3.23-33.91,15.34,1.23,30.62,2.44,45.86,3.61-2.3,9.25-11.68,18.71-13.81,28.35-11.71.67-23.47,1.32-35.28,1.95Z"/></g><circle class="cls-25" cx="599.79" cy="131.45" r="82.77"/><line class="cls-24" x1="510.21" y1="159.75" x2="508.27" y2="162"/><line class="cls-26" x1="504.38" y1="166.51" x2="311.75" y2="389.79"/><line class="cls-24" x1="309.81" y1="392.05" x2="307.87" y2="394.29"/><line class="cls-19" x1="327.48" y1="686.38" x2="492.43" y2="686.38"/><line class="cls-19" x1="337.46" y1="472.47" x2="500.77" y2="439.21"/><ellipse class="cls-14" cx="230.46" cy="243.75" rx="39.53" ry="4.43"/></svg>