<?xml version="1.0" encoding="UTF-8"?><svg id="Layer_1" xmlns="http://www.w3.org/2000/svg" viewBox="0 0 278.02 204.7"><defs><style>.cls-1{fill:#000;}.cls-1,.cls-2,.cls-3,.cls-4,.cls-5,.cls-6,.cls-7,.cls-8,.cls-9{stroke-width:0px;}.cls-2{fill:#ffb860;}.cls-3,.cls-10,.cls-11{fill:#ff704f;}.cls-4{fill:#81ba97;}.cls-12{stroke:#ffa638;stroke-width:.45px;}.cls-12,.cls-10,.cls-13,.cls-11{stroke-miterlimit:10;}.cls-12,.cls-13{fill:none;}.cls-10{stroke-width:.68px;}.cls-10,.cls-13,.cls-11{stroke:#231f20;}.cls-5{fill:#ffa638;}.cls-6{fill:#231f20;}.cls-7,.cls-14{fill:#fff;}.cls-13{stroke-width:3.03px;}.cls-11{stroke-width:.75px;}.cls-8{fill:#bf543b;}.cls-14{font-family:FoundersGroteskText-Semibold, 'Founders Grotesk Text';font-size:18.2px;font-weight:600;}.cls-9{fill:#358755;}</style></defs><rect class="cls-6" x="19.08" y="3.9" width="242.03" height="62.66" rx="23.79" ry="23.79"/><text class="cls-14" transform="translate(118.25 42.84)"><tspan x="0" y="0">DHS</tspan></text><path class="cls-1" d="M22.01,151.01v-6.01h2.14v9.61h-2.11l-4.61-6.62v6.62h-2.14v-9.61h2.61l4.1,6.01Z"/><path class="cls-1" d="M33.37,148.59c-.23-1.01-1.01-1.74-2.35-1.74-1.6,0-2.7,1.18-2.7,2.96s1.07,3.02,2.76,3.02c1.25,0,2-.64,2.33-1.59h-2.79v-1.6h4.97v4.97h-1.62l-.27-1.31c-.52.96-1.66,1.5-3.04,1.5-2.67,0-4.75-2.01-4.75-4.99s2.35-4.99,5.1-4.99c2.23,0,3.8,1.02,4.38,2.72l-2.03,1.05Z"/><path class="cls-1" d="M42.34,154.8c-2.81,0-5.04-2.03-5.04-4.99s2.23-4.99,5.04-4.99,5.02,2.03,5.02,4.99-2.23,4.99-5.02,4.99ZM42.34,146.86c-1.57,0-2.64,1.16-2.64,2.94s1.07,2.95,2.64,2.95,2.62-1.16,2.62-2.95-1.07-2.94-2.62-2.94Z"/><line class="cls-13" x1="46.35" y1="80.97" x2="35.43" y2="119.61"/><polygon class="cls-6" points="41.62 81.01 48.13 74.68 50.36 83.48 41.62 81.01"/><polygon class="cls-6" points="31.43 117.1 33.65 125.89 40.16 119.57 31.43 117.1"/><line class="cls-13" x1="104.41" y1="77.89" x2="104.41" y2="118.05"/><polygon class="cls-6" points="99.88 79.22 104.41 71.36 108.95 79.22 99.88 79.22"/><polygon class="cls-6" points="99.88 116.72 104.41 124.58 108.95 116.72 99.88 116.72"/><line class="cls-13" x1="181.93" y1="77.89" x2="181.93" y2="118.05"/><polygon class="cls-6" points="177.4 79.22 181.93 71.36 186.47 79.22 177.4 79.22"/><polygon class="cls-6" points="177.4 116.72 181.93 124.58 186.47 116.72 177.4 116.72"/><line class="cls-13" x1="235.04" y1="80.65" x2="243.41" y2="119.93"/><polygon class="cls-6" points="230.88 82.9 233.68 74.27 239.76 81.01 230.88 82.9"/><polygon class="cls-6" points="238.69 119.57 244.77 126.31 247.57 117.68 238.69 119.57"/><rect class="cls-5" x="19.93" y="174.96" width="21.49" height="21.49" transform="translate(-.96 .16) rotate(-.3)"/><rect class="cls-6" x="28.18" y="189.05" width="5.07" height="7.4" transform="translate(-.99 .16) rotate(-.3)"/><rect class="cls-7" x="23.05" y="180.12" width="5.07" height="5.07" transform="translate(-.94 .13) rotate(-.3)"/><rect class="cls-7" x="33.19" y="180.06" width="5.07" height="5.07" transform="translate(-.94 .19) rotate(-.3)"/><line class="cls-12" x1="25.57" y1="178.63" x2="25.61" y2="187.04"/><line class="cls-12" x1="40.95" y1="182.75" x2="21.39" y2="182.86"/><line class="cls-12" x1="35.71" y1="178.58" x2="35.75" y2="186.99"/><polygon class="cls-3" points="30.62 174.96 30.57 165.81 13.88 175.04 30.62 174.96"/><polygon class="cls-3" points="30.62 174.96 30.57 165.81 47.36 174.87 30.62 174.96"/><path class="cls-1" d="M94.53,151.01v-6.01h2.14v9.61h-2.11l-4.61-6.62v6.62h-2.14v-9.61h2.61l4.1,6.01Z"/><path class="cls-1" d="M105.89,148.59c-.23-1.01-1.01-1.74-2.35-1.74-1.6,0-2.7,1.18-2.7,2.96s1.07,3.02,2.76,3.02c1.25,0,2-.64,2.33-1.59h-2.79v-1.6h4.97v4.97h-1.62l-.27-1.31c-.52.96-1.66,1.5-3.04,1.5-2.67,0-4.75-2.01-4.75-4.99s2.35-4.99,5.1-4.99c2.23,0,3.8,1.02,4.38,2.72l-2.03,1.05Z"/><path class="cls-1" d="M114.86,154.8c-2.81,0-5.04-2.03-5.04-4.99s2.23-4.99,5.04-4.99,5.02,2.03,5.02,4.99-2.23,4.99-5.02,4.99ZM114.86,146.86c-1.57,0-2.64,1.16-2.64,2.94s1.07,2.95,2.64,2.95,2.62-1.16,2.62-2.95-1.07-2.94-2.62-2.94Z"/><path class="cls-1" d="M168.98,151.01v-6.01h2.14v9.61h-2.11l-4.61-6.62v6.62h-2.14v-9.61h2.61l4.1,6.01Z"/><path class="cls-1" d="M180.34,148.59c-.23-1.01-1.01-1.74-2.35-1.74-1.6,0-2.7,1.18-2.7,2.96s1.07,3.02,2.76,3.02c1.25,0,2-.64,2.33-1.59h-2.79v-1.6h4.97v4.97h-1.62l-.27-1.31c-.52.96-1.66,1.5-3.04,1.5-2.67,0-4.75-2.01-4.75-4.99s2.35-4.99,5.1-4.99c2.23,0,3.8,1.02,4.38,2.72l-2.03,1.05Z"/><path class="cls-1" d="M189.31,154.8c-2.81,0-5.04-2.03-5.04-4.99s2.23-4.99,5.04-4.99,5.02,2.03,5.02,4.99-2.23,4.99-5.02,4.99ZM189.31,146.86c-1.57,0-2.64,1.16-2.64,2.94s1.07,2.95,2.64,2.95,2.62-1.16,2.62-2.95-1.07-2.94-2.62-2.94Z"/><path class="cls-1" d="M241.51,151.01v-6.01h2.14v9.61h-2.11l-4.61-6.62v6.62h-2.14v-9.61h2.61l4.1,6.01Z"/><path class="cls-1" d="M252.88,148.59c-.23-1.01-1.01-1.74-2.35-1.74-1.6,0-2.7,1.18-2.7,2.96s1.07,3.02,2.76,3.02c1.25,0,2-.64,2.33-1.59h-2.79v-1.6h4.97v4.97h-1.62l-.27-1.31c-.52.96-1.66,1.5-3.04,1.5-2.67,0-4.75-2.01-4.75-4.99s2.35-4.99,5.1-4.99c2.23,0,3.8,1.02,4.38,2.72l-2.03,1.05Z"/><path class="cls-1" d="M261.85,154.8c-2.81,0-5.04-2.03-5.04-4.99s2.23-4.99,5.04-4.99,5.02,2.03,5.02,4.99-2.23,4.99-5.02,4.99ZM261.85,146.86c-1.57,0-2.64,1.16-2.64,2.94s1.07,2.95,2.64,2.95,2.62-1.16,2.62-2.95-1.07-2.94-2.62-2.94Z"/><rect class="cls-8" x="88.55" y="190.9" width="20.39" height="3.15" rx="1.57" ry="1.57" transform="translate(5.95 -2.94) rotate(1.76)"/><rect class="cls-3" x="87.7" y="194.05" width="21.92" height="2.18" rx="1.09" ry="1.09" transform="translate(6.03 -2.93) rotate(1.76)"/><rect class="cls-8" x="102.36" y="178.9" width="25.17" height="2.69" rx="1.25" ry="1.25" transform="translate(73.16 -29.41) rotate(21.26)"/><rect class="cls-8" x="97.99" y="167.57" width="10.53" height="2.31" rx="1.16" ry="1.16" transform="translate(68.19 -25.96) rotate(21.26)"/><rect class="cls-8" x="93.26" y="179.73" width="10.53" height="2.31" rx="1.16" ry="1.16" transform="translate(72.28 -23.41) rotate(21.26)"/><rect class="cls-3" x="99.87" y="166.56" width="8.03" height="1.12" rx=".56" ry=".56" transform="translate(67.65 -26.29) rotate(21.26)"/><rect class="cls-3" x="93.89" y="181.93" width="8.03" height="1.12" rx=".56" ry=".56" transform="translate(72.82 -23.08) rotate(21.26)"/><rect class="cls-8" x="94.58" y="177.26" width="10.28" height="1.12" rx=".56" ry=".56" transform="translate(71.25 -24.06) rotate(21.26)"/><rect class="cls-8" x="96.94" y="171.19" width="10.28" height="1.12" rx=".56" ry=".56" transform="translate(69.21 -25.32) rotate(21.26)"/><rect class="cls-5" x="96.22" y="172.09" width="9.36" height="5.38" transform="translate(70.23 -24.69) rotate(21.26)"/><path class="cls-3" d="M106.85,171.35l-4.01-1.56-4.01-1.56s-.25.48.34.95c.59.48-.12.8-.64.59l3.74,1.46,3.74,1.46c-.52-.2-.83-.92-.07-.87.76.05.9-.47.9-.47Z"/><path class="cls-3" d="M102.96,181.34l-4.01-1.56-4.01-1.56s.14-.52.9-.47c.76.05.45-.66-.07-.87.42.16,3.74,1.46,3.74,1.46l3.74,1.46c-.52-.2-1.23.12-.64.59.59.48.34.95.34.95Z"/><path class="cls-3" d="M175.27,184.77c.05.11.11.23.16.35l-14.62,4.99,3.31-5.67c2.53-4.34,8.96-4.2,11.14.33Z"/><ellipse class="cls-3" cx="173.54" cy="176.92" rx="12.73" ry="10.58"/><path class="cls-6" d="M180.2,192.24c-.05.11-.11.23-.16.35l14.61,4.99-3.31-5.67c-2.53-4.34-8.96-4.2-11.14.33Z"/><ellipse class="cls-6" cx="181.93" cy="184.39" rx="12.72" ry="10.58"/><ellipse class="cls-5" cx="251.14" cy="175.93" rx="8.31" ry="27.54" transform="translate(13.54 369.75) rotate(-74.22)"/><path class="cls-2" d="M245.74,179.21c-2.27-.65-4.3-2.17-5.55-4.4-1.24-2.22-1.47-4.75-.85-7.02,2.28.65,4.3,2.17,5.55,4.39,1.25,2.23,1.48,4.75.84,7.03Z"/><path class="cls-2" d="M254.3,181.63c-2.27-.65-4.3-2.17-5.55-4.4-1.24-2.22-1.47-4.75-.85-7.02,2.28.65,4.3,2.17,5.55,4.39,1.25,2.23,1.48,4.75.84,7.03Z"/><path class="cls-2" d="M263.21,184.15c-2.27-.65-4.3-2.17-5.55-4.4-1.24-2.22-1.47-4.75-.85-7.02,2.28.65,4.3,2.17,5.55,4.39,1.25,2.23,1.48,4.75.84,7.03Z"/><path class="cls-3" d="M256.78,185.84c0,6-4.86,10.86-10.86,10.86s-10.86-4.86-10.86-10.86,4.86-8.04,10.86-8.04,10.86,2.04,10.86,8.04Z"/><line class="cls-10" x1="243.3" y1="180.55" x2="247.64" y2="182.2"/><line class="cls-11" x1="248.28" y1="180.23" x2="243.57" y2="182.34"/><circle class="cls-9" cx="265" cy="188.13" r="3.8"/><circle class="cls-9" cx="262.99" cy="183.05" r="3.8"/><circle class="cls-9" cx="260.28" cy="189.71" r="3.8"/><circle class="cls-9" cx="261.28" cy="185.87" r="3.8"/><circle class="cls-9" cx="257.07" cy="186.4" r="3.8"/><circle class="cls-9" cx="257.23" cy="182.84" r="3.8"/><path class="cls-4" d="M252.37,194.4l3.67,2.23s3.29-6.37,7.09-8.42l-3.8,2.06,4.55-5.68-5.44,4.88,2.6-5.23-3.29,4.81.77-4.74s-3.59,8.52-6.14,10.09Z"/></svg>