<?xml version="1.0" encoding="UTF-8"?><svg id="Layer_1" xmlns="http://www.w3.org/2000/svg" viewBox="0 0 278.02 250.27"><defs><style>.cls-1{stroke-width:1.69px;}.cls-1,.cls-2,.cls-3{stroke-miterlimit:10;}.cls-1,.cls-4,.cls-3{fill:#ff704f;}.cls-1,.cls-3{stroke:#231f20;}.cls-2{fill:none;stroke:#ffa638;stroke-width:1.37px;}.cls-5{fill:#ffb860;}.cls-5,.cls-6,.cls-4,.cls-7,.cls-8,.cls-9,.cls-10,.cls-11,.cls-12{stroke-width:0px;}.cls-6{fill:#46576e;}.cls-7{fill:#81ba97;}.cls-8{fill:#ffa638;}.cls-9{fill:#231f20;}.cls-10{fill:#fff;}.cls-3{stroke-width:1.52px;}.cls-11{fill:#bf543b;}.cls-12{fill:#358755;}</style></defs><path class="cls-6" d="M22.92,89.06c-.97-3.12-.67-6.21,1.35-9.49,1.81-2.92,3.44-5.37,2.33-8.51-.87-2.46-3.17-3.87-6.25-2.78-3.94,1.39-4.61,4.61-3.3,8.3.5,1.42,1.04,2.34,1.58,3.11l-9.2,2.98c-.68-1.15-1.37-2.29-1.78-3.46-2.92-8.25,1.16-15.72,9.97-18.84,9.3-3.29,16.22.22,18.53,6.75,1.83,5.17-.35,9.2-3.06,13.28-1.46,2.32-2.1,3.86-1.55,5.61l-8.62,3.05ZM23.34,92.03l9.61-3.4,3.4,9.61-9.61,3.4-3.4-9.61Z"/><path class="cls-6" d="M257.06,155.2c.37-3.25,1.88-5.95,5.05-8.14,2.83-1.95,5.3-3.54,5.55-6.86.19-2.61-1.35-4.82-4.61-5.05-4.17-.31-6.07,2.37-6.36,6.28-.11,1.5.01,2.55.2,3.49l-9.62-.96c-.17-1.32-.33-2.65-.24-3.88.64-8.73,7.38-13.93,16.69-13.25,9.84.72,14.77,6.72,14.26,13.62-.4,5.47-4.01,8.28-8.14,10.93-2.27,1.53-3.47,2.69-3.67,4.51l-9.12-.67ZM256.26,158.09l10.16.74-.74,10.16-10.16-.74.74-10.16Z"/><path class="cls-6" d="M166.33,121.14c.13-3.27,1.43-6.08,4.44-8.49,2.68-2.15,5.03-3.92,5.03-7.25,0-2.61-1.7-4.7-4.96-4.7-4.18,0-5.88,2.81-5.88,6.73,0,1.5.2,2.55.46,3.46l-9.66-.26c-.26-1.31-.52-2.61-.52-3.85,0-8.75,6.34-14.44,15.68-14.44,9.86,0,15.22,5.62,15.22,12.54,0,5.49-3.4,8.56-7.32,11.5-2.15,1.7-3.27,2.94-3.33,4.77h-9.14ZM165.74,124.09h10.19v10.19h-10.19v-10.19Z"/><path class="cls-6" d="M114.21,181.59c1.44-2.3,3.54-3.79,6.7-4.3,2.82-.45,5.24-.76,6.62-3.16,1.08-1.89.71-4.09-1.64-5.44-3.02-1.72-5.4-.39-7.02,2.43-.62,1.08-.91,1.92-1.1,2.69l-6.87-4.17c.35-1.05.7-2.1,1.21-3,3.61-6.32,10.52-7.81,17.26-3.96,7.12,4.06,8.67,10.32,5.82,15.32-2.26,3.96-5.98,4.78-10.01,5.28-2.25.34-3.57.78-4.37,2.07l-6.6-3.77ZM112.57,183.47l7.35,4.2-4.2,7.35-7.35-4.2,4.2-7.35Z"/><rect class="cls-8" x="24.01" y="166.44" width="65.6" height="65.6" transform="translate(-40.25 16.2) rotate(-12.02)"/><rect class="cls-9" x="53.55" y="208.97" width="15.47" height="22.6" transform="translate(-44.54 17.6) rotate(-12.02)"/><rect class="cls-10" x="31.98" y="185.54" width="15.47" height="15.47" transform="translate(-39.39 12.51) rotate(-12.02)"/><rect class="cls-10" x="62.25" y="179.1" width="15.47" height="15.47" transform="translate(-37.38 18.68) rotate(-12.02)"/><line class="cls-2" x1="37.16" y1="181.27" x2="42.51" y2="206.37"/><line class="cls-2" x1="85.68" y1="184.06" x2="27.28" y2="196.49"/><line class="cls-2" x1="67.43" y1="174.82" x2="72.77" y2="199.93"/><polygon class="cls-4" points="49.97 167.16 44.16 139.86 0 177.8 49.97 167.16"/><polygon class="cls-4" points="49.97 167.16 44.16 139.86 99.95 156.52 49.97 167.16"/><ellipse class="cls-8" cx="183.41" cy="24.59" rx="18.65" ry="61.8" transform="translate(109.86 194.4) rotate(-74.22)"/><path class="cls-5" d="M171.28,31.96c-5.09-1.47-9.65-4.88-12.45-9.88-2.79-4.99-3.3-10.65-1.9-15.77,5.12,1.47,9.66,4.87,12.45,9.86,2.8,5,3.33,10.67,1.89,15.78Z"/><path class="cls-5" d="M190.5,37.4c-5.09-1.47-9.65-4.88-12.45-9.88-2.79-4.99-3.3-10.65-1.9-15.77,5.12,1.47,9.66,4.87,12.45,9.86,2.8,5,3.33,10.67,1.89,15.78Z"/><path class="cls-5" d="M210.5,43.05c-5.09-1.47-9.65-4.88-12.45-9.88s-3.3-10.65-1.9-15.77c5.12,1.47,9.66,4.87,12.45,9.86,2.8,5,3.33,10.67,1.89,15.78Z"/><path class="cls-4" d="M196.06,46.85c0,13.46-10.91,24.37-24.37,24.37s-24.37-10.91-24.37-24.37,10.91-18.05,24.37-18.05,24.37,4.59,24.37,18.05Z"/><line class="cls-3" x1="165.8" y1="34.97" x2="175.54" y2="38.67"/><line class="cls-1" x1="176.98" y1="34.24" x2="166.42" y2="38.99"/><circle class="cls-12" cx="214.51" cy="51.98" r="8.54"/><circle class="cls-12" cx="210.01" cy="40.59" r="8.54"/><circle class="cls-12" cx="203.92" cy="55.54" r="8.54"/><circle class="cls-12" cx="206.16" cy="46.9" r="8.54"/><circle class="cls-12" cx="196.72" cy="48.1" r="8.54"/><circle class="cls-12" cx="197.06" cy="40.1" r="8.54"/><path class="cls-7" d="M186.17,66.06l8.23,5.01s7.39-14.29,15.91-18.91l-8.53,4.62,10.2-12.74-12.22,10.96,5.83-11.74-7.38,10.8,1.73-10.64s-8.05,19.12-13.78,22.65Z"/><path class="cls-4" d="M88.54,98.7c.15.32.3.65.45.98l-40.88,13.96,9.27-15.87c7.09-12.14,25.07-11.74,31.16.93Z"/><ellipse class="cls-4" cx="83.7" cy="76.75" rx="35.59" ry="29.59"/><path class="cls-9" d="M102.35,119.58c-.15.32-.3.65-.45.98l40.86,13.95-9.26-15.86c-7.09-12.14-25.06-11.74-31.15.93Z"/><ellipse class="cls-9" cx="107.18" cy="97.63" rx="35.58" ry="29.58"/><rect class="cls-11" x="143.2" y="224.75" width="67.43" height="10.41" rx="5.21" ry="5.21" transform="translate(43.71 -27.79) rotate(10.24)"/><rect class="cls-4" x="139.12" y="235.02" width="72.46" height="7.2" rx="3.6" ry="3.6" transform="translate(45.23 -27.38) rotate(10.24)"/><rect class="cls-11" x="194.25" y="193.41" width="83.22" height="8.9" rx="4.12" ry="4.12" transform="translate(129.22 -90.94) rotate(29.74)"/><rect class="cls-11" x="185.86" y="150.66" width="34.82" height="7.65" rx="3.82" ry="3.82" transform="translate(103.41 -80.49) rotate(29.74)"/><rect class="cls-11" x="164.46" y="188.12" width="34.82" height="7.65" rx="3.82" ry="3.82" transform="translate(119.18 -64.94) rotate(29.74)"/><rect class="cls-4" x="192.81" y="147.69" width="26.55" height="3.72" rx="1.86" ry="1.86" transform="translate(101.34 -82.54) rotate(29.74)"/><rect class="cls-4" x="165.77" y="195.02" width="26.55" height="3.72" rx="1.86" ry="1.86" transform="translate(121.25 -62.89) rotate(29.74)"/><rect class="cls-11" x="170.28" y="180.63" width="33.98" height="3.72" rx="1.86" ry="1.86" transform="translate(115.2 -68.86) rotate(29.74)"/><rect class="cls-11" x="180.95" y="161.95" width="33.98" height="3.72" rx="1.86" ry="1.86" transform="translate(107.34 -76.62) rotate(29.74)"/><rect class="cls-8" x="177.13" y="164.25" width="30.94" height="17.8" transform="translate(111.27 -72.74) rotate(29.74)"/><path class="cls-4" d="M213.74,164.81l-12.34-7.05-12.34-7.05s-1.04,1.44.66,3.28c1.7,1.84-.77,2.54-2.38,1.62,1.28.73,11.53,6.59,11.53,6.59,0,0,10.25,5.85,11.53,6.59-1.61-.92-2.26-3.4.19-2.87,2.45.52,3.16-1.1,3.16-1.1Z"/><path class="cls-4" d="M196.15,195.59l-12.34-7.05-12.34-7.05s.71-1.62,3.16-1.1c2.45.52,1.8-1.95.19-2.87,1.28.73,11.53,6.59,11.53,6.59,0,0,10.25,5.85,11.53,6.59-1.61-.92-4.07-.22-2.38,1.62,1.7,1.84.66,3.28.66,3.28Z"/></svg>